<?xml version="1.0" encoding="utf-8"?>
<!-- Generator: Adobe Illustrator 23.0.5, SVG Export Plug-In . SVG Version: 6.00 Build 0)  -->
<svg version="1.1" id="Слой_1" xmlns="http://www.w3.org/2000/svg" xmlns:xlink="http://www.w3.org/1999/xlink" x="0px" y="0px"
	 viewBox="0 0 300 300" style="enable-background:new 0 0 300 300;" xml:space="preserve">
<style type="text/css">
	.st0{fill:#F4D5BD;}
	.st1{fill:#562600;}
	.st2{fill:#BBAA9D;}
	.st3{fill:#FFC4BA;}
</style>
<g>
	<g>
		<path class="st0" d="M149.3,241.4c-33.7,0-64.8-18.4-81-48.1C60.9,179.9,57,164.6,57,149.1c0-50.9,41.4-92.3,92.3-92.3
			s92.3,41.4,92.3,92.3c0,33.3-18,64.1-47,80.4C180.8,237.3,165.2,241.4,149.3,241.4z"/>
		<path class="st1" d="M149.3,58.7c49.9,0,90.4,40.5,90.4,90.4c0,33.8-18.6,63.3-46.1,78.8c-13.1,7.4-28.2,11.6-44.4,11.6
			c-34.2,0-64-19-79.4-47.1c-7-12.9-11-27.6-11-43.3C58.9,99.2,99.4,58.7,149.3,58.7 M149.3,55c-51.9,0-94.1,42.2-94.1,94.1
			c0,15.8,4,31.4,11.5,45.1c16.5,30.2,48.2,49,82.6,49c16.2,0,32.2-4.2,46.2-12.1c29.6-16.7,47.9-48.1,47.9-82
			C243.4,97.2,201.2,55,149.3,55L149.3,55z"/>
	</g>
	<g>
		<path class="st2" d="M149.3,241.4c-33.7,0-64.8-18.4-81-48.1l-0.4-0.7l0.2-0.8c9.1-27.7,25.6-75.6,34-85.3
			c5.6-6.4,12.6-7.8,17.6-7.8c1.2,0,2.3,0.1,3.2,0.2c2.5-3.9,9.7-10.5,9.8-10.5c3.9-2.6,8.7-3.9,13.7-3.9c7.8,0,15.5,3.2,20.9,8.6
			c1.4-0.1,4.3-1,6.2-1.5c1.8-0.5,2.8-0.8,3.5-0.9c1-0.1,2-0.2,3-0.2c10.2,0,17.7,7.4,23,22.5c2.9,0.8,8.9,3.1,9.9,3.9
			c17.8,14.4,5,58-1.5,73.7c-4.8,11.7-10.1,24.2-16.1,38.2l-0.2,0.6l-0.5,0.3C180.8,237.3,165.2,241.4,149.3,241.4z"/>
		<path class="st1" d="M146.5,86.4c7.4,0,14.9,3.1,20,8.4c0.1,0.1,0.4,0.2,0.7,0.2c2.3,0,8.6-2.3,10.1-2.5c0.9-0.1,1.9-0.2,2.7-0.2
			c12,0,18.1,11.7,21.6,22.2c0,0,0,0,0,0c0.6,0,9.1,3,10.1,3.8c15.8,12.8,5.8,52.5-2,71.5c-5.3,12.8-10.7,25.5-16.1,38.2
			c-13.1,7.4-28.2,11.6-44.4,11.6c-34.2,0-64-19-79.4-47.1c8.1-24.7,25.3-75,33.7-84.7c5.2-6,11.9-7.1,16.2-7.1
			c2.6,0,4.3,0.4,4.4,0.4c-1.1-0.5,8.9-10.6,9.7-11.1C137.6,87.5,142,86.4,146.5,86.4 M146.5,82.7c-5.4,0-10.4,1.5-14.7,4.2
			c-1.2,0.8-5.8,5.7-5.9,5.7c-1.8,1.9-3,3.3-3.9,4.4c-0.8-0.1-1.6-0.1-2.3-0.1c-7.5,0-14.2,3-19,8.4c-8.2,9.5-23.2,52-34.4,86
			l-0.5,1.5l0.8,1.4c16.5,30.2,48.2,49,82.6,49c16.2,0,32.2-4.2,46.2-12.1l1.1-0.6l0.5-1.1c6-14,11.3-26.5,16.1-38.2
			c8.2-19.9,18.9-61.3,1-75.8c-1.1-0.8-6.2-2.9-9.6-3.9c-5.5-15.2-13.7-22.8-24.4-22.8c-1.1,0-2.1,0.1-3.2,0.2
			c-0.8,0.1-1.8,0.4-3.7,1c-1.3,0.4-3.6,1.1-5,1.4C162.4,85.8,154.4,82.7,146.5,82.7L146.5,82.7z"/>
	</g>
	<g>
		<path class="st3" d="M112,138.1c-2.4,0-4.3-0.8-5.6-2.2c-1.3-1.5-1.8-3.6-1.6-6.2c0.8-7,7.5-16.5,13.3-16.5c1.6,0,4.5,0.7,6,5.7
			c1.3,4.3,0,10.2-3,14.3c-2.4,3.2-5.6,5-9,5L112,138.1z"/>
		<path class="st1" d="M118.1,115c1.8,0,3.3,1.2,4.2,4.3c1.9,6.5-2.8,16.9-10.2,16.9c0,0-0.1,0-0.1,0c-4.4-0.1-5.7-2.9-5.3-6.4
			C107.4,123.6,113.5,115,118.1,115 M118.1,111.3c-7.2,0-14.3,11-15.1,18.1c-0.4,3.9,0.8,6.3,2,7.6c1.1,1.3,3.2,2.8,6.9,2.9l0.2,0
			c4,0,7.7-2,10.4-5.7c3.4-4.6,4.8-11,3.3-15.9C124,112,119.8,111.3,118.1,111.3L118.1,111.3z"/>
	</g>
	<g>
		<path class="st3" d="M195.6,156c-2.4,0-4.3-0.8-5.6-2.2c-1.3-1.5-1.8-3.6-1.6-6.2c0.8-7,7.5-16.5,13.3-16.5c1.6,0,4.5,0.7,6,5.7
			c1.3,4.3,0,10.2-3,14.3c-2.4,3.2-5.6,5-9,5L195.6,156z"/>
		<path class="st1" d="M201.8,132.9c1.8,0,3.3,1.2,4.2,4.3c1.9,6.5-2.8,16.9-10.2,16.9c0,0-0.1,0-0.1,0c-4.4-0.1-5.7-2.9-5.3-6.4
			C191,141.5,197.2,132.9,201.8,132.9 M201.8,129.2c-7.2,0-14.3,11-15.1,18.1c-0.4,3.9,0.8,6.3,2,7.6c1.1,1.3,3.2,2.8,6.9,2.9l0.2,0
			c4,0,7.7-2,10.4-5.7c3.4-4.6,4.8-11,3.3-15.9C207.7,129.9,203.5,129.2,201.8,129.2L201.8,129.2z"/>
	</g>
	<g>
		<path class="st3" d="M175.6,131.5c-1.1,0-2.3-0.3-3.4-0.8c-4.2-2-5.7-6.4-3.9-11.8c1.8-5.3,6.6-11,11.4-11c1.4,0,4,0.5,5.5,4.1
			c1.7,3.8,0.7,10.2-2.2,14.7C181.1,129.9,178.4,131.5,175.6,131.5L175.6,131.5z"/>
		<path class="st1" d="M179.7,109.9c1.5,0,2.9,0.9,3.8,3c2.2,5.1-1.5,16.8-7.9,16.8c-0.8,0-1.7-0.2-2.6-0.6
			c-3.8-1.8-4.2-5.7-2.9-9.5C171.8,114.6,176.2,109.9,179.7,109.9 M179.7,106.2c-5.7,0-11.1,6.2-13.1,12.2c-2.1,6.3-0.2,11.6,4.8,14
			c1.4,0.6,2.8,1,4.2,1c3.4,0,6.6-2,8.9-5.5c3.3-5,4.3-12.1,2.4-16.5C185.5,108.1,182.9,106.2,179.7,106.2L179.7,106.2z"/>
	</g>
	<g>
		<path class="st3" d="M147.4,123.5c-0.8,0-1.6-0.1-2.4-0.4c-4.5-1.4-6.5-5.5-5.6-11.1c1-5.9,5.6-12.6,10.5-12.6
			c1.4,0,3.5,0.6,5.3,3.3c2.4,3.8,2.1,11-0.5,15.8C152.9,121.8,150.3,123.5,147.4,123.5C147.4,123.5,147.4,123.5,147.4,123.5z"/>
		<path class="st1" d="M149.9,101.3c1.3,0,2.6,0.7,3.7,2.5c3.1,4.9,0.8,17.9-6.2,17.9c-0.6,0-1.2-0.1-1.9-0.3c-4-1.2-5-5-4.3-9
			C142.2,107,146.2,101.3,149.9,101.3 M149.9,97.6c-6,0-11.1,7.3-12.3,14.1c-1.1,6.5,1.5,11.5,6.8,13.2c1,0.3,2,0.5,2.9,0.5
			c3.6,0,6.8-2.1,8.8-5.8c3-5.4,3.2-13.4,0.5-17.7C154.4,98.2,151.5,97.6,149.9,97.6L149.9,97.6z"/>
	</g>
	<g>
		<path class="st3" d="M171.2,192.1c-3.1,0-5.4-0.4-5.5-0.4c0,0-0.1,0-0.1,0l-50.5-13.2c-0.2,0-0.3-0.1-0.5-0.2
			c-5.1-3-13.5-11.2-9.1-20.7c2.2-4.8,6.6-7.3,12.5-7.3c3.1,0,6,0.7,7.7,1.2c2.5-4.5,11.1-17.9,25.2-17.9c2.2,0,4.5,0.3,6.8,1
			c17.5,5.2,18.7,20.3,18.6,25.2c3.1,1.1,10.5,4.3,13.7,10.3c1.7,3.2,2,6.7,0.9,10.4C188.6,187.9,181.6,192.1,171.2,192.1z"/>
		<path class="st1" d="M150.9,135.3c2,0,4.1,0.3,6.3,1c19.7,5.9,17.2,24.7,17.2,24.7s18.9,5.4,14.7,18.9c-2.8,8.9-12,10.4-17.9,10.4
			c-3,0-5.2-0.4-5.2-0.4l-50.5-13.2c0,0-13.2-7.9-8.4-18.4c2.3-5,6.8-6.3,10.8-6.3c4.5,0,8.6,1.6,8.6,1.6S135.2,135.3,150.9,135.3
			 M150.9,131.6c-13.9,0-22.7,11.9-26.1,17.6c-1.8-0.5-4.2-0.9-6.8-0.9c-6.6,0-11.7,3-14.2,8.4c-5,10.7,4.2,19.8,9.8,23.1
			c0.3,0.2,0.6,0.3,1,0.4l50.5,13.2c0.1,0,0.2,0,0.3,0.1c0.1,0,2.5,0.4,5.8,0.4c11.2,0,18.9-4.6,21.5-13c1.3-4.2,1-8.2-1-11.8
			c-3.1-5.8-9.7-9.1-13.4-10.7c-0.1-8.2-4.1-21-20-25.7C155.8,132,153.4,131.6,150.9,131.6L150.9,131.6z"/>
	</g>
</g>
</svg>
