<?xml version="1.0" encoding="utf-8"?>
<!-- Generator: Adobe Illustrator 23.0.5, SVG Export Plug-In . SVG Version: 6.00 Build 0)  -->
<svg version="1.1" id="Слой_1" xmlns="http://www.w3.org/2000/svg" xmlns:xlink="http://www.w3.org/1999/xlink" x="0px" y="0px"
	 viewBox="0 0 300 300" style="enable-background:new 0 0 300 300;" xml:space="preserve">
<style type="text/css">
	.st0{fill:#C0AB9B;}
	.st1{fill:#562600;}
	.st2{fill:#7E665F;}
	.st3{fill:none;stroke:#562600;stroke-width:4;stroke-linecap:round;stroke-linejoin:round;stroke-miterlimit:10;}
	.st4{fill:#FFD39F;}
	.st5{fill:#DBC9C1;}
	.st6{fill:#FCBA8B;}
	.st7{fill:#C0AB9B;stroke:#562600;stroke-width:5;stroke-linecap:round;stroke-linejoin:round;stroke-miterlimit:10;}
	.st8{fill:#FFFFFF;}
	.st9{fill:#DB7E56;}
</style>
<g>
	<g>
		<path class="st0" d="M48.48,226.91c-1.39,0-3.19-0.21-5.34-0.61c-3.67-0.68-8.15-1.93-12.59-3.51
			c-5.35-1.89-10.23-4.14-13.74-6.31c-0.34-0.2-0.69-0.43-1.02-0.65c-4.99-3.33-7.62-7.67-7.2-11.91c0.3-3.05,2.23-5.59,5.15-6.8
			c0.65-0.27,1.39-0.4,2.2-0.4c2.18,0,4.93,0.92,8.92,2.99c1.98,1.03,4.06,2.22,6.07,3.38c1.12,0.64,2.22,1.28,3.29,1.87
			c2.5,1.38,5.32,2.85,7.27,3.22c1.03,0.2,2.54,0.3,4.49,0.31h0.21c2.16,0,4.9-0.13,8.13-0.38c7.25-0.56,14.48-1.57,14.55-1.58
			c0.07-0.01,0.14-0.01,0.21-0.01c0.57,0,1.1,0.33,1.35,0.85l7.54,15.74c0.22,0.45,0.19,0.98-0.06,1.41
			c-0.25,0.43-0.7,0.71-1.2,0.74c0,0-11.46,0.7-20.03,1.21c0,0-6.64,0.38-7.52,0.42C48.95,226.91,48.72,226.91,48.48,226.91z"/>
		<path class="st1" d="M15.94,198.22c2.18,0,5.09,1.2,8.23,2.82c3.04,1.58,6.31,3.55,9.32,5.23c2.96,1.64,5.67,3,7.73,3.38
			c1.21,0.23,2.86,0.33,4.76,0.34c0.07,0,0.14,0,0.21,0c2.49,0,5.38-0.16,8.25-0.39c7.38-0.57,14.64-1.59,14.64-1.59l7.54,15.74
			c0,0-11.45,0.7-20.03,1.21c-3.12,0.17-5.86,0.34-7.51,0.42c-0.19,0.01-0.39,0.02-0.6,0.02c-1.34,0-3.08-0.21-5.07-0.58
			c-3.57-0.66-7.98-1.89-12.37-3.45c-4.89-1.73-9.77-3.89-13.45-6.18c-0.34-0.2-0.66-0.41-0.98-0.63
			c-8.85-5.91-7.87-13.78-2.3-16.07C14.79,198.31,15.34,198.22,15.94,198.22 M15.94,195.22c-1.01,0-1.94,0.17-2.77,0.51
			c-3.45,1.42-5.72,4.42-6.08,8.04c-0.48,4.8,2.39,9.65,7.86,13.3c0.36,0.24,0.73,0.48,1.1,0.7c4.57,2.83,10.13,5.06,13.99,6.43
			c4.52,1.6,9.07,2.87,12.82,3.57c2.23,0.42,4.13,0.63,5.61,0.63c0.27,0,0.52-0.01,0.76-0.02c0.9-0.05,2.14-0.12,3.58-0.2
			c1.19-0.07,2.52-0.14,3.93-0.22c8.59-0.51,20.05-1.21,20.05-1.21c1-0.06,1.9-0.61,2.4-1.47s0.55-1.92,0.12-2.82l-7.54-15.74
			c-0.5-1.05-1.56-1.7-2.7-1.7c-0.14,0-0.28,0.01-0.42,0.03c-0.07,0.01-7.26,1.02-14.46,1.57c-3.2,0.25-5.9,0.38-8.02,0.38l-0.2,0
			c-1.85-0.01-3.27-0.11-4.21-0.28c-1.76-0.33-4.58-1.81-6.83-3.06c-1.06-0.59-2.15-1.22-3.26-1.86c-2.02-1.16-4.11-2.37-6.13-3.41
			C21.33,196.2,18.37,195.22,15.94,195.22L15.94,195.22z"/>
	</g>
	<path class="st2" d="M24.17,201.04c-0.25,0.49-0.52,1.02-0.79,1.61c-1.93,4.18-3.85,8.37-5.78,12.55c-0.34-0.2-0.66-0.41-0.98-0.63
		c-8.85-5.91-7.87-13.78-2.3-16.07C16.54,197.59,20.17,198.97,24.17,201.04z"/>
	<path class="st2" d="M43.42,224.83c0.85-4.95,1.71-9.89,2.55-14.84c-1.9-0.01-3.55-0.11-4.76-0.34c-2.05-0.39-4.77-1.74-7.73-3.38
		c0.04,1.06,0.07,1.96,0,2.49c-0.53,4.26-1.52,8.43-2.44,12.62"/>
	<path class="st2" d="M76.62,223.76c0,0-11.45,0.7-20.03,1.21c-1.21-5.04-1.96-10.2-2.16-15.37c7.38-0.57,14.64-1.59,14.64-1.59
		L76.62,223.76z"/>
	<g>
		<path class="st0" d="M173.04,275.79c-4.18,0-8.59-0.15-13.46-0.47l-2.78-0.18c-14.02-0.9-28.48-1.84-41.83-5.39
			c-22.17-5.91-40.34-25.37-47.43-50.79c-5.06-18.18-5.58-36.48-1.49-52.93c3.34-13.43,8.34-26.63,14.85-39.24
			c4.49-8.69,9.83-17.38,15.89-25.83c2-2.78,4.12-5.6,6.3-8.37c4.45-5.66,9.36-11.39,14.59-17.01c2.04-2.2,4.24-4.48,6.55-6.77
			c9.38-9.34,19.62-18.18,30.42-26.26c1.61-1.2,3.21-2.48,4.92-3.83c7.54-5.99,16.09-12.78,26.18-13.75
			c0.64-0.06,1.28-0.09,1.88-0.09c5.45,0,9.61,2.52,12.37,7.49c0.61,1.1,1.09,2.87,1.7,5.12c0.61,2.25,2.04,7.53,3.19,8.08
			c2.64,0.2,5.16,1.32,7.59,2.4c2.53,1.13,5.15,2.3,8.01,2.41c0.6,0.03,1.18,0.04,1.74,0.04c8.69,0,14.91-2.81,22.12-6.06l0.86-0.39
			c1.94-1.27,3.88-1.91,5.78-1.91c7.78,0,13.97,10.59,18.39,31.47c3.23,15.27,4.75,32.75,4.76,39.77v0.11
			c0.03,25.63,0.06,52.14-5.42,77.75c-5.56,26.03-14.63,44.82-27.75,57.45c-11.46,11.04-21.91,19.2-35.67,23.15
			C195.81,274.46,185.26,275.79,173.04,275.79z"/>
		<path class="st1" d="M187.63,26.86c4.74,0,8.2,2.1,10.62,6.46c1.52,2.74,2.92,13.92,6.39,14.2c2.39,0.19,4.64,1.19,7.02,2.25
			c2.72,1.21,5.52,2.46,8.75,2.58c0.62,0.03,1.22,0.04,1.82,0.04c9.09,0,15.52-2.89,22.95-6.24c0,0,1-0.45,1-0.45
			c1.7-1.14,3.3-1.67,4.81-1.67c15.64,0,21.14,56.61,21.15,69.24c0.03,25.56,0.07,52-5.38,77.43
			c-5.47,25.63-14.36,44.09-27.18,56.43c-11.25,10.84-21.48,18.83-34.83,22.67c-9.31,2.67-19.68,3.97-31.71,3.97
			c-4.19,0-8.54-0.15-13.33-0.46l-2.77-0.18c-13.9-0.9-28.27-1.82-41.44-5.33c-21.49-5.73-39.12-24.66-46.02-49.39
			c-4.97-17.84-5.48-35.8-1.47-51.91c3.31-13.32,8.19-26.22,14.69-38.8c4.47-8.66,9.71-17.18,15.74-25.59
			c1.99-2.77,4.07-5.54,6.24-8.29c4.45-5.66,9.28-11.29,14.48-16.89c2.11-2.27,4.28-4.51,6.49-6.71c9.44-9.4,19.54-18.1,30.21-26.08
			c8.9-6.66,18.46-16.08,30.09-17.19C186.52,26.89,187.09,26.86,187.63,26.86 M187.63,22.86c-0.67,0-1.37,0.03-2.08,0.1
			c-10.68,1.03-19.47,8.01-27.23,14.17c-1.69,1.34-3.29,2.61-4.87,3.8c-10.88,8.14-21.18,17.04-30.63,26.45
			c-2.32,2.31-4.55,4.61-6.6,6.83c-5.27,5.67-10.21,11.43-14.69,17.14c-2.19,2.79-4.33,5.62-6.35,8.43
			c-6.12,8.53-11.52,17.31-16.05,26.09c-6.59,12.75-11.64,26.09-15.02,39.67c-4.17,16.79-3.65,35.44,1.5,53.95
			c7.28,26.09,25.99,46.09,48.84,52.18c13.54,3.61,28.1,4.54,42.19,5.45l2.8,0.18c4.92,0.32,9.37,0.47,13.6,0.47
			c12.4,0,23.14-1.35,32.82-4.12c14.16-4.07,24.83-12.39,36.51-23.63c13.41-12.91,22.67-32.04,28.31-58.48
			c5.52-25.81,5.49-52.42,5.46-78.15l0-0.12c-0.01-7.09-1.54-24.77-4.8-40.18c-4.71-22.24-11.37-33.05-20.35-33.05
			c-2.25,0-4.52,0.72-6.74,2.15c-0.29,0.13-0.71,0.32-0.71,0.32c-7.29,3.29-13.05,5.89-21.3,5.89c-0.61,0-1.14-0.01-1.63-0.03
			c-2.51-0.1-4.84-1.14-7.3-2.24c-2.33-1.04-4.72-2.1-7.41-2.49c-0.8-1.35-1.76-4.9-2.25-6.7c-0.64-2.38-1.15-4.25-1.88-5.57
			C198.61,25.73,193.86,22.86,187.63,22.86L187.63,22.86z"/>
	</g>
	<path class="st2" d="M125.82,93.89c-6.65,8.01-15.26,4.27-21.15-0.07c4.45-5.66,9.28-11.29,14.48-16.89
		c2.11-2.27,4.28-4.51,6.49-6.71C129.27,76.11,132.77,85.51,125.82,93.89z"/>
	<path class="st2" d="M101.11,125.96c-5.67,6.85-12.79,5.11-18.42,1.74c4.47-8.66,9.71-17.18,15.74-25.59
		C103.11,108,108.13,117.5,101.11,125.96z"/>
	<path class="st3" d="M148.98,38.15c8.57,6.62,14.35,11.46,19.75,20.97"/>
	<path class="st3" d="M135.66,48.96c9.88,3.71,17.76,10.53,24.27,18.69"/>
	<g>
		<path class="st4" d="M228.59,70.99c-3.18,0-6.76-0.4-10.38-1.16c-1.47-0.29-3.02-0.68-4.58-1.14c-3.68-1.08-8.67-2.98-11.53-5.85
			c-4.56-4.6-2.12-10.79-0.2-13.42c0.34-0.46,0.85-0.75,1.41-0.81l9.2-1.44l4.01-0.64l6.56-1.02c0.1-0.02,0.21-0.02,0.31-0.02
			c0.27,0,0.54,0.05,0.79,0.16l3.38,1.44c0.06,0.02,0.11,0.05,0.17,0.08l3.54,1.51c0.06,0.02,0.12,0.05,0.17,0.08l1.91,0.81
			c0.29,0.12,0.54,0.31,0.75,0.55c0.07,0.08,1.68,2,3.6,4.6c2.63,3.57,4.46,6.55,5.46,8.85c0.71,1.65,0.7,3.09-0.04,4.28
			c-1.29,2.09-4.25,2.64-9.27,2.93c-1.17,0.07-2.47,0.13-3.87,0.18l-0.24,0.01c-0.03,0-0.06,0-0.1,0
			C229.3,70.98,228.95,70.99,228.59,70.99z"/>
		<path class="st1" d="M223.4,47.49l3.38,1.45v0.01l3.71,1.58v0.01l2.08,0.89c0,0,1.62,1.92,3.52,4.5c1.9,2.58,4.09,5.83,5.23,8.46
			c1.42,3.29-1.41,4.07-7.58,4.42c-1.16,0.07-2.44,0.13-3.82,0.17c-0.06,0-0.11,0-0.17,0c-0.03,0-0.06,0-0.08,0
			c-0.35,0.01-0.7,0.02-1.06,0.02c-3.08,0-6.55-0.4-9.97-1.11c-1.5-0.3-2.99-0.67-4.42-1.1c-4.55-1.34-8.54-3.2-10.68-5.35
			c-4.56-4.6,0-10.83,0-10.83h0.02l9.29-1.45l4.02-0.64L223.4,47.49 M223.4,43.49c-0.21,0-0.41,0.02-0.62,0.05l-6.55,1.02
			l-4.03,0.64l-9.24,1.45c-1.06,0.15-2.03,0.72-2.67,1.6c-2.27,3.11-5.12,10.45,0.39,16.01c3.16,3.18,8.49,5.22,12.39,6.37
			c1.62,0.48,3.23,0.88,4.77,1.18c3.7,0.78,7.43,1.19,10.75,1.19c0.35,0,0.69,0,1.03-0.01c0.04,0,0.08,0,0.12,0
			c0.07,0,0.15,0,0.22,0c0.03,0,0.05,0,0.08,0c1.43-0.05,2.75-0.11,3.92-0.18c4.8-0.28,8.92-0.76,10.85-3.87
			c0.75-1.22,1.4-3.27,0.17-6.12c-1.06-2.45-2.97-5.55-5.68-9.25c-1.95-2.66-3.61-4.63-3.68-4.71c-0.4-0.48-0.91-0.85-1.49-1.1
			l-1.84-0.78c-0.08-0.04-0.16-0.08-0.24-0.11l-3.47-1.48c-0.08-0.04-0.16-0.08-0.24-0.11l-3.38-1.45
			C224.47,43.59,223.93,43.49,223.4,43.49L223.4,43.49z"/>
	</g>
	<g>
		<path class="st4" d="M201.74,129.8c-4.4,0-8.61-1.1-12.17-3.18c-9.71-5.66-10.89-17.63-7.74-26.97
			c0.95-2.83,4.58-10.17,9.89-10.17c1.02,0,2.01,0.28,2.95,0.83c1.88,1.11,2.5,2.71,2.96,3.88c0.47,1.22,0.6,1.55,1.74,1.75
			c0.24,0.04,0.49,0.06,0.77,0.06c0.56,0,1.14-0.08,1.75-0.17c0.7-0.1,1.42-0.21,2.21-0.21c1.2,0,2.29,0.26,3.31,0.78
			c1.31,0.67,2.17,1.54,2.87,2.24c0.96,0.97,1.35,1.31,2.32,1.31c0.09,0,0.18,0,0.28-0.01c0.79-0.05,1.58-0.4,2.43-0.76
			c1.04-0.45,2.12-0.92,3.36-0.92c1.62,0,3.04,0.81,4.23,2.42c4.66,6.3,0.48,17.54-4.45,22.52
			C214.29,127.4,208.21,129.8,201.74,129.8z"/>
		<path class="st1" d="M191.71,91.49c0.63,0,1.28,0.17,1.94,0.56c2.93,1.72,1.36,5.18,5.37,5.88c0.38,0.07,0.75,0.09,1.11,0.09
			c1.38,0,2.66-0.38,3.97-0.38c0.78,0,1.56,0.13,2.39,0.56c2.61,1.34,3.05,3.77,6.1,3.77c0.13,0,0.27,0,0.41-0.01
			c2.21-0.14,3.96-1.67,5.65-1.67c0.87,0,1.73,0.41,2.62,1.61c4.01,5.42-0.14,15.76-4.26,19.92c-3.95,3.99-9.62,5.99-15.28,5.99
			c-3.93,0-7.84-0.97-11.16-2.9c-8.7-5.07-9.78-15.92-6.85-24.6C184.66,97.51,187.94,91.49,191.71,91.49 M191.71,87.49
			c-7.81,0-11.75,11.42-11.79,11.53c-3.4,10.11-2.05,23.1,8.63,29.33c3.87,2.26,8.43,3.45,13.18,3.45c7,0,13.61-2.62,18.12-7.18
			c4.77-4.82,10.39-17.33,4.63-25.11c-1.98-2.67-4.27-3.23-5.84-3.23c-1.65,0-3.04,0.6-4.15,1.08c-0.68,0.29-1.32,0.57-1.76,0.6
			c-0.05,0-0.1,0.01-0.15,0.01c-0.11,0-0.16-0.01-0.16-0.01c-0.1-0.06-0.47-0.43-0.74-0.71c-0.75-0.76-1.78-1.8-3.37-2.61
			c-1.31-0.67-2.69-1-4.22-1c-0.93,0-1.77,0.12-2.5,0.23c-0.56,0.08-1.05,0.15-1.46,0.15c-0.16,0-0.3-0.01-0.43-0.03
			c-0.01,0-0.01,0-0.02,0c-0.06-0.15-0.14-0.34-0.2-0.5c-0.5-1.28-1.33-3.42-3.81-4.88C194.43,87.86,193.1,87.49,191.71,87.49
			L191.71,87.49z"/>
	</g>
	<circle class="st1" cx="190.51" cy="77.9" r="5.33"/>
	<g>
		<path class="st1" d="M192.2,109.04c-1.31,0-2.52-0.7-3.18-1.83c-0.49-0.85-0.62-1.83-0.37-2.78c0.25-0.95,0.86-1.74,1.71-2.23
			c0.56-0.32,1.19-0.49,1.83-0.49c1.31,0,2.52,0.7,3.18,1.83c1.01,1.75,0.41,4-1.34,5.01C193.47,108.87,192.84,109.04,192.2,109.04z
			"/>
		<path class="st1" d="M192.19,102.71c0.92,0,1.82,0.48,2.31,1.33c0.74,1.27,0.3,2.9-0.98,3.64c-0.42,0.24-0.88,0.36-1.33,0.36
			c-0.92,0-1.82-0.48-2.31-1.33c-0.74-1.27-0.3-2.9,0.98-3.64C191.28,102.83,191.74,102.71,192.19,102.71 M192.19,100.71
			C192.19,100.71,192.19,100.71,192.19,100.71c-0.82,0-1.62,0.22-2.33,0.63c-2.23,1.29-2.99,4.14-1.71,6.37
			c0.83,1.44,2.38,2.33,4.04,2.33c0.82,0,1.62-0.22,2.33-0.63c2.23-1.29,2.99-4.14,1.71-6.37
			C195.4,101.61,193.85,100.71,192.19,100.71L192.19,100.71z"/>
	</g>
	<g>
		<path class="st1" d="M200.87,118.74c-0.29,0-0.59-0.04-0.88-0.11c-1.96-0.48-3.17-2.47-2.68-4.43c0.41-1.64,1.87-2.79,3.56-2.79
			c0.29,0,0.59,0.04,0.88,0.11c1.96,0.48,3.17,2.47,2.68,4.43C204.03,117.59,202.56,118.74,200.87,118.74z"/>
		<path class="st1" d="M200.87,112.41c0.21,0,0.43,0.03,0.64,0.08c1.43,0.35,2.3,1.8,1.95,3.22c-0.3,1.21-1.39,2.03-2.59,2.03
			c-0.21,0-0.43-0.03-0.64-0.08c-1.43-0.35-2.3-1.8-1.95-3.22C198.58,113.22,199.67,112.41,200.87,112.41 M200.87,110.41
			C200.87,110.41,200.87,110.41,200.87,110.41c-2.15,0-4.01,1.46-4.53,3.55c-0.61,2.5,0.92,5.03,3.41,5.64
			c0.37,0.09,0.74,0.14,1.12,0.14c2.15,0,4.01-1.46,4.53-3.55c0.3-1.21,0.11-2.46-0.54-3.53c-0.64-1.07-1.67-1.82-2.88-2.12
			C201.62,110.46,201.25,110.41,200.87,110.41L200.87,110.41z"/>
	</g>
	<g>
		<path class="st1" d="M211.7,112.35c-0.29,0-0.59-0.04-0.88-0.11c-0.95-0.23-1.75-0.82-2.26-1.66c-0.51-0.84-0.66-1.82-0.42-2.77
			c0.4-1.64,1.87-2.79,3.56-2.79c0.29,0,0.59,0.04,0.88,0.11c1.96,0.48,3.17,2.47,2.68,4.43
			C214.85,111.21,213.39,112.35,211.7,112.35z"/>
		<path class="st1" d="M211.7,106.02c0.21,0,0.43,0.03,0.64,0.08c1.43,0.35,2.3,1.8,1.95,3.22c-0.3,1.21-1.39,2.03-2.59,2.03
			c-0.21,0-0.43-0.03-0.64-0.08c-1.43-0.35-2.3-1.8-1.95-3.22C209.41,106.84,210.5,106.02,211.7,106.02 M211.7,104.02
			C211.7,104.02,211.7,104.02,211.7,104.02c-2.15,0-4.01,1.46-4.53,3.55c-0.3,1.21-0.11,2.46,0.54,3.53
			c0.64,1.07,1.67,1.82,2.88,2.12c0.37,0.09,0.74,0.14,1.12,0.14c2.15,0,4.01-1.46,4.53-3.55c0.61-2.5-0.92-5.03-3.41-5.64
			C212.45,104.07,212.07,104.02,211.7,104.02L211.7,104.02z"/>
	</g>
	<g>
		<path class="st5" d="M247,115.55c-12.4,0-22.49-10.09-22.49-22.49S234.6,70.57,247,70.57s22.49,10.09,22.49,22.49
			S259.4,115.55,247,115.55z"/>
		<path class="st1" d="M247,72.57c11.32,0,20.49,9.17,20.49,20.49s-9.17,20.49-20.49,20.49s-20.49-9.17-20.49-20.49
			S235.69,72.57,247,72.57 M247,68.57c-13.5,0-24.49,10.99-24.49,24.49c0,13.5,10.99,24.49,24.49,24.49s24.49-10.99,24.49-24.49
			C271.49,79.56,260.51,68.57,247,68.57L247,68.57z"/>
	</g>
	<g>
		<path class="st6" d="M253.09,153.8c-2.85,0-5.19-2.53-5.45-2.81c-0.3-0.33-0.48-0.76-0.51-1.2l-2.12-31.99
			c-0.04-0.55,0.16-1.09,0.54-1.5c0.38-0.4,0.91-0.63,1.46-0.63h6.5c1.04,0,1.91,0.8,1.99,1.84l2.51,31.99
			c0.01,0.17,0,0.35-0.03,0.52c-0.22,1.19-1.34,3.31-4.18,3.73C253.56,153.79,253.32,153.8,253.09,153.8L253.09,153.8z"/>
		<path class="st1" d="M253.5,117.67l2.51,31.99c0,0-0.33,1.79-2.51,2.12c-0.14,0.02-0.27,0.03-0.41,0.03
			c-2.04,0-3.96-2.15-3.96-2.15L247,117.67H253.5 M253.5,113.67H247c-1.11,0-2.16,0.46-2.92,1.27c-0.76,0.81-1.14,1.89-1.07,3
			l2.12,31.99c0.06,0.89,0.41,1.74,1.01,2.4c0.52,0.58,3.3,3.48,6.94,3.48c0.34,0,0.68-0.03,1.01-0.07
			c3.46-0.52,5.44-3.06,5.86-5.35c0.06-0.34,0.08-0.69,0.05-1.03l-2.51-31.99C257.32,115.27,255.59,113.67,253.5,113.67
			L253.5,113.67z"/>
	</g>
	<line class="st3" x1="222.56" y1="29.28" x2="216.99" y2="15.18"/>
	<line class="st3" x1="231.42" y1="18.13" x2="223.65" y2="29.45"/>
	<path class="st3" d="M289.3,79.79c-6.7-2.76-13.54,1.95-19.21,5.05"/>
	<path class="st3" d="M289.96,91.43c-6.35-1.86-13.07,1.54-18.76,4.09"/>
	<path class="st7" d="M107.39,262.82c1.87,1.98,0.51,5.2,0.77,7.91c0.14,1.49,0.84,2.93,1.92,3.96c2.34,2.24,6.37,2.25,8.91,0.24
		c2.54-2.01,3.49-5.69,2.52-8.78s-3.68-5.49-6.8-6.39"/>
	<path class="st7" d="M193.75,270.41c-1.39,2.45-1.92,5.43-1.19,8.14c0.73,2.72,2.81,5.1,5.49,5.95c2.68,0.85,5.89-0.01,7.6-2.25
		c0.67-0.88,1.1-1.92,1.36-2.99c1.04-4.19-0.56-8.91-3.92-11.61"/>
	<g>
		<circle class="st8" cx="247.32" cy="93.07" r="15.28"/>
		<path class="st1" d="M247.32,79.79c7.34,0,13.28,5.95,13.28,13.28s-5.95,13.28-13.28,13.28s-13.28-5.95-13.28-13.28
			S239.99,79.79,247.32,79.79 M247.32,75.79c-9.53,0-17.28,7.75-17.28,17.28s7.75,17.28,17.28,17.28s17.28-7.75,17.28-17.28
			S256.85,75.79,247.32,75.79L247.32,75.79z"/>
	</g>
	<circle class="st1" cx="247.4" cy="92.77" r="6.09"/>
	<path class="st7" d="M170.09,119.8c0.98-0.66,15.09-11.81,17.71-2.95s-10.82,11.48-12.13,10.82"/>
	<g>
		<path class="st0" d="M254.64,148.41c-3.55,0-6.44-2.89-6.44-6.44s2.89-6.44,6.44-6.44c3.55,0,6.44,2.89,6.44,6.44
			S258.19,148.41,254.64,148.41z"/>
		<path class="st1" d="M254.64,137.53c2.45,0,4.44,1.99,4.44,4.44c0,2.45-1.99,4.44-4.44,4.44s-4.44-1.99-4.44-4.44
			C250.2,139.52,252.19,137.53,254.64,137.53 M254.64,133.53c-4.65,0-8.44,3.79-8.44,8.44s3.79,8.44,8.44,8.44
			c4.65,0,8.44-3.79,8.44-8.44S259.29,133.53,254.64,133.53L254.64,133.53z"/>
	</g>
	<g>
		<path class="st4" d="M229.32,58.94c-1.32-0.01-2.68-0.07-4.06-0.17c-0.82-0.05-1.75-0.14-2.93-0.28
			c-2.18-0.26-4.66-0.79-7.37-1.58c-1.29-0.36-2.57-0.78-3.76-1.18c-4.71-1.6-8.33-3.24-8.49-3.31c-0.81-0.37-1.27-1.22-1.15-2.1
			c0.03-0.19,0.7-4.82,2.82-9.88c0.55-1.32,1.17-2.57,1.83-3.71c1.91-3.33,4.21-5.83,6.85-7.42c1.36-0.84,2.83-1.43,4.37-1.76
			c1.01-0.24,2.12-0.37,3.27-0.37c0.68,0,1.39,0.04,2.1,0.13c1.56,0.19,3.01,0.51,4.43,0.97c1.7,0.57,3.24,1.33,4.59,2.26
			c4.46,3.05,6.25,7.5,6.96,10.69c0.44,1.91,0.52,3.49,0.53,4.27c0.02,0.61,0,0.98,0,0.98c0,0.04-0.01,0.09-0.01,0.12l-1.31,10.17
			c-0.11,0.86-0.77,1.55-1.62,1.71c-0.1,0.02-2.56,0.47-6.67,0.47L229.32,58.94z"/>
		<path class="st1" d="M220.7,29.17c0.6,0,1.22,0.04,1.86,0.12c1.5,0.18,2.84,0.49,4.06,0.89c1.58,0.53,2.93,1.21,4.07,2
			c3.84,2.63,5.47,6.46,6.15,9.48c0.38,1.63,0.47,3.02,0.48,3.85c0.02,0.53,0,0.83,0,0.83l-1.23,9.58l-0.08,0.59
			c0,0-2.33,0.43-6.3,0.43c-0.12,0-0.25,0-0.38,0c-1.18-0.01-2.5-0.06-3.93-0.16c-0.91-0.06-1.85-0.15-2.84-0.27
			c-2.24-0.27-4.68-0.83-7.04-1.51c-1.27-0.36-2.5-0.76-3.68-1.16c-4.66-1.58-8.29-3.24-8.29-3.24s0.64-4.51,2.69-9.38
			c0.48-1.16,1.05-2.34,1.71-3.49c1.52-2.66,3.53-5.12,6.16-6.71c1.13-0.69,2.38-1.22,3.76-1.52
			C218.75,29.28,219.7,29.17,220.7,29.17 M220.7,25.17C220.7,25.17,220.7,25.17,220.7,25.17c-1.28,0-2.54,0.14-3.73,0.42
			c-1.74,0.38-3.42,1.06-4.97,2.02c-2.91,1.76-5.45,4.5-7.53,8.13c-0.69,1.2-1.35,2.53-1.94,3.94c-2.22,5.28-2.93,10.16-2.96,10.36
			c-0.25,1.75,0.69,3.46,2.3,4.2c0.16,0.07,3.87,1.76,8.67,3.39c1.22,0.41,2.52,0.84,3.88,1.22c2.78,0.81,5.36,1.36,7.64,1.63
			c1.23,0.14,2.2,0.23,3.06,0.29c1.38,0.1,2.79,0.16,4.15,0.17l0.41,0c4.22,0,6.76-0.45,7.03-0.5c1.7-0.32,3.01-1.69,3.23-3.41
			l0.08-0.59l1.23-9.59c0.01-0.08,0.02-0.17,0.02-0.25c0.01-0.11,0.03-0.53,0.01-1.18c-0.01-0.87-0.11-2.6-0.58-4.66
			c-1.13-5.05-3.82-9.17-7.78-11.88c-1.49-1.03-3.2-1.87-5.06-2.49c-1.56-0.51-3.17-0.86-4.84-1.06
			C222.25,25.22,221.46,25.17,220.7,25.17L220.7,25.17z"/>
	</g>
	<path class="st1" d="M198.63,85.73c0.07-0.04,0.13-0.08,0.2-0.12c2.45-1.61,2.75-4.55,2.24-7.22c-0.34-1.74-0.98-5.96,2.34-4.49
		c2.1,0.92,2.45,3.76,2.43,5.76c-0.01,1.58-1.47,5.56,1.35,5.32c1.61-0.14,2.14-1.83,2.4-3.17c0.29-1.52,0.19-3.5,1.67-4.44
		c2.04-1.3,3.05,0.8,2.85,2.55c-0.22,1.86-1.27,5.15,0.07,6.75c0.93,1.11,2.23,0.89,2.83-0.35c1.41-2.87,1.32-6.91,5.3-7.51
		c4.49-0.68-1.56,6.99-1.92,8.23c-0.19,0.67-0.36,1.47-0.08,2.15c0.36,0.88,0.75,0.62,1.33,1.04c0.69,0.51,0.83,0.58,0.74,1.7
		c-0.14,1.99-1.84,3.57-3.7,2.01c-0.75-0.63-1.15-1.58-1.38-2.52c-2.35,0.92-5.33-0.43-6.19-2.8c-1.91,1.66-5.11,1.53-6.88-0.28
		c-0.17-0.18-0.34-0.38-0.57-0.48c-0.63-0.29-1.31,0.24-1.86,0.68c-1.29,1.03-5.71,1.95-5.16-1.16
		C196.82,86.39,197.86,86.15,198.63,85.73z"/>
	<g>
		<path class="st9" d="M215.91,59.03c-0.97-0.24-3.9-1-4.35-1.2c0.63,2.26,1.72,6.04,2.65,8.95c1.44,0.42,2.92,0.8,4.42,1.1
			C217.9,65.83,216.75,61.98,215.91,59.03z"/>
		<path class="st9" d="M236.84,41.66c-1.82,0.47-3.79,0.78-5.83,0.95c0.08-3.77-0.07-7.42-0.32-10.43c-1.15-0.79-2.5-1.47-4.07-2
			c0.4,3.4,0.64,7.94,0.54,12.57c-3.22-0.03-6.47-0.39-9.49-1.08c0.38-4.39,0.48-8.75,0.19-12.18c-1.38,0.3-2.63,0.83-3.76,1.52
			c0.14,2.8,0.06,6.16-0.21,9.57c-1.1-0.39-2.14-0.83-3.09-1.32c-0.19-0.11-0.43-0.22-0.7-0.35c-0.48-0.22-1.66-0.78-2.15-1.18
			c-0.66,1.15-1.23,2.33-1.71,3.49c0.72,0.48,1.52,0.86,2.22,1.18c0.22,0.11,0.42,0.2,0.59,0.28c1.37,0.7,2.87,1.31,4.47,1.83
			c-0.19,1.59-0.41,3.15-0.67,4.63c-0.29,1.68-0.62,3.26-0.98,4.65c1.26,0.46,2.43,0.85,3.67,1.19c0.47-1.83,0.98-4.27,1.33-6.48
			c0.15-0.98,0.29-1.97,0.41-2.99c3.11,0.68,6.43,1.05,9.72,1.09c-0.06,0.78-0.12,1.55-0.2,2.32v0.01c-0.26,2.78-0.74,5.6-1.38,7.83
			c1.29,0.06,2.58,0.18,3.93,0.18c0-0.01,0-0.01,0.01-0.02c0.52-1.97,0.9-4.14,1.16-6.41v-0.01c0.16-1.32,0.28-2.66,0.37-4.03
			c2.24-0.16,4.43-0.48,6.46-0.98C237.31,44.68,237.21,43.29,236.84,41.66z"/>
		<path class="st9" d="M231.85,64c-0.42-1.07-0.86-2.28-1.25-3.26c-0.99,0.08-4.29-0.01-4.09,0c0.5,1.27,1.14,3.13,1.76,4.67
			c0.48,1.23,0.96,2.48,1.4,3.56c0.09,0.01,0.16,0,0.25,0c1.39-0.05,2.67-0.11,3.82-0.17C233.2,67.45,232.53,65.72,231.85,64z"/>
	</g>
</g>
</svg>
