<?xml version="1.0" encoding="utf-8"?>
<!-- Generator: Adobe Illustrator 23.0.5, SVG Export Plug-In . SVG Version: 6.00 Build 0)  -->
<svg  version="1.1" id="Слой_1" xmlns="http://www.w3.org/2000/svg" xmlns:xlink="http://www.w3.org/1999/xlink" x="0px" y="0px"
	 viewBox="0 0 300 300" style="enable-background:new 0 0 300 300;" xml:space="preserve">
<style type="text/css">
	.st0{fill:#FFFFFF;}
	.st1{fill:#562600;}
	.st2{fill:#FBC2FF;}
	.st3{fill:#75FEB8;}
	.st4{fill:#FFACCA;}
	.st5{fill:#FFEB6C;}
	.st6{fill:#BBAAA0;}
	.st7{fill:none;stroke:#562600;stroke-width:2;stroke-linecap:round;stroke-linejoin:round;stroke-miterlimit:10;}
	.st8{fill:#FFACCA;stroke:#562600;stroke-width:2;stroke-linecap:round;stroke-linejoin:round;stroke-miterlimit:10;}
	.st9{fill:#67544A;}
</style>
<path class="st0" d="M54.1,184c0.9,0,1.8,0.2,2.7,0.6c0,0,30.8,13.2,30.8,13.2l78.7,2.6c0,0,61.4-5.5,61.4-5.5
	c3-0.3,7.4-0.9,11.6-0.9c3.8,0,7.5,0.5,9.9,2.2c0.9,0.7,5.6,9,4.6,9.2l0,0c0.1,0,6.4,0.9,7,1.1c2.7,0.8,5.4,2.2,6.5,5
	c0.5,1.2-1.1,10.4-2.4,10.4c-0.1,0-0.1,0-0.2-0.1c7.1,4.5,13,13,7.1,20.9c-0.5,0.7-8.7,7.7-9.8,7.7c-0.1,0-0.1,0-0.1-0.1
	c1.9,4.3,4.8,10.9,1.7,15.3c-2.3,3.3-7.3,4.4-11.4,4.4c-0.8,0-1.5,0-2.2-0.1c0.4,0-2,5.6-2.3,6c-1.6,2.3-4,4.2-6.8,4.2
	c-0.1,0-0.3,0-0.4,0c-1.5-0.1-8.3-3.5-7.6-5.7c-1.6,4.9-5.3,9.6-10.5,9.6c-0.7,0-1.4-0.1-2.2-0.3c-1.2-0.3-10.1-4.6-9.5-6.1
	c-1.6,4.1-5,7.7-9.2,7.7c-1,0-2.1-0.2-3.1-0.6c-1-0.4-7.8-5-7.2-6.4c-1.7,4.1-5.2,8-9.6,8c-0.9,0-1.8-0.1-2.7-0.5
	c-1-0.4-7.6-4.6-7-6c-2,4.5-6.2,8.4-11,8.4c-1.3,0-2.7-0.3-4.1-0.9c-1.3-0.6-8.5-6.1-7.8-7.8c-1.9,4-5.8,6.2-9.9,6.2
	c-1.7,0-3.4-0.4-4.9-1.1c-1-0.5-7.8-4.6-7.3-5.7c-1.6,4.1-5.4,6.8-9.5,6.8c-1.4,0-2.8-0.3-4.1-1c-1.4-0.7-8.5-6.3-7.6-8.1
	c-1.9,3.6-5.4,7.7-9.5,7.7c-1.1,0-2.3-0.3-3.5-1c-1-0.6-6.1-5.6-5.3-6.7c-1.9,2.7-4.9,6.2-8.5,6.2c-0.1,0-0.3,0-0.4,0
	c-1.6-0.1-9.5-5.9-8.1-7.5c-2.3,2.8-5.2,4.1-8,4.1c-4.3,0-8-3.4-7.8-9.6c0,0.2-5.7,0.6-6.5,0.6c0,0,0,0,0,0c-2.9,0-5.9-0.5-7.7-3
	c-0.6-0.9-2.2-9.7-1.2-9.7c0,0-2.3,0-3.5,0s-7.1-3.2-8-9.3c-1-6.1,5.8-11.9,5.8-11.9c-4.9-3.2-9.4-9.5-6.8-15.5
	c0.4-0.8,5.1-6.4,6.5-6.4c0.1,0,0.2,0,0.3,0.1c-5.6-7.6-2.5-15.2,5.6-15.2c1,0,2.2,0.1,3.4,0.4c-1.5-0.4,2.1-9.8,2.9-10.9
	C47.3,186.4,50.7,184,54.1,184"/>
<path class="st1" d="M276,233.5c-0.8-4.4-3.8-8.7-8.4-12.1c1.1-2.9,2.2-8.9,1.5-10.6c-1.1-2.9-3.7-4.9-7.8-6.2
	c-0.5-0.2-3.7-0.7-5.8-0.9c-0.3-0.9-0.9-2.2-1.9-4.1c-1-1.9-2.5-4.4-3.3-5c-2.4-1.8-6-2.6-11.1-2.6c-3.3,0-6.7,0.3-9.4,0.6
	c-0.9,0.1-1.7,0.2-2.4,0.2c0,0-0.2,0-61.2,5.5l-78.2-2.6l-30.5-13c-1.1-0.5-2.3-0.7-3.5-0.7c-4.4,0-8.3,3-10.4,5.9
	c-0.5,0.6-2.9,6-3.5,9.7c-0.4,0-0.8,0-1.2,0c-4.3,0-7.8,1.9-9.4,5.2c-1.6,3.2-1.3,7.2,0.9,11.1c-2.7,2-5.5,6-5.7,6.4
	c-2.6,6.1,0.8,12.5,5.6,16.5c-2.2,2.4-5.5,7-4.7,12c1.1,6.9,7.5,11,10,11h1.2c0.1,3.3,1.2,8,1.8,8.9c2.5,3.8,7.3,3.9,9.3,3.9
	c0,0,0.1,0,0.1,0c0.6,0,2.4-0.1,3.8-0.2c0.3,0,0.6,0,0.9-0.1c0.4,3.2,1.7,5.3,2.9,6.5c1.8,1.8,4.2,2.9,6.8,2.9
	c2.5,0,5.1-0.9,7.2-2.6c2.3,2.7,6.8,5.8,8.7,6c0.2,0,0.4,0,0.6,0c2.7,0,5.4-1.5,8.1-4.5c1.7,2.1,4.1,4.3,4.7,4.6
	c1.5,0.9,3,1.3,4.5,1.3c3.7,0,7-2.6,9.3-5.6c2.3,2.6,6,5.3,7,5.8c1.6,0.8,3.3,1.1,5,1.1c3.9,0,7.6-2,9.8-5.2c0.5,0.4,1,0.8,1.6,1.2
	c1.8,1.3,3.9,2.5,4.5,2.8c1.8,0.8,3.8,1.3,5.8,1.3c3.8,0,7.3-1.6,9.7-4.3c2.4,2.6,6.3,5.3,7.1,5.7c1.6,0.8,3.2,1.1,4.9,1.1
	c4.7,0,8.7-3,11.2-6.6c2.2,2,5.4,3.9,6.2,4.1c1.1,0.4,2.2,0.6,3.3,0.6c4.3,0,7.7-2.9,9.8-6.2c2.3,2.1,5.6,4.1,6.2,4.4
	c1.3,0.5,2.6,0.8,3.9,0.8c3.7,0,7.3-2.3,9.6-6.1c3,2.2,7.8,4.3,8.6,4.5c0.9,0.2,1.8,0.3,2.7,0.3c5,0,8.6-3.4,10.8-7.4
	c2.3,1.9,5.8,3.4,7.1,3.5c0.2,0,0.3,0,0.5,0c3.2,0,6.3-1.8,8.5-5.1c0.4-0.6,1.5-3.2,1.5-3.3c0.3-0.7,0.5-1.2,0.7-1.7
	c0.2,0,0.4,0,0.6,0c2.8,0,9.8-0.5,13.1-5.3c3.3-4.7,1.1-11.1-0.8-15.4c0.9-0.6,2.1-1.5,3.9-3c1.1-0.9,4.4-3.7,5-4.5
	C275.7,240.7,276.7,237.1,276,233.5z M271.7,242.7c-0.5,0.7-8.7,7.7-9.8,7.7c-0.1,0-0.1,0-0.1-0.1c1.9,4.3,4.8,11,1.7,15.3
	c-2.3,3.3-7.3,4.4-11.5,4.4c-0.8,0-1.5,0-2.2-0.1c0.4,0-2,5.6-2.3,6c-1.6,2.3-4,4.2-6.8,4.2c-0.1,0-0.3,0-0.4,0
	c-1.5-0.1-8.3-3.5-7.6-5.7c-1.6,4.9-5.3,9.6-10.5,9.6c-0.7,0-1.4-0.1-2.2-0.3c-1.2-0.3-10.1-4.6-9.5-6.1c-1.6,4.1-5,7.7-9.2,7.7
	c-1,0-2.1-0.2-3.2-0.6c-1-0.4-7.8-5-7.2-6.4c-1.7,4.1-5.2,8-9.6,8c-0.9,0-1.8-0.2-2.7-0.5c-1-0.3-7.6-4.6-7-6c-2,4.5-6.2,8.4-11,8.4
	c-1.3,0-2.7-0.3-4.1-0.9c-1.3-0.6-8.5-6.1-7.8-7.8c-1.9,4-5.8,6.2-9.9,6.2c-1.7,0-3.3-0.4-4.9-1.1c-1-0.5-7.8-4.6-7.3-5.7
	c-1.6,4.1-5.4,6.8-9.5,6.8c-1.4,0-2.8-0.3-4.1-1c-1.4-0.7-8.5-6.3-7.6-8.1c-1.9,3.6-5.4,7.7-9.5,7.7c-1.1,0-2.3-0.3-3.5-1
	c-1-0.6-6-5.7-5.3-6.7c-1.9,2.7-4.9,6.2-8.5,6.2c-0.1,0-0.3,0-0.4,0c-1.6-0.1-9.5-5.9-8.1-7.5c-2.3,2.8-5.2,4.1-8,4.1
	c-4.3,0-8-3.4-7.8-9.6c0,0.2-5.7,0.6-6.5,0.6c0,0,0,0,0,0c-2.9,0-5.9-0.5-7.7-3c-0.6-0.9-2.2-9.7-1.2-9.7c0,0-2.3,0-3.5,0
	c-1.3,0-7.1-3.2-8-9.3c-1-6.1,5.8-11.9,5.8-11.9c-4.9-3.2-9.4-9.5-6.8-15.5c0.3-0.8,5.1-6.4,6.5-6.4c0.1,0,0.2,0,0.3,0.1
	c-5.6-7.6-2.5-15.2,5.6-15.2c1,0,2.2,0.1,3.4,0.4c-1.6-0.4,2.1-9.8,2.9-10.9c2-2.6,5.4-5.1,8.8-5.1c0.9,0,1.8,0.2,2.7,0.5
	c0,0,30.8,13.2,30.8,13.2l78.7,2.6c0,0,61.4-5.5,61.4-5.5c3-0.3,7.4-0.9,11.6-0.9c3.8,0,7.5,0.5,9.9,2.2c0.9,0.7,5.5,9,4.6,9.2
	c0.1,0,6.4,0.9,7,1.1c2.7,0.8,5.4,2.2,6.5,5c0.5,1.2-1.1,10.4-2.4,10.4c-0.1,0-0.1,0-0.2-0.1C271.8,226.3,277.7,234.8,271.7,242.7z"
	/>
<g>
	<path class="st2" d="M252.5,100.4c-1.2,0-3.8-1.9-7.5-5.5c-1.7,1.4-5,3.8-7.1,3.8c-0.8,0-1.3-0.3-1.5-0.6
		c-1.7-1.7-0.8-7.7-0.4-10.2c-1.9-1.1-6.3-4-6.8-6.4c-0.1-0.6,0-1.3,0.3-1.8c1.6-2.3,8.8-2.8,11.8-3c2.2-3.7,5.2-8.1,7.1-8.1
		c0.2,0,0.4,0,0.6,0.1c1.7,0.7,2.8,6.6,3.4,11.4c4.2,1.2,9.1,3.2,8.8,5.7c-0.3,2.3-4.2,3.8-6.4,4.5c0.1,2.9,0,8.1-1.2,9.4
		C253.1,100.3,252.7,100.4,252.5,100.4z"/>
	<path class="st1" d="M248.4,69.8c0.1,0,0.1,0,0.2,0c0.1,0,1.6,0.7,2.8,10.6c0.1,0.4,0.3,0.7,0.7,0.8c6.2,1.8,8.2,3.7,8.1,4.7
		c-0.2,1.3-2.4,2.7-5.7,3.7c-0.4,0.1-0.7,0.5-0.7,0.9c0.1,5.6-0.4,8.2-1,8.7c-0.1,0.1-0.2,0.2-0.3,0.2c-0.1,0-1.6-0.2-6.8-5.2
		c-0.2-0.2-0.4-0.3-0.7-0.3c-0.2,0-0.4,0.1-0.6,0.2c-2.8,2.3-5.3,3.6-6.6,3.6c-0.4,0-0.6-0.1-0.8-0.3c-0.9-0.9-1-4.6-0.1-9.3
		c0.1-0.4-0.1-0.8-0.4-1c-3.6-2.2-6.1-4.4-6.4-5.8c-0.1-0.4,0-0.7,0.2-0.9c0.9-1.3,5.3-2.3,11.1-2.6c0.3,0,0.6-0.2,0.8-0.5
		C245.8,71.4,247.8,69.8,248.4,69.8 M248.4,67.8c-0.8,0-2.8,0-7.7,8.1c-4.7,0.2-10.4,1-12,3.4c-0.5,0.7-0.7,1.6-0.5,2.5
		c0.5,2.4,3.8,4.9,6.7,6.7c-0.9,5.5-0.6,8.9,0.8,10.4c0.4,0.4,1.1,0.9,2.3,0.9c2.1,0,4.9-1.8,7.1-3.5c4.8,4.6,6.6,5.1,7.5,5.1
		c0.7,0,1.3-0.3,1.8-0.8c0.4-0.4,1.6-1.7,1.5-9.4c2.9-0.9,6-2.6,6.4-5.1c0.4-2.5-2.5-4.7-8.8-6.7c-1.4-10.6-3.2-11.3-4-11.6
		C249.1,67.9,248.8,67.8,248.4,67.8L248.4,67.8z"/>
</g>
<g>
	<path class="st3" d="M147.3,38.2c-0.1,0-0.2,0-0.3,0c-1.8-0.4-3.8-4.1-4.8-6.4c-0.4,0-0.9,0-1.3,0c-2.1,0-4.8-0.2-5.9-1.3
		c-0.4-0.4-0.6-0.9-0.6-1.4c0.1-2.3,4.4-5.7,6.4-7.2c-0.2-4.9,0.2-7.8,1.2-8.4c0.1-0.1,0.3-0.2,0.5-0.2c0.1,0,0.2,0,0.2,0
		c1.3,0,3.6,2,7.1,5.9c2.3-0.7,4.2-1.1,5.6-1.1c1.4,0,2.3,0.4,2.7,1.1c0.8,1.7-0.9,4.3-2.1,5.8c1.6,2.4,3.5,5.4,3.3,6.7
		c-0.1,0.5-0.4,0.8-0.6,0.9c-0.4,0.3-1.1,0.4-2.1,0.4c-1.3,0-3-0.2-5.1-0.6c-0.6,1.8-1.6,4.6-3,5.5
		C148.1,38.1,147.7,38.2,147.3,38.2z"/>
	<path class="st1" d="M142.7,14.1c0.3,0,1.7,0.3,6.4,5.7c0.1,0.2,0.4,0.3,0.6,0.3c0.1,0,0.1,0,0.2,0c2.5-0.8,4.3-1.1,5.5-1.1
		c1.1,0,1.6,0.2,1.8,0.6c0.4,0.9-0.4,2.8-2.1,4.9c-0.2,0.3-0.2,0.6,0,0.9c2.5,3.6,3.3,5.5,3.2,6.1c0,0.1-0.1,0.2-0.1,0.3
		c-0.1,0-0.4,0.2-1.5,0.2c-1,0-2.6-0.1-5.2-0.6c-0.1,0-0.1,0-0.1,0c-0.1,0-0.3,0-0.4,0.1c-0.1,0.1-0.2,0.2-0.3,0.4
		c-0.8,2.7-1.8,4.6-2.7,5.2c-0.2,0.1-0.4,0.2-0.5,0.2c-0.1,0-0.1,0-0.1,0c-1-0.2-2.6-2.5-4.1-6c-0.1-0.3-0.4-0.4-0.7-0.4
		c0,0,0,0,0,0c-0.5,0-1,0-1.5,0c-2.6,0-4.5-0.4-5.2-1c-0.2-0.2-0.3-0.4-0.3-0.7c0-1.3,2.4-3.8,6.1-6.5c0.2-0.1,0.3-0.4,0.3-0.6
		c-0.3-5.5,0.4-7.4,0.8-7.7C142.5,14.2,142.6,14.2,142.7,14.1C142.6,14.2,142.7,14.1,142.7,14.1 M142.7,12.1c-0.1,0-0.3,0-0.5,0.1
		c-0.3,0.1-0.6,0.2-0.8,0.4c-0.6,0.4-2,1.3-1.7,8.8c-4.2,3.1-6.3,5.7-6.3,7.6c0,0.8,0.3,1.6,0.9,2.2c0.4,0.4,1.6,1.6,6.6,1.6
		c0.2,0,0.5,0,0.7,0c2.8,5.9,4.6,6.3,5.2,6.4c0.2,0,0.4,0,0.5,0c0.6,0,1.1-0.2,1.6-0.5c1.1-0.8,2.2-2.5,3.1-5.2
		c1.8,0.3,3.3,0.5,4.5,0.5c1.2,0,2.1-0.2,2.6-0.5c0.5-0.4,0.9-0.9,1-1.6c0.1-0.5,0.4-1.9-3-6.8c1.4-1.9,2.7-4.4,1.8-6.3
		c-0.4-0.8-1.3-1.7-3.6-1.7c-1.4,0-3.2,0.3-5.3,0.9C145.6,12.8,143.8,12.1,142.7,12.1L142.7,12.1z"/>
</g>
<g>
	<path class="st4" d="M78.4,61c-0.4,0-0.7-0.1-1-0.3c-1.3-0.9-1.6-4.1-1.6-6.7c-1.8-0.7-4.6-2-5.2-3.5c-0.2-0.5-0.2-1,0-1.5
		c0.8-1.7,5-2.9,7.5-3.5c1.5-3.9,2.9-6,4-6.2c0.1,0,0.2,0,0.2,0c0.1,0,0.2,0,0.3,0c0.4,0.1,1.6,0.3,3.8,7.1c4.3,0.5,6.5,1.6,6.5,3.1
		c0.1,1.7-2.2,3.1-3.7,3.9c0.7,3.4,0.7,5.5,0.2,6.4c-0.3,0.4-0.6,0.5-0.9,0.6c-0.1,0-0.2,0-0.2,0c-0.9,0-2.7-0.9-5.3-2.6
		c-1.3,1.4-2.9,3-4.3,3.2C78.7,61,78.5,61,78.4,61z"/>
	<path class="st1" d="M82.4,40.3C82.4,40.3,82.5,40.3,82.4,40.3c0.1,0,1.2,0.3,3.1,6.7c0.1,0.2,0.3,0.4,0.5,0.4
		c4.3,0.5,5.8,1.5,5.9,2.1c0,0.8-1.3,2-3.4,3.1c-0.3,0.1-0.4,0.4-0.3,0.7c0.7,3.7,0.7,5.5,0.4,5.9c-0.1,0.1-0.1,0.1-0.2,0.2
		c0,0,0,0-0.1,0c-0.3,0-1.4-0.2-5-2.7c-0.1-0.1-0.2-0.1-0.4-0.1c0,0-0.1,0-0.1,0c-0.1,0-0.3,0.1-0.4,0.2c-1.6,1.8-3.1,3-3.9,3.1
		c-0.1,0-0.1,0-0.2,0c-0.2,0-0.3,0-0.4-0.1c-0.7-0.5-1.2-2.9-1.2-6.1c0-0.3-0.2-0.5-0.4-0.6c-2.6-1-4.5-2.2-4.9-3.1
		c-0.1-0.2-0.1-0.5,0-0.7c0.5-1,3.2-2.1,7-3c0.2,0,0.4-0.2,0.4-0.4C80.8,41.7,81.9,40.4,82.4,40.3C82.4,40.3,82.4,40.3,82.4,40.3
		 M82.4,38.3c-0.1,0-0.3,0-0.4,0c-0.7,0.1-2.1,0.4-4.5,6.3c-4.3,1-6.9,2.3-7.7,3.9c-0.3,0.7-0.4,1.5-0.1,2.3
		c0.6,1.3,2.3,2.6,5.1,3.8c0.1,5.5,1.5,6.5,2,6.8c0.4,0.3,1,0.5,1.6,0.5c0.2,0,0.3,0,0.5,0c1.2-0.2,2.6-1.2,4.3-2.9
		c3.2,2.1,4.4,2.3,5.2,2.3c0.1,0,0.3,0,0.4,0c0.6-0.1,1.2-0.5,1.5-1c0.3-0.5,1-1.5,0.1-6.4c1.8-1,3.6-2.5,3.6-4.4
		c-0.1-2-2.2-3.3-6.7-4c-1.9-5.9-3.2-7-4.3-7.2C82.8,38.4,82.6,38.3,82.4,38.3L82.4,38.3z"/>
</g>
<g>
	<path class="st5" d="M170.5,87.9c-14.5,0-27.8-8.3-34.5-13.2c-0.6-0.5-0.9-1.2-0.6-1.9c0.2-0.6,0.7-1.2,1.7-1.3
		c10.3-0.5,29.5-2.7,41.7-12.3c12.8-10.1,11.8-35.8,10.7-46.4c-0.1-0.5,0.1-1,0.4-1.4c0.4-0.4,0.9-0.6,1.4-0.6c0.5,0,1,0.2,1.4,0.7
		c9.3,11,28.3,39.5,3.7,65C189.1,84,180.4,87.9,170.5,87.9z"/>
	<path class="st1" d="M191.3,11.7c0.3,0,0.5,0.1,0.6,0.3c9.1,10.8,27.8,38.7,3.7,63.7c-7.1,7.4-15.6,11.2-25.2,11.2l0,0l0,0l0,0
		c-14.2,0-27.3-8.2-33.9-13c-0.4-0.3-0.3-0.7-0.3-0.8c0-0.1,0.2-0.6,0.8-0.6c10.5-0.5,29.9-2.7,42.3-12.5
		c13.2-10.4,12.1-36.6,11.1-47.3c0-0.2,0-0.4,0.2-0.6C190.8,11.8,191.1,11.7,191.3,11.7 M191.3,9.7c-0.8,0-1.6,0.4-2.2,0.9
		c-0.5,0.6-0.8,1.3-0.7,2.1c1,10.4,2.1,35.7-10.3,45.5C166.2,67.8,147.3,70,137,70.4c-1.2,0.1-2.3,0.8-2.6,2c-0.4,1.1,0.1,2.3,1,3
		c6.8,5,20.3,13.4,35.1,13.4c10.1,0,19.1-4,26.6-11.8c10.9-11.3,14.6-24.5,11.1-39c-2.8-11.5-9.6-21.2-14.7-27.4
		C193,10.1,192.2,9.7,191.3,9.7L191.3,9.7z"/>
</g>
<g>
	<path class="st6" d="M208.1,258.9c-2.3,0-3.9-0.6-4.8-1.8c-0.9-1.2-0.9-3.1-0.1-5.5c0.7-2.1,2.4-3.4,4-4.5c0.4-0.2,0.7-0.5,1.1-0.7
		c0.4-0.3,0.9-0.6,1.3-0.8c0.9-0.6,1.9-1.2,2.8-1.8l0.2-0.1c1.5-1,3.1-2,4.6-3c0.9-0.6,1.7-1.3,2.4-1.9c2.2-1.9,3.8-3.7,4.7-5.7
		l0.1-0.1c0.1-0.1,0.1-0.3,0.2-0.4c0.6-1.5,0.8-3,0.5-4.4c-0.4-2.2-1.7-3.9-2.7-4.9c-0.3-0.3-0.6-0.6-1-0.9
		c-0.2-0.1-0.4-0.2-0.6-0.2s-0.4,0.1-0.6,0.2l-29.7,23.4c-0.2,0.1-0.4,0.2-0.6,0.2c0,0-119.6-6.7-119.6-6.7c-0.4,0-0.7-0.3-0.9-0.6
		l-6.5-16.9c-0.1-0.1-5.5-11.6-10.6-25.3c-5.3-14.3-0.9-44.5,2.6-60.1C58.8,120,72.4,99,76.3,98.1c0.1,0,0.2,0,0.2,0
		c4,0,10.5,9.3,14.9,17.2l0.2,0.4c0.2,0.3,0.4,0.5,0.8,0.5h23.4c0.3,0,0.5-0.1,0.7-0.4c6-7.9,13.2-16,15.8-16c0,0,0,0,0,0
		c0.1,0,0.1,0,0.2,0c2.4,0.4,7.9,8.6,14,20.8c0.1,0.3,0.5,0.5,0.8,0.5c0.1,0,0.2,0,0.3,0c10.5-2.8,20.4-4,32.1-4c0.4,0,0.7,0,1.1,0
		c0,0,0,0,0,0c1.2,0,2.4,0,3.8,0.1c1.8,0.1,3.7,0.2,5.6,0.5c4.1,0.6,8.1,1.8,12.1,3.5c3.3,1.4,6.4,3.2,9.4,5.3
		c5.7,4,10.7,9.1,14.8,15.1c7.9,11.6,12.9,29.8,12,43.4c-0.6,9.2-5.4,28.8-5.4,29c0,0.2,0,0.4,0,0.5l0.1,0.3
		c0.3,0.8,0.6,1.6,0.9,2.4c0.8,2.2,1.6,4.8,2.2,7.5c0,0,0,0,0,0.1c0.6,3.1,0.8,5.9,0.4,8.7c-0.3,2.2-1,4.4-2,6.5
		c-0.1,0.1-0.1,0.2-0.2,0.4c-1.7,3.4-4.1,6.7-7.1,9.6c-1.7,1.6-3.5,3-5.4,4.3c-2.5,1.7-5.2,3-8,3.9c-0.1,0-0.2,0.1-0.3,0.1
		C211.7,258.6,209.8,258.9,208.1,258.9z"/>
	<path class="st1" d="M76.5,99.1c2.8,0,8.6,6.8,14,16.7c0.1,0.1,0.1,0.2,0.2,0.4c0.3,0.6,1,1,1.7,1h23.4c0.6,0,1.2-0.3,1.5-0.8
		c7.6-10.1,13.4-15.6,15-15.6c1.4,0.2,6.1,5.8,13.3,20.3c0.3,0.7,1,1.1,1.7,1.1c0.2,0,0.3,0,0.5-0.1c10.4-2.8,20.3-4,31.8-4
		c0.3,0,0.7,0,1.1,0c1.2,0,2.5,0,3.8,0.1c1.8,0.1,3.7,0.2,5.5,0.5c4,0.6,8,1.8,11.8,3.4c3.2,1.4,6.3,3.1,9.3,5.2
		c5.5,3.9,10.5,8.9,14.5,14.8c7.8,11.4,12.8,29.4,11.8,42.8c-0.6,8.7-4.9,26.8-5.4,28.8c-0.1,0.4-0.1,0.7,0.1,1.1
		c0.3,0.9,0.7,1.8,1,2.7c0.9,2.5,1.6,4.9,2.1,7.4v0c0.6,2.8,0.8,5.5,0.4,8.4c-0.3,2-0.9,4.1-1.9,6.2c-0.1,0.1-0.1,0.2-0.1,0.3
		c-1.7,3.4-4,6.6-6.9,9.3c-1.6,1.6-3.4,2.9-5.3,4.2c-2.4,1.6-5.1,2.9-7.8,3.8c-0.1,0-0.2,0.1-0.3,0.1c-1.8,0.6-3.7,0.9-5.3,0.9
		c-1.4,0-3.1-0.3-4-1.4c-0.9-1.2-0.5-3.2,0-4.6c0.6-1.8,2-2.9,3.6-3.9c0.4-0.3,0.7-0.5,1.1-0.7c0.4-0.3,0.9-0.6,1.3-0.8
		c0.9-0.6,1.8-1.2,2.8-1.8c0,0,0.1,0,0.1-0.1c1.6-1,3.2-2,4.8-3.2c0.9-0.6,1.7-1.3,2.5-1.9c2.1-1.7,3.8-3.7,4.9-6
		c0.1-0.2,0.2-0.4,0.3-0.6c0.8-1.8,0.9-3.5,0.6-5c-0.4-2.4-1.9-4.3-3-5.4c-0.4-0.4-0.8-0.8-1.1-1c-0.4-0.3-0.8-0.4-1.2-0.4
		c-0.4,0-0.8,0.1-1.2,0.4l-29.7,23.4c-7.3-0.4-110.6-6.2-119.5-6.7l-6.5-16.8c0-0.1-0.1-0.1-0.1-0.2c0,0-5.5-11.5-10.5-25.2
		c-5.3-14.1-0.8-44.1,2.6-59.5C59.8,120,73.3,99.8,76.5,99.1 M76.5,97.1c-0.2,0-0.3,0-0.5,0.1c-3.4,0.8-9.5,10.7-11.3,13.8
		c-3,5.1-8.4,15.2-10.6,25.2c-3.5,15.7-7.9,46.1-2.5,60.7c5.1,13.7,10.6,25.3,10.6,25.4c0,0,0,0,0,0c0,0,0,0,0,0l6.5,16.8
		c0.3,0.7,1,1.2,1.8,1.3l41.8,2.3c32.8,1.8,73.2,4.1,77.7,4.4c0,0,0.1,0,0.1,0c0.4,0,0.9-0.1,1.2-0.4l29.6-23.4
		c0.3,0.2,0.6,0.5,0.8,0.8c0.9,0.9,2.1,2.5,2.4,4.4c0.2,1.3,0.1,2.6-0.5,3.9c-0.1,0.1-0.1,0.3-0.2,0.4l-0.1,0.1
		c-0.9,1.8-2.3,3.6-4.4,5.3c-0.7,0.6-1.5,1.2-2.4,1.8c-1.5,1.1-3.1,2.1-4.6,3l-0.1,0.1c0,0,0,0,0,0c0,0,0,0-0.1,0
		c-1,0.6-2,1.2-2.9,1.8c-0.4,0.3-0.8,0.5-1.2,0.8c-0.4,0.3-0.8,0.5-1.2,0.8c-1.8,1.2-3.6,2.6-4.4,4.9c-0.9,2.7-0.9,4.9,0.2,6.4
		c1.1,1.5,3,2.2,5.6,2.2c1.8,0,3.8-0.4,5.8-1c0.1,0,0.2-0.1,0.3-0.1c2.9-1,5.6-2.3,8.2-4c2-1.3,3.8-2.8,5.5-4.4
		c3-2.9,5.6-6.3,7.3-9.8c0.1-0.1,0.1-0.3,0.2-0.4c1-2.1,1.7-4.4,2-6.7c0.4-2.8,0.3-5.8-0.4-9c0,0,0-0.1,0-0.1
		c-0.6-2.7-1.4-5.4-2.2-7.6c-0.3-0.9-0.6-1.8-1-2.7c0.3-1.1,4.8-19.9,5.4-29.1c0.9-13.8-4.2-32.3-12.2-44.1
		c-4.1-6.1-9.2-11.2-15-15.3c-3.1-2.1-6.3-4-9.6-5.4c-4-1.7-8.1-2.9-12.3-3.6c-1.9-0.3-3.9-0.5-5.8-0.5c-1.3,0-2.6-0.1-3.8-0.1
		c-0.4,0-0.7,0-1.1,0c-11.8,0-21.7,1.2-32.3,4c-3.1-6.2-10.7-20.6-14.7-21.3c-0.1,0-0.2,0-0.3,0c0,0,0,0,0,0
		c-4,0.1-13.6,12.5-16.6,16.4H92.5l-0.1-0.1l-0.1-0.2C90,110.6,82.1,97.1,76.5,97.1L76.5,97.1z"/>
</g>
<path class="st7" d="M68.6,136.7c0,0,2.1,3.9,5.5,3.7s6.3-3.7,6.3-3.7"/>
<path class="st7" d="M119.2,137.3c0,0,1.9,2.4,5.6,2.4c3.7,0,6.3-4.5,6.3-4.5"/>
<path class="st8" d="M93.9,146c0,0,2.7,0.3,4.3-1.3c0.9-0.9,1.4-2.1,1.7-3.1c0.1-0.3,0.6-0.3,0.6,0c0.3,1.3,0.7,3,1.4,3.4
	c1.1,0.6,3.4,1,3.4,1l-2.6,0.9c-0.1,0-0.2,0.1-0.2,0.2c-0.2,0.7-1.1,3.4-2,3.4c-1.2,0-2.7-2.8-3-3.4c0-0.1-0.1-0.1-0.2-0.2L93.9,146
	z"/>
<line class="st7" x1="69.4" y1="142.4" x2="71.1" y2="139.7"/>
<line class="st7" x1="74.4" y1="144.1" x2="74.4" y2="140.4"/>
<line class="st7" x1="79.4" y1="142.4" x2="77.9" y2="138.9"/>
<line class="st7" x1="119.5" y1="141.3" x2="121.2" y2="138.9"/>
<line class="st7" x1="124.1" y1="143.3" x2="124.1" y2="140.1"/>
<line class="st7" x1="129" y1="141.7" x2="128.1" y2="138.5"/>
<path class="st7" d="M140.7,129.9c6-7.2,17.4-4.2,25.4-4.2"/>
<path class="st7" d="M140.7,140.1c7.8-2.9,17.4,3.8,24.3,6.9"/>
<path class="st7" d="M31.8,123.3c9.4-1.7,18.4,3.2,24.4,10.1"/>
<path class="st7" d="M29.9,146.9c6.9-5.1,15.2-4.7,23.5-4.7"/>
<path class="st9" d="M95.7,117.1v5.4c0,0-0.4,2.3-2.7,2.3s-2.4-2.2-2.4-2.2v-6.8c0.1,0.1,0.1,0.2,0.2,0.4c0.3,0.6,1,1,1.7,1
	L95.7,117.1L95.7,117.1z"/>
<path class="st9" d="M104.8,117.1v5.4c0,0-0.4,2.3-2.7,2.3c-2.3,0-2.4-2.2-2.4-2.2v-5.5L104.8,117.1L104.8,117.1z"/>
<path class="st9" d="M113.9,117.1v5.4c0,0-0.4,2.3-2.7,2.3c-2.3,0-2.4-2.2-2.4-2.2v-5.5L113.9,117.1L113.9,117.1z"/>
<path class="st9" d="M189.9,118.5v11.4c0,0-0.7,3.5-4.9,3.5s-4.3-4.2-4.3-4.2V118c1.2,0,2.5,0,3.8,0.1
	C186.3,118.1,188.1,118.3,189.9,118.5z"/>
<path class="st9" d="M211,127.2v8.5c0,0-0.7,3.5-4.9,3.5s-4.3-4.2-4.3-4.2v-13C205,123.3,208.1,125.1,211,127.2z"/>
<path class="st9" d="M235.2,224.8L235.2,224.8c-1.6,0.6-3.3,1.3-4.4,1.7c-1.1,0.4-2.9,0.9-4.6,1.4c-0.4-2.4-1.9-4.3-3-5.4l9.8-5.1
	C233.9,219.9,234.7,222.3,235.2,224.8z"/>
<path class="st9" d="M235.6,233.1c-0.3,2-0.9,4.1-1.9,6.2c-0.1,0.1-0.1,0.2-0.1,0.3c-4.6,0.1-10.9,0.1-12.6-0.1
	c-0.2,0-0.4-0.1-0.6-0.1c2.1-1.7,3.8-3.7,4.9-6c0.1-0.2,0.2-0.4,0.3-0.6L235.6,233.1z"/>
<path class="st9" d="M226.7,248.9c-1.6,1.6-3.4,2.9-5.3,4.2l-8.3-8.5c1.6-1,3.2-2,4.8-3.2L226.7,248.9z"/>
<path class="st9" d="M213.4,257c-1.8,0.6-3.7,0.9-5.3,0.9c-1.4,0-3.1-0.3-4-1.4c-0.9-1.2-0.5-3.2,0-4.6c0.6-1.8,2-2.9,3.6-3.9
	L213.4,257z"/>
<path class="st0" d="M55.2,222.8c0,0,7.7-5.5,12.2,0s4.5,5.5,4.5,5.5s6.1-9.4,11.6-7.9s9,7.9,9,7.9s6.1-6.4,11.6-5.5
	c5.5,1,8.3,8.7,8.3,8.7s6.8-8.7,12.5-8.4c5.8,0.3,10,8.4,10,8.4s4.5-5.8,11.9-5.6c7.4,0.2,9.6,6.9,9.6,6.9s3.9-9.6,12.2-9
	c8.4,0.6,11.6,7.7,11.6,7.7s2.6-6.8,10.3-7.1c7.7-0.3,10.9,7.1,10.9,7.1s2.9-8.4,9.3-10c6.4-1.6,10.3,0.3,10.3,0.3
	c-0.1-0.2,0.4-0.1,0.3-0.3c0.4,6.3-4.3,8.8-6.1,14.8c-1.8,6-13.4,7.5-18.6,11c-3.8,2.5,4.9,12.2,0.4,13.1c-8.4,1.7-16.9,1.9-25.4,2
	c-32,0.4-64.3-1-95.2-9.3c-5.9-1.6-11.8-3.5-16.5-7.3s-8.1-9.8-7.1-15.8C53.1,227.7,53.7,224.6,55.2,222.8z"/>
<path class="st7" d="M55.2,222.8c7.3-4.9,12.1-0.1,16.7,5.5c-0.5-0.6,4.8-5.5,5.4-5.9c6.2-4.3,12,0.5,15.2,5.9
	c-0.4-0.7,5.6-4.3,6.5-4.6c6.5-2.5,11.2,2.2,13.4,7.8c-0.4-1,5.6-5.6,6.4-6.1c6.8-4.4,12.7-0.1,16.1,6.1c-0.5-0.9,5.6-4.3,6.2-4.5
	c6-2.4,12.9-0.5,15.3,5.8c-0.8-2.1,5.2-7,6.8-7.8c6.3-3.1,14,0.6,17,6.6c-0.9-1.7,4.8-5.6,6-6.1c6-2.7,12.5,0.4,15.2,6.1
	c-0.8-1.6,3.9-6.6,5.1-7.6c3.8-3.2,9.9-4,14.6-2"/>
</svg>
