<svg xmlns="http://www.w3.org/2000/svg" viewBox="0 0 300 300"><defs><style>.cls-1{isolation:isolate;}.cls-2{fill:#b2fbef;}.cls-3{fill:#562600;}.cls-4{fill:#fff3d2;}.cls-5{fill:#f4d3fe;}.cls-6{fill:#f0b8ff;}.cls-7{fill:#92f0df;}.cls-8{fill:#ffeaa6;}.cls-9{fill:#ffb9e8;}.cls-10{fill:#ec60ac;}.cls-11{fill:#ad8074;}.cls-12{mix-blend-mode:darken;}.cls-13{mix-blend-mode:multiply;}</style></defs><title>кот7</title><g class="cls-1"><g id="Слой_1" data-name="Слой 1"><path class="cls-2" d="M87.07,176.19c-2,0-3.89-2.06-4.74-4a29.74,29.74,0,0,1-2.16-8.44c-1-7.94,4.57-14.17,7.94-17.18.78-.69,12.65-9,15-9a.87.87,0,0,1,.81.44l1.42,2.73a.58.58,0,0,1,0,.5.59.59,0,0,1-.37.34l-1.81.59c-7.22,4.06-14.57,9.49-14.48,19a26.68,26.68,0,0,0,1,7c.65,2.3,1.85,6.58-1.69,7.82a3.38,3.38,0,0,1-1,.17Z"/><path class="cls-3" d="M103.16,138.22c.14,0,.24,0,.28.13l1.42,2.73-1.87.61c-7.61,4.27-14.92,9.86-14.84,19.5a27.18,27.18,0,0,0,1.08,7.17c.63,2.25,1.68,6-1.32,7.09a2.48,2.48,0,0,1-.84.15c-1.87,0-3.52-2.09-4.2-3.63a29.09,29.09,0,0,1-2.11-8.27c-.79-6.6,3-12.44,7.74-16.66,1-.88,12.6-8.82,14.66-8.82m0-1.19c-.51,0-1.69,0-8.37,4.27-3.18,2-6.47,4.31-7.08,4.85-6,5.32-8.86,11.6-8.13,17.69a30.17,30.17,0,0,0,2.21,8.61c.71,1.61,2.62,4.34,5.28,4.34a3.7,3.7,0,0,0,1.23-.21,4.14,4.14,0,0,0,2.82-4.19,15.45,15.45,0,0,0-.74-4.35,26,26,0,0,1-1-6.86c-.08-9.13,7.08-14.43,14.13-18.4l1.76-.57a1.2,1.2,0,0,0,.73-.68,1.17,1.17,0,0,0,0-1l-1.41-2.73a1.47,1.47,0,0,0-1.34-.77Z"/><path class="cls-4" d="M203.18,75.68a18.25,18.25,0,0,1-5-.69l-.07,0c-4.85-1.37-5.66-2.15-5.82-2.78l-1.12-4.25a.6.6,0,0,1,.19-.59.58.58,0,0,1,.39-.15.48.48,0,0,1,.23,0l1.38.58c3.36,1.43,6.84,2.91,10.15,2.91A9.68,9.68,0,0,0,210.34,68a8.54,8.54,0,0,0,3.1-6.82c-.12-1.77-1.13-3.13-2.2-4.56a12.89,12.89,0,0,1-2.12-3.59,4.13,4.13,0,0,1,.34-3.72,2.78,2.78,0,0,1,2.31-1.17,4.25,4.25,0,0,1,1.87.48c3,1.49,5.08,5,5.83,7.91a14.85,14.85,0,0,1-2.1,12.1,18,18,0,0,1-11.94,6.88A16.89,16.89,0,0,1,203.18,75.68Z"/><path class="cls-3" d="M211.77,48.76a3.6,3.6,0,0,1,1.6.42c2.71,1.34,4.79,4.68,5.52,7.52a14.25,14.25,0,0,1-2,11.6,17.28,17.28,0,0,1-18.5,6.12c-1-.28-5.25-1.47-5.48-2.38l-1.11-4.25c3.85,1.62,7.86,3.55,11.76,3.55a10.27,10.27,0,0,0,7.19-2.88,9.19,9.19,0,0,0,3.28-7.3c-.22-3.37-3.32-5.28-4.35-8.3-.75-2.19.24-4.1,2.09-4.1m0-1.19A3.33,3.33,0,0,0,209,49a4.68,4.68,0,0,0-.43,4.26A13.86,13.86,0,0,0,210.76,57c1,1.36,2,2.64,2.08,4.24a8.13,8.13,0,0,1-2.9,6.34,9.1,9.1,0,0,1-6.38,2.57c-3.19,0-6.61-1.46-9.92-2.87l-1.38-.58a1.52,1.52,0,0,0-.46-.1A1.2,1.2,0,0,0,190.63,68l1.13,4.33c.25,1,1.35,1.82,6.24,3.2l.07,0a18.6,18.6,0,0,0,5.11.72,16.38,16.38,0,0,0,2.33-.16A18.56,18.56,0,0,0,217.85,69,15.41,15.41,0,0,0,220,56.4c-.77-3-3-6.72-6.14-8.29a4.8,4.8,0,0,0-2.13-.54Z"/><path class="cls-5" d="M137.18,226a.58.58,0,0,1-.19,0l-.93-.31a43.88,43.88,0,0,1-4.79-1.67l-4.9-2.72a72.54,72.54,0,0,1-7.4-4.59,35.91,35.91,0,0,1-3.77-3.15,50.53,50.53,0,0,1-8-10,37.6,37.6,0,0,1-3.86-8.61,43.39,43.39,0,0,1-1.42-18.35,49.24,49.24,0,0,1,4-12.86,55.09,55.09,0,0,1,3.07-6.07c1-1.78,2.13-3.55,3.2-5.27l1.11-1.78c.84-1.34,1.82-2.95,2.75-4.64a.61.61,0,0,1,.48-.31l33.55-2.53h.11l29.56,3.24c.54.06,1,.63,2.42,2.91.18.29.34.56.41.64l.27.36c1,1.36,2.06,2.77,3,4.24a59.7,59.7,0,0,1,3.38,6.23,64.67,64.67,0,0,1,2.67,6.61c.44,1.28.8,2.6,1.14,3.88.26,1,.53,1.94.83,2.9a37.45,37.45,0,0,1-4.63,31.26c-3.42,5-8.05,8.86-11.7,11.69l-.74.57-2.48,3.3a.61.61,0,0,1-.47.23l-9.16.1-6.75,3.67a.61.61,0,0,1-.26.08l-6.09.2a.62.62,0,0,1-.37-.13l-4.66-3.71-8.29,4.19-.77.39A.54.54,0,0,1,137.18,226Z"/><path class="cls-3" d="M150.09,143.65l29.57,3.24c.5.06,2.1,2.89,2.41,3.32,1.11,1.49,2.24,3,3.23,4.56a57.18,57.18,0,0,1,3.34,6.16,62.73,62.73,0,0,1,2.65,6.55c.77,2.23,1.26,4.52,2,6.77A36.68,36.68,0,0,1,188.7,205a53.08,53.08,0,0,1-11.57,11.56l-.81.62-2.53,3.36-9.3.1-6.88,3.74-6.07.2-5-3.94L138,225l-.77.39-.93-.3c-1.53-.5-4.42-1.47-4.67-1.62s-4.92-2.73-4.92-2.73a71.2,71.2,0,0,1-7.34-4.55,36.93,36.93,0,0,1-3.71-3.1,49.65,49.65,0,0,1-7.88-9.91,37.11,37.11,0,0,1-3.8-8.48,42.78,42.78,0,0,1-1.4-18.09,48.5,48.5,0,0,1,3.91-12.71,56.16,56.16,0,0,1,3-6c1.38-2.38,2.86-4.69,4.31-7,1-1.54,1.89-3.09,2.76-4.67l33.55-2.54m0-1.18H150L116.45,145a1.2,1.2,0,0,0-1,.61c-.93,1.68-1.9,3.28-2.73,4.62L111.66,152c-1.07,1.71-2.18,3.48-3.21,5.27a57.33,57.33,0,0,0-3.11,6.13,50.1,50.1,0,0,0-4,13,43.91,43.91,0,0,0,1.44,18.6,38.22,38.22,0,0,0,3.93,8.75,50.71,50.71,0,0,0,8.07,10.15,38.37,38.37,0,0,0,3.83,3.2,72,72,0,0,0,7.46,4.63l4.89,2.71a37.12,37.12,0,0,0,4.9,1.73l.94.31a1.5,1.5,0,0,0,.37,0,1.09,1.09,0,0,0,.53-.13l.78-.39,7.95-4,4.36,3.46a1.17,1.17,0,0,0,.74.26h0l6.07-.2a1.44,1.44,0,0,0,.53-.14l6.62-3.6,9-.1a1.18,1.18,0,0,0,.93-.48l2.43-3.23.39-.3.29-.22c3.69-2.86,8.36-6.78,11.83-11.82a36.54,36.54,0,0,0,5.88-15.35,37.24,37.24,0,0,0-1.18-16.43c-.29-.95-.56-1.93-.81-2.88-.35-1.28-.71-2.61-1.16-3.91a67,67,0,0,0-2.69-6.68,60.68,60.68,0,0,0-3.41-6.28c-.94-1.5-2-2.91-3-4.28l-.27-.36-.38-.6c-1.47-2.39-2-3.09-2.85-3.19l-29.57-3.24Z"/><circle class="cls-3" cx="129.61" cy="177.87" r="2.35"/><circle class="cls-3" cx="161.7" cy="177.87" r="2.35"/><path class="cls-3" d="M148.91,181.72a.7.7,0,0,1-.52-.22l-.09-.08-3-2.72a.73.73,0,0,1-.25-.55v-2.94a.74.74,0,0,1,.74-.74.75.75,0,0,1,.75.74v2.61l2.79,2.51,0,0,.1.1a.75.75,0,0,1-.53,1.27Z"/><path class="cls-3" d="M143,181.51a.75.75,0,0,1-.53-.23.74.74,0,0,1,0-1.05,22.57,22.57,0,0,1,3-2.45.74.74,0,0,1,.84,1.23,20.19,20.19,0,0,0-2.78,2.28A.7.7,0,0,1,143,181.51Z"/><path class="cls-3" d="M167.12,184a.74.74,0,0,1-.28-1.43l5.56-2.23a.74.74,0,0,1,.56,1.38l-5.57,2.22A.66.66,0,0,1,167.12,184Z"/><path class="cls-3" d="M172.68,187.69h-.15L167,186.56a.74.74,0,1,1,.29-1.45l5.57,1.11a.74.74,0,0,1-.15,1.47Z"/><path class="cls-3" d="M116.24,189.21a.75.75,0,0,1-.22-1.46l6.78-2.07a.74.74,0,1,1,.43,1.42l-6.77,2.08Z"/><path class="cls-3" d="M123,183.44a.78.78,0,0,1-.26,0L116,180.92a.76.76,0,0,1-.44-1,.75.75,0,0,1,.95-.44l6.78,2.48a.74.74,0,0,1,.44.95A.73.73,0,0,1,123,183.44Z"/><path class="cls-6" d="M177.13,216.55l-.81.62-2.53,3.36-9.3.1-6.88,3.74-6.07.2-5-3.94L138,225l-1.7.09c-1.53-.5-4.42-1.47-4.67-1.62s-4.92-2.73-4.92-2.73a71.2,71.2,0,0,1-7.34-4.55c2.52-.81,5.39-1.68,7.14-2,3.64-.71,6.47-1.62,7.18,0s.4,5.66,1.52,5.46-.71-4.66,1.41-5.26a61.26,61.26,0,0,1,11.89-1.11,10,10,0,0,1,4.5,1s-.91,4.55.5,4.65,1.82-1.74,1.82-1.74l-.4-3.93s.45-1.21,4.47-.9,15.56,2.91,15.56,2.91Z"/><path class="cls-6" d="M188.64,160.93a16.2,16.2,0,0,1-5.79,3.51c-4.55,1.22-7.06-6.68-7.06-6.68l-17.64,1.48L135,159.17l-7.77-4.09s-8.74,9.51-12.84,9.36c-2.59-.09-4.15-3.82-5-6.55,1.38-2.38,2.86-4.69,4.31-7,1-1.54,1.89-3.09,2.76-4.67l33.55-2.54,29.57,3.24c.5.06,2.1,2.89,2.41,3.32,1.11,1.49,2.24,3,3.23,4.56A57.18,57.18,0,0,1,188.64,160.93Z"/><path class="cls-2" d="M115.68,160c-.68,0-1.59-.34-2.12-2a12.7,12.7,0,0,1-.45-3.63l-.32-.34-.57-.51a41.86,41.86,0,0,1-7.72-8.11c-4.36-6.58-6.82-14.46-6.6-21.08a63.79,63.79,0,0,1,3.79-18.84c.22-.63.47-1.29.75-2s.58-1.5.94-2.36a1.39,1.39,0,0,0,.08-.23c.39-1.17.58-1.56,1-1.67a8.65,8.65,0,0,0,4.07-2.29,12.66,12.66,0,0,0,.68-1.18c.8-1.49,1.1-2,1.53-2.1a66.61,66.61,0,0,1,11.2-1.86l3.8-.34h.76a2.58,2.58,0,0,0,.68,0,.22.22,0,0,0-.09.06l.8.88a3.7,3.7,0,0,0-.72,3.83,2.76,2.76,0,0,0,2.2,2.06l.43,0c1.95,0,3.69-1.47,5.33-4.49,0-.07.13-.28.23-.5.88-2,1.31-2.67,1.93-2.68l5.81-.08c3,0,6.14-.1,9.21-.1,3.29,0,6.19.06,8.84.18,4.17.21,20.45,2.44,21.14,2.54a.57.57,0,0,1,.41.26l2.55,3.81a9.25,9.25,0,0,0,1.74-1,7.75,7.75,0,0,1,3.43-1.52,1.48,1.48,0,0,1,1.44,1,26.47,26.47,0,0,1,1.66,5.21,10.65,10.65,0,0,1,.14,2.85,8,8,0,0,1-.33,1.36,4.46,4.46,0,0,0-.33,1.67C194.75,113.21,196.2,119,196,125a39.27,39.27,0,0,1-6.13,20.43,42.77,42.77,0,0,1-3.62,4.88,7.35,7.35,0,0,1-.61.57c-.36.32-1.31,1.14-1.34,1.47a6.77,6.77,0,0,1,.16.67c.72,3.48.25,5.64-1.34,6.07a1.74,1.74,0,0,1-.45.06c-2.19,0-3.65-4.47-4.12-6.13l-15.41-.68c0,1.47-.27,4.17-1.35,5.35a1.79,1.79,0,0,1-1.34.63,2.14,2.14,0,0,1-1-.25c-1.95-1-2.83-4.74-3.06-5.91a46.89,46.89,0,0,0-5.17-.16c-3.48,0-7.6.09-8.95.13h-.48a136.44,136.44,0,0,0-22.83,2c0,.19,0,.42,0,.73s-.08,1.2-.11,1.39a4.5,4.5,0,0,1-1.71,3.18A2.9,2.9,0,0,1,115.68,160Z"/><path class="cls-3" d="M152.29,91c2.94,0,5.87,0,8.81.19,4.2.2,21.09,2.53,21.09,2.53l2.63,3.94a.33.33,0,0,0,.31.15c1,0,3.75-2.48,5.27-2.48a.88.88,0,0,1,.89.61,26,26,0,0,1,1.62,5.09,9.67,9.67,0,0,1,.13,2.69c-.08.86-.85,2.48-.63,3.25,1.61,5.86,3.2,11.93,3,18a38.6,38.6,0,0,1-6,20.12,43.11,43.11,0,0,1-3.56,4.82c-.46.51-2.3,1.78-2.08,2.57,0,0,.06.25.15.65.3,1.46.83,4.9-.92,5.38a1.43,1.43,0,0,1-.29,0c-2.08,0-3.66-6.1-3.66-6.1l-16.48-.73c.11,1.25-.16,6-2.08,6a1.48,1.48,0,0,1-.69-.18c-1.61-.8-2.54-4.21-2.8-5.82,0-.24-2.65-.32-5.69-.32-4.06,0-8.89.13-9.44.14a138.17,138.17,0,0,0-23.41,2.12h0s-.12,2.31-.15,2.52a4,4,0,0,1-1.45,2.78,2.29,2.29,0,0,1-1.18.41c-.79,0-1.27-.69-1.56-1.59a12.52,12.52,0,0,1-.41-3.68l-.51-.54c-3-2.61-6-5.19-8.21-8.51-3.88-5.87-6.73-13.65-6.49-20.74a63.13,63.13,0,0,1,3.75-18.66c.24-.67.49-1.34.74-2s.62-1.56.94-2.34c.08-.19.46-1.5.68-1.56a9.23,9.23,0,0,0,4.33-2.45c.4-.44,1.55-3,1.94-3.12A64.92,64.92,0,0,1,122,92.36c1.26-.13,2.53-.24,3.79-.35h.7a2.13,2.13,0,0,0,1-.14c-2.11,1.91-1.16,6.62,1.82,6.92l.49,0c2.78,0,4.64-2.56,5.85-4.79.23-.44,1.19-2.87,1.65-2.87,5,0,10-.19,15-.19m-24.82.9h0m24.82-2.09c-3.08,0-6.2,0-9.22.1-1.91,0-3.87.07-5.81.09-1.06,0-1.6,1.1-2.46,3a4.58,4.58,0,0,1-.22.47c-1.52,2.81-3.09,4.17-4.8,4.17l-.36,0A2.22,2.22,0,0,1,127.71,96a3.22,3.22,0,0,1,.54-3.2,1.18,1.18,0,0,0-.78-2.08h0a1.22,1.22,0,0,0-.54.12,3.51,3.51,0,0,1-.46,0h-.81l-3.8.34a67.31,67.31,0,0,0-11.3,1.88c-.69.18-1,.82-1.89,2.38a11.63,11.63,0,0,1-.62,1.09,8.11,8.11,0,0,1-3.78,2.1c-.76.22-1,1-1.37,2a2,2,0,0,1-.07.2c-.36.86-.67,1.63-1,2.37s-.53,1.39-.75,2a64.22,64.22,0,0,0-3.82,19C97.08,131,99.58,139,104,145.71a42.77,42.77,0,0,0,7.82,8.23l.55.48.15.16a12.81,12.81,0,0,0,.47,3.57c.67,2.1,2,2.42,2.69,2.42a3.48,3.48,0,0,0,1.82-.59,5,5,0,0,0,2-3.59c0-.2.09-1,.11-1.45l0-.27a137.64,137.64,0,0,1,22.28-1.93h.49c1.35,0,5.46-.13,8.93-.13,2.73,0,4,.06,4.67.11.35,1.58,1.3,4.91,3.29,5.91a2.78,2.78,0,0,0,1.22.3,2.36,2.36,0,0,0,1.78-.82c1.1-1.2,1.42-3.58,1.48-5.13l14.4.64A24.29,24.29,0,0,0,179,156c1.09,2.54,2.3,3.77,3.7,3.77a2.06,2.06,0,0,0,.6-.08c1.37-.37,2.79-1.85,1.77-6.76,0-.17-.07-.33-.11-.49a8,8,0,0,1,1.1-1.08,7.16,7.16,0,0,0,.67-.62,44.82,44.82,0,0,0,3.66-4.95A39.87,39.87,0,0,0,196.63,125c.17-6.07-1.29-11.92-3.07-18.39a6.35,6.35,0,0,1,.32-1.36,8.69,8.69,0,0,0,.35-1.48,11,11,0,0,0-.15-3,27.15,27.15,0,0,0-1.68-5.32,2.08,2.08,0,0,0-2-1.36c-1.17,0-2.48.82-3.74,1.6-.36.23-.86.54-1.21.72l-1-1.43-1.31-2a1.18,1.18,0,0,0-.83-.52c-.69-.1-17-2.34-21.2-2.54-2.66-.13-5.56-.19-8.86-.19Z"/><path class="cls-7" d="M184.46,97.31l.06-.06,0,0-2.36-3.54s-16.89-2.33-21.09-2.53c-7.93-.38-15.89-.08-23.82,0-.46,0-1.42,2.43-1.65,2.87-1.28,2.36-3.29,5.08-6.34,4.76s-3.93-5-1.82-6.92c-.24.21-1.4.11-1.7.14-1.26.11-2.53.22-3.79.35a64.92,64.92,0,0,0-11.1,1.83c-.39.11-1.54,2.68-1.94,3.12a9.23,9.23,0,0,1-4.33,2.45c-.22.06-.6,1.37-.68,1.56-.32.78-.64,1.56-.94,2.34,1.13.84,2.48,1.52,3.64,1.25,2.63-.6,6.27-4,6.27-4L123.32,99s.81,5,3.84,4.55,7.18-1.11,8.8-2.63,3.44-3,3.44-3l.91-1,40,2.23,1.64.25a6.59,6.59,0,0,1,1.75-1.54C183.93,97.59,184.19,97.45,184.46,97.31Z"/><path class="cls-3" d="M155.49,125.92H148a.75.75,0,0,1,0-1.49h7.54a.75.75,0,0,1,0,1.49Z"/><path class="cls-3" d="M149.06,131.86a.77.77,0,0,1-.7-.48.74.74,0,0,1,.44-1l6.42-2.43a.74.74,0,0,1,.53,1.39l-6.43,2.43A.75.75,0,0,1,149.06,131.86Z"/><path class="cls-3" d="M199.38,125.92h-6.47a.75.75,0,0,1,0-1.49h6.47a.75.75,0,1,1,0,1.49Z"/><path class="cls-3" d="M198.07,131.86a.66.66,0,0,1-.3-.07l-5.56-2.42a.75.75,0,0,1,.59-1.37l5.57,2.43a.75.75,0,0,1,.38,1A.74.74,0,0,1,198.07,131.86Z"/><path class="cls-3" d="M171.87,123.56a.76.76,0,0,1-.57-.26.75.75,0,0,1,.09-1l3.24-2.73a.75.75,0,0,1,1,0l3,2.73a.74.74,0,0,1,.05,1,.73.73,0,0,1-1,.05l-2.56-2.3-2.74,2.32A.78.78,0,0,1,171.87,123.56Z"/><path class="cls-3" d="M175,120a.75.75,0,0,1-.75-.74V117a.75.75,0,0,1,.75-.74.74.74,0,0,1,.74.74v2.33A.74.74,0,0,1,175,120Z"/><path class="cls-3" d="M159.27,122.2c-2.85,0-3.68-3.08-3.72-4.72a.75.75,0,0,1,.73-.76h0a.74.74,0,0,1,.75.72c0,.14.12,3.27,2.24,3.27h0c2.2,0,2.4-3.16,2.4-3.29a.74.74,0,0,1,.78-.7.75.75,0,0,1,.71.78c-.09,1.6-1,4.65-3.87,4.7Z"/><path class="cls-3" d="M188.1,122.2H188a2.66,2.66,0,0,1-1.93-.85,6,6,0,0,1-1.12-3.93.73.73,0,0,1,.78-.7.74.74,0,0,1,.7.77h0a4.57,4.57,0,0,0,.73,2.85,1.15,1.15,0,0,0,.87.37,1.28,1.28,0,0,0,1-.42,4.94,4.94,0,0,0,1.09-2.7.72.72,0,0,1,.2-.66.76.76,0,0,1,.91-.11c.26.15.63.37.12,2.18C190.81,121,189.62,122.2,188.1,122.2Z"/><path class="cls-4" d="M104.2,99.14a1.23,1.23,0,0,1-1-.52c-.51-.71-.43-2.05.26-4.11a15.93,15.93,0,0,1,1.2-2.82,7.43,7.43,0,0,1,.51-.82c-.59-1-3.33-4.51-4.42-5.89-.53-.68-.89-1.13-1-1.29a34.51,34.51,0,0,1-5.4-10.29c-1.11-3.85-1-7.91-1-11.85l0-.83c.06-4.38.42-10.08,2.71-15.22v0l2.57-5.75,1.75-3.91c.4-.88.75-1.68,1-2.3l.61-1.37a.62.62,0,0,1,.15-.2c0-.05,5-4.38,7.1-6.09a36.59,36.59,0,0,1,5-3.38,79.68,79.68,0,0,1,15.87-6.39c1.23-.37,2.5-.71,3.78-1a53.11,53.11,0,0,1,11.7-1.29,59.37,59.37,0,0,1,26.76,6.57A40.09,40.09,0,0,1,185,30.57a47.1,47.1,0,0,1,9.3,17.18c.25.87.47,1.75.65,2.64a43.66,43.66,0,0,1,.83,6.57,66.4,66.4,0,0,1-.7,12.94c-.89,6.22-3.56,12.32-6.13,18.23l-.89,2.05a11.27,11.27,0,0,0-.58,1.58l.26-.22.08-.07a.59.59,0,0,1,.4-.15.39.39,0,0,1,.15,0,.58.58,0,0,1,.41.38l0,0,1,2.73a.62.62,0,0,1,0,.48.6.6,0,0,1-.38.3l-3.34.81h-.14a.59.59,0,0,1-.43-.19l-3.19-3.43a56.47,56.47,0,0,1-5.72-.93c-2.27-.53-16.94-1.34-21.52-1.34l-1.06,0c-2.33.19-15.53.62-18,.7a23.56,23.56,0,0,1-3.81,5.7A3.6,3.6,0,0,1,129.8,98c-1.42,0-2-1.58-2.18-2.1-.3-.81.21-2,.7-3.2a9.48,9.48,0,0,0,.51-1.4,9.24,9.24,0,0,0-2.65-.24,50.68,50.68,0,0,0-6.42.49,61.77,61.77,0,0,0-10.14,2.33,10.2,10.2,0,0,0-1.23,2C107.81,97.35,105.29,99.14,104.2,99.14Z"/><path class="cls-3" d="M145.66,14.41a58.63,58.63,0,0,1,26.49,6.5,40,40,0,0,1,12.44,10,47,47,0,0,1,9.18,17c.25.86.46,1.72.64,2.59a44,44,0,0,1,.82,6.48,66.26,66.26,0,0,1-.7,12.83c-1,6.87-4.25,13.81-7,20.13a5.37,5.37,0,0,0-.69,2.43.25.25,0,0,0,.26.22,2.37,2.37,0,0,0,1.06-.62l.08-.07v0l1,2.75-3.34.81-3.34-3.6a54.71,54.71,0,0,1-5.86-.94c-2.29-.54-17-1.36-21.66-1.36-.49,0-.86,0-1.1,0-2.53.2-18.31.71-18.31.71a23.63,23.63,0,0,1-3.84,5.87,3.08,3.08,0,0,1-2,1.2c-.9,0-1.37-1-1.62-1.71-.41-1.11,1.61-4.14,1.21-4.74-.21-.31-1.37-.49-3.21-.49a52,52,0,0,0-6.5.49,61.57,61.57,0,0,0-10.42,2.41,11.2,11.2,0,0,0-1.42,2.33,6.32,6.32,0,0,1-3.64,2.83c-.81,0-1.11-1.11-.2-3.84A16.05,16.05,0,0,1,105.16,92a5.88,5.88,0,0,1,.66-1c.26-.28-5.15-7-5.61-7.63a33.6,33.6,0,0,1-5.31-10.1c-1.16-4-1-8.35-1-12.51.07-5.06.58-10.32,2.67-15l4.32-9.68c.52-1.14,1-2.13,1.26-2.8l.38-.87s5-4.35,7.09-6.07A35.41,35.41,0,0,1,114.6,23a78.54,78.54,0,0,1,15.75-6.34c1.24-.38,2.48-.7,3.74-1a52.65,52.65,0,0,1,11.57-1.27m0-1.19v0a53.68,53.68,0,0,0-11.83,1.3c-1.29.28-2.58.62-3.82,1A80.17,80.17,0,0,0,114,22a37.16,37.16,0,0,0-5.1,3.44c-2.12,1.71-6.92,5.92-7.12,6.1a1.17,1.17,0,0,0-.3.4l-.39.87-.22.51c-.28.62-.64,1.41-1,2.3l-1.77,4-2.55,5.69v0c-2.34,5.24-2.71,11-2.77,15.46v.82c-.06,4-.12,8.09,1,12A35.38,35.38,0,0,0,99.24,84l1,1.32c1,1.24,3.35,4.27,4.17,5.51a5.06,5.06,0,0,0-.32.55,17,17,0,0,0-1.25,2.91c-.76,2.29-.81,3.76-.17,4.65a1.79,1.79,0,0,0,1.5.76c1.4,0,4.1-2,4.74-3.56a9.18,9.18,0,0,1,1-1.77,61.09,61.09,0,0,1,9.85-2.25,49.71,49.71,0,0,1,6.35-.49,14.48,14.48,0,0,1,1.88.1c-.09.24-.2.51-.29.72-.56,1.34-1.09,2.61-.71,3.64.6,1.65,1.52,2.49,2.74,2.49A4.16,4.16,0,0,0,132.67,97a23.43,23.43,0,0,0,3.75-5.53c3.16-.1,15.4-.5,17.64-.68.14,0,.43,0,1,0,4.88,0,19.34.85,21.38,1.33A52.69,52.69,0,0,0,182,93l3,3.28a1.22,1.22,0,0,0,.87.38.9.9,0,0,0,.28,0l3.34-.81a1.15,1.15,0,0,0,.77-.59,1.22,1.22,0,0,0,.07-1l-1-2.73v0a1.19,1.19,0,0,0-.83-.77h-.06l.14-.33c.29-.68.59-1.36.89-2,2.59-6,5.28-12.09,6.17-18.39a66.83,66.83,0,0,0,.72-13.05,44.85,44.85,0,0,0-.85-6.66c-.19-.9-.41-1.81-.65-2.68a48,48,0,0,0-9.42-17.41,41,41,0,0,0-12.81-10.33,60,60,0,0,0-27-6.63Z"/><path class="cls-3" d="M90.45,63.48a.76.76,0,0,1-.74-.62.75.75,0,0,1,.61-.86l7-1.21a.74.74,0,1,1,.25,1.46l-7,1.22Z"/><path class="cls-3" d="M91.05,68.54a.75.75,0,0,1-.34-1.41l7.43-3.84a.74.74,0,0,1,.68,1.32l-7.43,3.84A.67.67,0,0,1,91.05,68.54Z"/><path class="cls-3" d="M141.12,56.09h-7.69a.74.74,0,0,1,0-1.48h7.69a.74.74,0,1,1,0,1.48Z"/><path class="cls-3" d="M140.62,61.05h-.12l-7.18-1.11a.74.74,0,0,1,.23-1.47l7.18,1.11a.75.75,0,0,1,.62.85A.74.74,0,0,1,140.62,61.05Z"/><ellipse class="cls-3" cx="99.81" cy="53.93" rx="2.38" ry="2.22"/><ellipse class="cls-3" cx="130.13" cy="49.72" rx="2.38" ry="2.22"/><path class="cls-8" d="M115.18,49.33c-5.06-.8-4-7.81-6.35-11-1.85-2.55-5.07-2.25-7.89-2.22.52-1.14,1-2.13,1.26-2.8l.38-.87s5-4.35,7.09-6.07A35.41,35.41,0,0,1,114.6,23l.23.18a16.9,16.9,0,0,1,4.11,5.6,31.86,31.86,0,0,1,3,9.57C122.52,42.62,121.26,50.29,115.18,49.33Z"/><path class="cls-8" d="M195.23,57A7.92,7.92,0,0,1,190,60.58c-8.35,1.29-13.89-7.3-15.57-14.4-.27-1.15,0-2.52-.38-3.6-1.53-4.33-5.21,1.55-6.31,3.05a45,45,0,0,1-4.05,4.88c-3.08,3.19-7.34,6.6-12.07,6-3.58-.44-6.49-3-8.45-5.85a33.53,33.53,0,0,1-4.35-10.21c-.93-3.44-1.55-7-2.28-10.34-1-4.78-1.85-9.6-2.43-14.44a56.74,56.74,0,0,1,38.06,5.23,40,40,0,0,1,12.44,10,47,47,0,0,1,9.18,17c.25.86.46,1.72.64,2.59A44,44,0,0,1,195.23,57Z"/><path class="cls-8" d="M189.27,94.7l-3.34.81-3.34-3.6a54.71,54.71,0,0,1-5.86-.94c-2.53-.59-20.23-1.53-22.76-1.33s-18.31.71-18.31.71a23.63,23.63,0,0,1-3.84,5.87c-2.33,2.43-3.24.6-3.64-.51s1.61-4.14,1.21-4.74-4.25-.72-9.71,0a61.57,61.57,0,0,0-10.42,2.41,11.2,11.2,0,0,0-1.42,2.33,6.32,6.32,0,0,1-3.64,2.83c-.81,0-1.11-1.11-.2-3.84A16.05,16.05,0,0,1,105.16,92a43.71,43.71,0,0,1,7.33-2.25c3.66-.73,7.33-1.43,11-2,1.34-.19,3.94-1,5.26-.47s1.31,2.29,2.57,2.63c1.51.41,2.76-2,4.18-2.43,4.39-1.39,9.66-.37,14.2-.37,5.27,0,10.53-.17,15.79,0a81.4,81.4,0,0,1,11.74,1.49,30.42,30.42,0,0,1,5.28,1.12c.6.23,3.62,2.82,3.86,2.74l.47-.14,1.32-.4.09,0Z"/><path class="cls-9" d="M194.41,50.51a36.21,36.21,0,0,1-2.31,4.34c-.91,1.11-3.74,1.51-7.17,1.21s-5.67-4.85-6.48-9-4.25-9.11-5.16-9.41-4.15-.6-7.59,5.26-8.19,9.71-12,10.32-6.47-3.54-7.89-5.77S139,34.11,139,34.11l-3.74-6.77-2.54-2.84-6.67,4.05L121,35v5.56s.31,4.86-5.16,5.47-4.14-10.62-4.14-10.62l-8.7-.81-.79-1.36.38-.87s5-4.35,7.09-6.07c5.77-4.67,13.68-7.53,20.68-9.66,14-4.24,28.89-2.32,41.8,4.25a40,40,0,0,1,12.44,10,47,47,0,0,1,9.18,17C194,48.78,194.23,49.64,194.41,50.51Z"/><path class="cls-10" d="M113.61,32.32a.74.74,0,0,1-.74-.74V27.43a.74.74,0,1,1,1.48,0v4.15A.74.74,0,0,1,113.61,32.32Z"/><path class="cls-10" d="M115.53,40.11a.74.74,0,0,1-.64-1.12l3-5.15a.73.73,0,0,1,1-.27.75.75,0,0,1,.27,1l-3,5.16A.75.75,0,0,1,115.53,40.11Z"/><path class="cls-10" d="M121,25.14a.73.73,0,0,1-.56-.26.74.74,0,0,1,.08-1.05l4-3.43a.74.74,0,0,1,1,.08.76.76,0,0,1-.09,1.05l-4,3.44A.72.72,0,0,1,121,25.14Z"/><path class="cls-10" d="M133.43,21.7a.69.69,0,0,1-.43-.14l-3-2.22a.75.75,0,0,1-.16-1,.74.74,0,0,1,1-.16l3,2.22a.74.74,0,0,1,.16,1A.73.73,0,0,1,133.43,21.7Z"/><path class="cls-10" d="M139.2,23.42a.74.74,0,0,1-.74-.74V18.74a.74.74,0,1,1,1.48,0v3.94A.74.74,0,0,1,139.2,23.42Z"/><path class="cls-10" d="M143.75,32.32h-4a.74.74,0,1,1,0-1.48h4a.74.74,0,0,1,0,1.48Z"/><path class="cls-10" d="M148,40.92a.74.74,0,0,1-.32-1.41l5.51-2.63a.74.74,0,1,1,.64,1.34l-5.51,2.63A.71.71,0,0,1,148,40.92Z"/><path class="cls-10" d="M152.05,48.81a.73.73,0,0,1-.6-.3.74.74,0,0,1,.16-1l3.84-2.83a.74.74,0,1,1,.88,1.2l-3.84,2.83A.74.74,0,0,1,152.05,48.81Z"/><path class="cls-10" d="M152.05,31.11a.64.64,0,0,1-.33-.08l-4.1-2a.74.74,0,0,1-.33-1,.74.74,0,0,1,1-.34l4.1,2a.75.75,0,0,1,.33,1A.74.74,0,0,1,152.05,31.11Z"/><path class="cls-10" d="M145.07,19.48a.74.74,0,0,1-.37-1.39l4.93-2.83a.74.74,0,0,1,.74,1.29l-4.93,2.83A.74.74,0,0,1,145.07,19.48Z"/><path class="cls-10" d="M154.88,23.42H150a.74.74,0,0,1,0-1.48h4.88a.74.74,0,0,1,0,1.48Z"/><path class="cls-10" d="M165.09,21.45a.63.63,0,0,1-.26-.05l-5.26-2A.74.74,0,0,1,160.1,18l5.26,2a.76.76,0,0,1,.43,1A.74.74,0,0,1,165.09,21.45Z"/><path class="cls-10" d="M161.25,38.29a.74.74,0,0,1-.74-.74V34.21a.74.74,0,0,1,1.48,0v3.34A.74.74,0,0,1,161.25,38.29Z"/><path class="cls-10" d="M165.09,30.1a.75.75,0,0,1-.51-.21.73.73,0,0,1,0-1.05l4.14-4.35a.75.75,0,0,1,1.05,0,.74.74,0,0,1,0,1.05l-4.15,4.35A.74.74,0,0,1,165.09,30.1Z"/><path class="cls-10" d="M180,36a.74.74,0,0,1-.74-.74V30.37a.74.74,0,0,1,.74-.74.75.75,0,0,1,.75.74v4.91A.75.75,0,0,1,180,36Z"/><path class="cls-10" d="M189,48.41a.87.87,0,0,1-.31-.07l-5.16-2.43a.74.74,0,0,1,.63-1.35L189.28,47a.74.74,0,0,1-.32,1.42Z"/><path class="cls-3" d="M111.47,55.36a5.08,5.08,0,0,1-2.41-.8.74.74,0,0,1-.22-1,.75.75,0,0,1,1-.22c.56.36,1.55.73,1.94.49a6.51,6.51,0,0,0,1.64-2.18.75.75,0,0,1,1.3-.06c0,.06.92,1.46,2,1a2.83,2.83,0,0,0,1.6-1.14l.69.26.71.24a3.93,3.93,0,0,1-2.46,2,2.9,2.9,0,0,1-3.08-.74,5.75,5.75,0,0,1-1.66,1.84A2.21,2.21,0,0,1,111.47,55.36Z"/><path class="cls-3" d="M114.11,52.69a.75.75,0,0,1-.73-.61l-.64-3.46a.74.74,0,0,1,1.46-.27l.65,3.46a.76.76,0,0,1-.6.87Z"/><path class="cls-4" d="M97,46.65a28.82,28.82,0,0,1-2.51-10c-.05-1.52-.12-5.21,1.17-6.26.65-.53,3.91,1.24,4.49,1.62,2.41,1.61,4.15,4.28,6,6.51"/><path class="cls-3" d="M97,47.25a.61.61,0,0,1-.55-.37,30,30,0,0,1-2.55-10.23c-.08-2.35,0-5.6,1.39-6.74,1.16-.95,5.15,1.56,5.18,1.59a22,22,0,0,1,5,5.18c.39.51.76,1,1.14,1.45a.6.6,0,0,1-.93.75l-1.15-1.47a21.1,21.1,0,0,0-4.67-4.92A11.82,11.82,0,0,0,96,30.86c-.41.38-1,1.64-.91,5.75a29,29,0,0,0,2.47,9.82.58.58,0,0,1-.32.77A.64.64,0,0,1,97,47.25ZM96,30.87Z"/><path class="cls-2" d="M149.06,106.53c-1.17-5.79,2.08-11,6.43-14.56.59-.49,4.74,2.2,5.35,2.65,2.95,2.14,4.62,5.55,5.87,8.88"/><path class="cls-3" d="M149.06,107.13a.59.59,0,0,1-.58-.48c-1.07-5.3,1.35-10.82,6.63-15.14.43-.35,1.14-.32,3.34.92,1.22.68,2.44,1.49,2.74,1.71,3.23,2.34,4.94,6.12,6.08,9.15a.6.6,0,0,1-.35.77.59.59,0,0,1-.76-.35c-1.08-2.88-2.7-6.45-5.67-8.61a21.43,21.43,0,0,0-4.72-2.59c-4.87,4-7.1,9.08-6.13,13.91a.59.59,0,0,1-.46.7Z"/><path class="cls-2" d="M179,103.2c2.31-4.88,6.94-7.21,12-8.5"/><path class="cls-3" d="M179,103.79a.57.57,0,0,1-.25-.06.59.59,0,0,1-.29-.79c2.05-4.32,6.09-7.2,12.34-8.82a.61.61,0,0,1,.73.43.59.59,0,0,1-.43.72c-6,1.55-9.65,4.14-11.56,8.18A.61.61,0,0,1,179,103.79Z"/><path class="cls-5" d="M121.3,168c-.24-5.25,2.59-9.23,6-12.94.33-.36,4,1.43,4.42,1.65,3.41,1.72,5.69,4.94,7.72,8.06"/><path class="cls-3" d="M121.3,168.63a.6.6,0,0,1-.6-.57c-.25-5.56,2.8-9.71,6.12-13.37.26-.29.66-.72,5.12,1.52,3.54,1.78,5.87,5.06,8,8.26a.6.6,0,0,1-1,.65c-2-3.07-4.22-6.2-7.49-7.84a24.68,24.68,0,0,0-3.85-1.63c-3.1,3.43-5.9,7.31-5.67,12.36a.6.6,0,0,1-.57.62Z"/><path class="cls-5" d="M153,165.3c2.61-5.09,6.92-7.67,12.13-9.61.2-.07,1.77,2.77,1.91,3,1.53,2.85,1.86,6.15,2.24,9.31"/><path class="cls-3" d="M169.24,168.63a.59.59,0,0,1-.59-.53l-.06-.51c-.35-2.94-.72-6-2.11-8.59-.33-.61-1.15-2-1.54-2.61-4.2,1.59-8.77,4-11.45,9.18a.61.61,0,0,1-.81.26.59.59,0,0,1-.25-.8c2.94-5.74,7.95-8.22,12.46-9.89.45-.17.72-.27,2.64,3.3,1.5,2.8,1.87,6,2.24,9l.06.51a.59.59,0,0,1-.52.66Z"/><path class="cls-11" d="M151.06,286.19a.6.6,0,0,1-.55-.36l-2.72-6.4-7.68-18L139,258.82l-17.16-40.28a.6.6,0,0,1,.17-.7c.17-.13.51-.4,9.4-1.25l.18,0h0a.59.59,0,0,1,.4.16.57.57,0,0,1,.19.43s0,.25.05.64a7.46,7.46,0,0,0,1.08,3.19,3.19,3.19,0,0,0,2.07,1.43,4.56,4.56,0,0,0,.76.07,2.2,2.2,0,0,0,1.28-.35c.94-.66,1.07-2.21,1-3.4v0a14.74,14.74,0,0,0-.43-2.75.58.58,0,0,1,.5-.75l1.45-.16,1.94-.21.45-.06.85-.1.47,0c.54,0,1.39.06,2.52.17l2,.22,2.43.31a.6.6,0,0,1,.51.63,12.66,12.66,0,0,0,.34,3.38,4.94,4.94,0,0,0,1,2.12,2.28,2.28,0,0,0,1.64.77h.14a1.76,1.76,0,0,0,1.36-.6c1.25-1.38,1.24-4.77,1.14-6a.56.56,0,0,1,.17-.47.6.6,0,0,1,.42-.18h0l1.79.16c.57.06,1.23.12,1.92.17,1.41.13,3.16.28,4.24.35.15,0,.32,0,.51,0,.46.05,1.07.14,1.81.26,3.26.56,8.19,1.66,8.24,1.67a.61.61,0,0,1,.43.79l-21.91,59.62-1,2.67-1.84,5a.61.61,0,0,1-.54.39Z"/><path class="cls-3" d="M143.71,215.25c.58,0,1.49.08,2.46.18.65.06,1.32.13,1.93.21,1.34.16,2.43.31,2.43.31a13,13,0,0,0,.35,3.57,5.62,5.62,0,0,0,1.17,2.37,2.92,2.92,0,0,0,2,1h.18c3.75,0,3.09-7.21,3.09-7.21l1.79.16,1.92.18c1.55.13,3.22.28,4.25.34l.48,0c.49.05,1.1.14,1.78.26,3.29.56,8.21,1.66,8.21,1.66l-2.9,7.9-4.67,12.7-1,2.74-6.11,16.63-1,2.78-6.2,16.88-1,2.66-1.84,5-1.6-3.76-1.12-2.63-7.69-18-1.1-2.59L133,243.28l-1.07-2.5-6.76-15.87-2.81-6.61c.34-.27,7.82-1,9.07-1.12h.18a6.47,6.47,0,0,0,.05.69,8.07,8.07,0,0,0,1.17,3.47,3.83,3.83,0,0,0,2.45,1.67,4.79,4.79,0,0,0,.88.08,2.73,2.73,0,0,0,1.62-.46c1.12-.78,1.33-2.42,1.26-3.9h0a14.62,14.62,0,0,0-.45-2.91l1.44-.16,1.94-.21,1.32-.16.39,0m0-1.19a3.89,3.89,0,0,0-.53,0l-.86.1-.46.06-1.93.21-1.44.16a1.18,1.18,0,0,0-.86.52,1.22,1.22,0,0,0-.16,1,13.08,13.08,0,0,1,.42,2.64h0c.07,1.47-.2,2.49-.76,2.88a1.61,1.61,0,0,1-.94.24,3.42,3.42,0,0,1-.65-.06,2.59,2.59,0,0,1-1.69-1.17,6.81,6.81,0,0,1-1-2.93,5.66,5.66,0,0,1,0-.58,1.19,1.19,0,0,0-1.19-1.17h-.11l-.19,0c-9.06.86-9.37,1.11-9.7,1.38a1.19,1.19,0,0,0-.35,1.39l2.82,6.61,6.76,15.87,1.07,2.5,6.52,15.3,1.1,2.59,7.68,18,1.12,2.63,1.61,3.77a1.18,1.18,0,0,0,1.09.72h0a1.19,1.19,0,0,0,1.09-.78l1.84-5,1-2.67,6.21-16.87,1-2.78,6.11-16.63,1-2.74,4.66-12.7,2.91-7.9a1.18,1.18,0,0,0-.08-1,1.21,1.21,0,0,0-.78-.6c-.05,0-5-1.11-8.27-1.67-.75-.13-1.37-.22-1.84-.28l-.54,0c-1.08-.07-2.83-.22-4.23-.35l-1.91-.17-1.79-.16h-.11a1.15,1.15,0,0,0-.84.35,1.19,1.19,0,0,0-.35.95c.14,1.56,0,4.44-1,5.51a1.16,1.16,0,0,1-.92.4h-.11a1.72,1.72,0,0,1-1.23-.59,4.42,4.42,0,0,1-.9-1.86,11.55,11.55,0,0,1-.31-3.2,1.2,1.2,0,0,0-1-1.25l-2.44-.31-2-.22c-1.15-.12-2-.18-2.58-.18Z"/><g class="cls-12"><path class="cls-3" d="M131.64,217.17h-.18l.23.68A6.47,6.47,0,0,1,131.64,217.17Zm33,10.16,3-10.69c-.68-.12-1.29-.21-1.78-.26l-2.17,7.81-2.56-8.2-1.92-.18,3.6,11.55-5.28,19-6.42-21,1-3.43a5.62,5.62,0,0,1-1.17-2.37l-.78,2.68-2-6.56c-.61-.08-1.28-.15-1.93-.21l3,9.9-6,20.85-5.66-16.74,4.51-14-1.94.21-1,3.07h0l-1.26,3.9-1.28,4L135.31,223a3.83,3.83,0,0,1-2.45-1.67l2.75,8.13L132,240.78l1.07,2.5,3.54-11,5.71,16.89-2.73,9.4,1.1,2.59,2.63-9,6.9,20.43-1.84,6.64,1.12,2.63,1.74-6.27,1.7,5,1-2.66-1.83-5.42,5.5-19.78,2.53,8.32,1-2.78-2.66-8.74,5.29-19,3.48,11.15,1-2.74ZM151,269.51l-6.88-20.37,6-20.69,6.43,21.1Z"/></g><g class="cls-13"><path class="cls-11" d="M175.79,218.3l-2.9,7.9-12.65-2.13s-2.93,3.54-6.07,3.8-4.31-3.8-4.31-3.8l-8,.4a10,10,0,0,1-5.77,3.34c-3.64.61-5.56-3.34-5.56-3.34l-5.3.44-2.81-6.61c.34-.27,7.82-1,9.07-1.12h.18a6.47,6.47,0,0,0,.05.69,8.07,8.07,0,0,0,1.17,3.47,3.83,3.83,0,0,0,2.45,1.67,4.79,4.79,0,0,0,.88.08,2.73,2.73,0,0,0,1.62-.46c1.12-.78,1.33-2.42,1.26-3.9h0a14.62,14.62,0,0,0-.45-2.91l1.44-.16,1.94-.21,1.32-.16a17.83,17.83,0,0,1,2.85.16c.65.06,1.32.13,1.93.21,1.34.16,2.43.31,2.43.31a13,13,0,0,0,.35,3.57,5.62,5.62,0,0,0,1.17,2.37,2.92,2.92,0,0,0,2,1c3.95.22,3.27-7.21,3.27-7.21l1.79.16,1.92.18c1.55.13,3.22.28,4.25.34l.48,0c.49.05,1.1.14,1.78.26C170.87,217.2,175.79,218.3,175.79,218.3Z"/></g><path class="cls-4" d="M120.89,37.35c.75-6.29,7.29-9.59,11.73-13.15.07-.06,2.83,4.74,3,5.17a23.42,23.42,0,0,1,2,9.29"/><path class="cls-3" d="M137.68,39.26a.6.6,0,0,1-.59-.58,22.86,22.86,0,0,0-2-9.06c-.16-.35-1.89-3.36-2.62-4.56-.74.57-1.52,1.13-2.34,1.72-4,2.88-8.1,5.85-8.67,10.64a.59.59,0,1,1-1.18-.14c.63-5.31,5.16-8.58,9.16-11.46,1-.72,1.93-1.39,2.79-2.09a.63.63,0,0,1,.51-.11c.31.07.33.08,1.86,2.71.58,1,1.44,2.51,1.57,2.78a24.18,24.18,0,0,1,2.09,9.53.6.6,0,0,1-.58.62Z"/><path class="cls-7" d="M183,158.53c-2.23.6-3.95-6.07-3.95-6.07l-16.48-.73c.12,1.38-.22,7.08-2.77,5.82-1.61-.8-2.54-4.21-2.8-5.82-.09-.57-14.16-.2-15.13-.18a138.17,138.17,0,0,0-23.41,2.12s-.12,2.31-.15,2.52a4,4,0,0,1-1.45,2.78c-1.53,1-2.33.11-2.74-1.18l1.41.53s.71.3,1.22-1.47-1-4.22,1-5.12,15.68-1.7,20.43-1.9,19.58-.71,19.58-.71c.95.2.55,4.85,2.27,5.46s.1-4.35,2.42-4.65,18.31.3,18.31.3-1.31,3.84.61,5.16c1.39,1,2.19-1,2.54-2.24C184.22,154.61,184.75,158.05,183,158.53Z"/></g></g></svg>