<?xml version="1.0" encoding="utf-8"?>
<!-- Generator: Adobe Illustrator 23.0.5, SVG Export Plug-In . SVG Version: 6.00 Build 0)  -->
<svg version="1.1" id="Слой_1" xmlns="http://www.w3.org/2000/svg" xmlns:xlink="http://www.w3.org/1999/xlink" x="0px" y="0px"
	 viewBox="0 0 300 300" style="enable-background:new 0 0 300 300;" xml:space="preserve">
<style type="text/css">
	.st0{fill:#BDAA9B;}
	.st1{fill:#562600;}
	.st2{fill:#635046;}
	.st3{fill:#522601;}
	.st4{fill:#613814;}
	.st5{fill:none;stroke:#562600;stroke-width:4;stroke-linecap:round;stroke-linejoin:round;stroke-miterlimit:10;}
	.st6{fill:#BDAA9B;stroke:#562600;stroke-width:4;stroke-linecap:round;stroke-linejoin:round;stroke-miterlimit:10;}
</style>
<g>
	<g>
		<path class="st0" d="M81.7,247.2c-0.7,0-2.1-0.2-5.2-2c-0.2-0.1-7.2-3.7-14.3-8.6c-4.8-3.3-8.4-6.4-10.8-9.2
			c-0.7-0.8-1.4-1.7-2.3-2.8c-3.1-3.9-6.5-8.6-9.6-13.3c-4.6-6.9-7.8-12.8-8.8-16.1c-0.1-0.2-0.1-0.3-0.1-0.4
			c-2.2-7.8-2.5-16.8,3.4-18.8c1.1-0.4,2.3-0.6,3.5-0.6c4.2,0,8.1,2.6,10.7,7.3c0.5,0.9,1,1.8,1.6,2.8c2.6,4.4,5.2,8.4,7.1,11.1
			c0.4,0.5,0.7,1,1,1.4c2.5,3.2,5.6,6.8,6,7.1l1.7,1.7l11.9,11.8c0.2,0.2,0.3,0.3,0.4,0.6l6.5,17.8c0.1,0.2,0.1,0.5,0.1,0.8
			l-0.8,4.9c0.5,0.9,1,2.4,0.4,3.5C83.4,246.8,82.6,247.2,81.7,247.2z"/>
		<path class="st1" d="M37.4,177.1c3.7,0,7.1,2.4,9.4,6.5c0.5,0.9,1,1.8,1.6,2.8c2.3,3.9,5,8.2,7.2,11.2c0.4,0.5,0.7,1,1.1,1.4
			c2.7,3.5,6.1,7.2,6.1,7.2l1.7,1.7l5.9,5.8l6,6l6.5,17.8l-0.9,5.4c0,0,1.7,2.8-0.2,2.8c-0.8,0-2.1-0.5-4.5-1.8
			c0,0-7.1-3.6-14.2-8.5c-3.9-2.7-7.9-5.8-10.5-8.9c-0.7-0.8-1.5-1.8-2.2-2.7c-3-3.8-6.5-8.6-9.5-13.2c-4.1-6.2-7.5-12.2-8.7-15.7
			c0-0.1-0.1-0.3-0.1-0.4c-1.8-6.5-2.5-15.2,2.4-16.9C35.4,177.2,36.4,177.1,37.4,177.1 M37.4,174.1
			C37.4,174.1,37.4,174.1,37.4,174.1c-1.3,0-2.6,0.2-3.9,0.7c-6.9,2.3-6.8,12.1-4.4,20.6c0,0,0,0.1,0,0.1c0,0.1,0.1,0.2,0.1,0.3
			c0,0,0,0.1,0,0.1c1.5,4.7,6.3,12.3,9,16.5c3.1,4.7,6.5,9.5,9.7,13.4c0.9,1.1,1.6,2,2.3,2.8c2.5,2.9,6.2,6.1,11.1,9.5
			c6.9,4.8,13.7,8.3,14.5,8.7c2.6,1.5,4.5,2.1,5.9,2.1c1.5,0,2.7-0.7,3.4-1.9c0.9-1.5,0.4-3.2-0.1-4.5l0.7-4.4c0.1-0.5,0-1-0.1-1.5
			l-6.5-17.8c-0.2-0.4-0.4-0.8-0.7-1.1l-6-6l-5.9-5.8l-1.6-1.6c-0.4-0.5-3.5-3.9-5.9-7c-0.4-0.5-0.7-0.9-1-1.3
			c-1.9-2.6-4.5-6.6-7-11c-0.5-0.8-1-1.7-1.6-2.7C46.5,177,42.1,174.1,37.4,174.1L37.4,174.1z"/>
	</g>
	<path class="st2" d="M48.3,186.3c-2.7,0.9-5.9,2-9.4,3.5c-2.5,1.1-4.8,2.9-6.8,5c0-0.1-0.1-0.3-0.1-0.4c-1.8-6.5-2.5-15.2,2.4-16.9
		c4.9-1.6,9.5,0.9,12.3,6C47.2,184.4,47.8,185.4,48.3,186.3z"/>
	<path class="st2" d="M64.3,207.9c-1.4,1.4-3.1,2.9-5,4.7c-3.8,3.5-7,8-9.1,11.2c-3-3.8-6.5-8.6-9.5-13.2c2.1-2.6,4.5-5.1,6.5-6.6
		c2.5-1.9,5.6-4.3,8.3-6.4c0.4,0.5,0.7,1,1.1,1.4c2.7,3.5,6.1,7.2,6.1,7.2L64.3,207.9z"/>
	<path class="st2" d="M81.8,242.9c0,0,3.4,5.6-4.6,1.1c0,0-7.1-3.6-14.2-8.5c1.9-6.1,4.8-15.6,7.2-21.7l6,6l6.5,17.8L81.8,242.9z"/>
	<g>
		<path class="st0" d="M127.8,288.2c-0.2,0-0.3,0-0.5,0c-4.2-0.3-6.8-4.8-7.2-9c-0.2-2.2-0.2-5.1-0.2-6.8
			c-3.6-0.8-14.1-3.5-19.6-7.5c-5.1-3.7-24.9-20.7-29.2-35.5c-0.6-2-1.2-4-1.8-6c-3.5-11.6-6.9-22.6-5.9-37.4
			c0.3-4.9,1.2-12.1,2.7-21.4c1.6-10.3,3.5-20.7,4.9-27.6c0.6-3,1.1-5.8,1.7-8.3c0.9-4.3,1.6-7.8,2.1-9.9c0.8-3.5,2.5-9.8,4.4-17.3
			c3.3-12.7,7.8-29.5,10-37c0.8-2.8,1.7-6,2.6-9.2c2.8-10,5.8-20.4,7.4-23.8c0.3-0.6,0.5-1.2,0.8-1.7c1.7-3.6,2.9-6.3,5.6-7.5
			c0.6-0.2,1.2-0.4,1.9-0.4c5.4,0,14.3,8.2,15.3,9.1l8.8,7.7l0,0c1.5-0.3,5-0.9,9.1-1.5c1.2-0.2,5.1-0.8,5.1-0.8
			c1.8-0.3,3.5-0.5,5.2-0.8c1.6-0.2,3-0.4,4.3-0.5c2.2-0.2,4.3-0.4,6-0.6c2.4-0.2,4.3-0.3,5.5-0.4c0.1-0.4,0.3-0.8,0.4-1.4
			c5.7-17.9,8-19.3,8.8-19.7c1.4-0.8,2.8-1.2,4.4-1.2c2.4,0,4.9,1,7.7,3c4,2.9,15.7,14.1,18.9,18l0.3,0.4
			c14.6,17.6,25.8,33.7,31.5,45.3l2.2,4.6c8.2,16.8,16,32.6,19.2,42.8c0.4,1.1,0.8,2.4,1.2,3.7c4,12.3,10.7,32.9,9,52l-0.3,3.6
			c-1.6,18.6-2.4,28.8-9.1,44.1c-7.1,16.3-13.9,29-17.8,33.1c-2.5,2.6-4.1,4.8-4.8,5.8c0.9,1.7,2.9,5.2,3.2,7.4
			c0.5,3.1-1.1,7.3-4,8.2c-0.5,0.2-1.1,0.2-1.7,0.2c-2.6,0-6.1-1.5-7.6-4.5c-1.1-2.1-2.5-5-3.2-6.5c-4.9,0.8-23.8,3.9-31.5,4.3
			c-2.3,0.1-5.9,0.2-10.4,0.2c-10.2,0-25.3-0.4-31.4-1c-6.4-0.6-13.4-1.5-16-1.8c-0.3,0.6-0.6,1.9-1,4.1
			C134.1,285.1,131.7,288.2,127.8,288.2z"/>
		<path class="st1" d="M180.5,13.3c2.1,0,4.3,0.9,6.8,2.7c4,2.8,15.6,14,18.6,17.8c3.1,3.7,22.6,27,31.6,45.4
			c9,18.4,17.9,36.1,21.3,47.2c3.5,11.1,12,34.2,10.2,55.2c-1.8,21-2.3,31.3-9.3,47.2c-6.9,16-13.8,28.7-17.5,32.7
			c-3.7,4-5.5,6.8-5.5,6.8s3.1,5.1,3.5,7.7c0.4,2.6-1,5.9-3,6.6c-0.3,0.1-0.8,0.2-1.2,0.2c-2.1,0-5-1.2-6.3-3.6
			c-1.5-3-3.7-7.5-3.7-7.5s-23.8,4-32.4,4.5c-2.4,0.1-6.1,0.2-10.3,0.2c-10.9,0-25.5-0.4-31.2-1c-8-0.8-17-1.9-17-1.9
			s-0.9,0.8-1.7,5.5c-0.7,4.6-2.4,7.7-5.8,7.7c-0.1,0-0.3,0-0.4,0c-3.6-0.3-5.5-4.5-5.8-7.6c-0.3-3.1-0.1-7.8-0.1-7.8
			s-13.9-2.8-20.2-7.5c-6.3-4.6-24.7-21-28.7-34.7c-4-13.8-8.7-25.9-7.6-42.8c0.4-5.4,1.4-13,2.7-21.3c1.4-9.2,3.2-19.1,4.9-27.5
			c0.6-3,1.1-5.8,1.6-8.3c0.9-4.3,1.6-7.8,2.1-9.9c0.9-3.6,2.5-10,4.4-17.3c3.5-13.4,7.9-29.8,10-37c3.2-11.1,7.9-28.4,9.9-32.8
			c2.1-4.4,3.1-7.3,5.7-8.5c0.4-0.2,0.8-0.2,1.2-0.2c4.9,0,14.3,8.7,14.3,8.7l9.4,8.2c0,0,0.3,0,0.7-0.1c1.5-0.3,5-0.9,9.1-1.5
			c1.6-0.3,3.4-0.5,5.1-0.8c1.8-0.3,3.5-0.5,5.1-0.7c1.4-0.2,2.9-0.4,4.3-0.5c2.1-0.2,4.2-0.4,6-0.6c3.8-0.3,6.5-0.4,6.5-0.4
			s0.3-0.9,0.7-2.4c1.7-5.2,5.7-17.5,8.2-18.9C178.1,13.7,179.3,13.3,180.5,13.3 M180.5,10.3C180.5,10.3,180.5,10.3,180.5,10.3
			c-1.8,0-3.5,0.5-5.1,1.4c-1.2,0.7-3.7,2.1-9.5,20.6c0,0.1-0.1,0.3-0.1,0.4c-1.1,0.1-2.7,0.2-4.5,0.3c-1.8,0.1-3.9,0.3-6.1,0.6
			c-1.3,0.1-2.7,0.3-4.3,0.5c-1.5,0.2-3.1,0.5-5.2,0.8l-1.6,0.2c-1.2,0.2-2.4,0.4-3.6,0.6c-3.3,0.5-6.3,1.1-8.5,1.4l-8.3-7.3
			c-1.8-1.7-10.6-9.5-16.3-9.5c-0.9,0-1.7,0.2-2.5,0.5c-3.3,1.5-4.6,4.5-6.4,8.2c-0.2,0.5-0.5,1.1-0.8,1.7c-1.6,3.5-4.6,13.9-7.4,24
			c-0.9,3.3-1.8,6.4-2.6,9.2c-2.2,7.5-6.7,24.3-10,37.1c-2,7.5-3.6,13.9-4.4,17.4c-0.5,2.2-1.3,5.6-2.2,10c-0.5,2.2-1,4.8-1.7,8.3
			c-1.3,6.9-3.2,17.3-4.9,27.7c-1.5,9.3-2.4,16.5-2.7,21.5c-1,15,2.3,26.1,5.9,37.9c0.6,1.9,1.2,4,1.8,6c4.3,15,23.4,31.7,29.8,36.3
			c5.1,3.8,14.5,6.4,18.9,7.4c0,1.7,0,3.9,0.2,5.7c0.4,4.9,3.5,10,8.6,10.4c0.2,0,0.4,0,0.6,0c3.2,0,7.4-1.8,8.8-10.3
			c0.2-1.2,0.4-2.1,0.6-2.7c3.2,0.4,9.3,1.1,14.8,1.7c6.1,0.6,21.3,1,31.5,1c4.5,0,8.2-0.1,10.5-0.2c7.2-0.4,24.3-3.2,30.5-4.2
			c0.8,1.6,1.9,3.8,2.8,5.5c1.9,3.6,6,5.3,8.9,5.3c0.8,0,1.5-0.1,2.2-0.3c3.6-1.2,5.5-6.2,5-9.9c-0.3-2.1-1.8-5.2-2.9-7.1
			c0.9-1.1,2.2-2.9,4.2-4.9c4-4.3,10.9-17.1,18.1-33.5c6.7-15.5,7.6-25.8,9.2-44.6l0.3-3.6c1.7-19.4-5.1-40.2-9.1-52.6
			c-0.4-1.4-0.8-2.6-1.2-3.7c-3.2-10.4-11-26.2-19.3-43l-2.2-4.6c-5.7-11.7-17-27.9-31.7-45.6l-0.3-0.4c-3.4-4.1-15-15.3-19.2-18.3
			C186,11.4,183.2,10.3,180.5,10.3L180.5,10.3z"/>
	</g>
	<path class="st2" d="M144.8,47.7v4.4l-3.7,2.5l-5.4-4.6l-3.8-9.8c1.5-0.3,5-0.9,9.1-1.5L144.8,47.7z"/>
	<path class="st2" d="M159.7,44.6V47l-5,0.4l-4.1-0.4l-4.4-9.1c1.8-0.3,3.5-0.5,5.1-0.7c1.4-0.2,2.9-0.4,4.3-0.5L159.7,44.6z"/>
	<path class="st2" d="M173.4,41.8v4.4l-2.7-0.1l-5.3-2.4l-3.9-7.8c3.8-0.3,6.5-0.4,6.5-0.4s0.3-0.9,0.7-2.4L173.4,41.8z"/>
	<path class="st2" d="M89.5,117.8c-2.1,12.3-15.3,11.3-15.3,11.3c0.9-4.3,1.6-7.8,2.1-9.9c0.9-3.6,2.5-10,4.4-17.3
		C80.8,101.9,91.6,105.4,89.5,117.8z"/>
	<path class="st2" d="M82.4,153.6c-1.9,10.9-12.2,11.4-14.7,11.3c1.4-9.2,3.2-19.1,4.9-27.5c0.7,0.2,1.2,0.3,1.2,0.3
		S84.6,141.2,82.4,153.6z"/>
	<path class="st3" d="M209.3,57.8c-1.3,4.8-4.2,10.8-11,12.3c-5.4,1.2-11.4-0.8-16-4c-0.7-0.5-1.4-1.1-2.1-1.6
		c-0.3-0.3-0.7-0.6-1-0.9c0,0-0.1-0.1-0.1-0.1c-1.9-1.8-3.9-4.7-5.7-7.4c-2.6-4-4.5-7.8-4.5-7.8s-3.8-0.2-6.9,0.3
		c-3.1,0.5-6.1,1.5-6.1,1.5s1.1,7.8-0.9,13.5c-1.9,5.7-5.1,14.1-13.8,15.4c-4.5,0.7-8.8,0.5-12.4-0.4h0c-1.5-0.4-2.8-0.9-4.1-1.5
		c-0.5-0.2-0.9-0.5-1.3-0.7c-0.9-0.6-1.7-1.2-2.4-1.9c-1.6-1.6-3.3-3.8-4.7-6.1c-2-3.2-3.7-6.7-4.3-9c-1-4-1.3-4.7-0.6-5.8
		c0.7-1.1,2.7-1.3,2.7-1.3s5.3-1,11.8-2.2c4.4-0.8,9.5-1.8,13.9-2.6c0.6-0.1,1.1-0.2,1.6-0.3c2-0.4,3.7-0.7,5.2-0.9h0
		c0.4-0.1,0.8-0.1,1.1-0.2c6.7-1.1,25.1-3.8,34.7-5.2c2.8-0.4,4.9-0.7,5.7-0.8c1-0.1,2.7-0.4,4.7-0.6c0.5-0.1,1.1-0.1,1.6-0.2
		c1.1-0.1,2.1-0.3,3.2-0.4c3.5-0.5,6.6-0.9,6.6-0.9s2.6-1.1,3.6,2.1C208.7,43.4,210.6,52.9,209.3,57.8z"/>
	<path class="st4" d="M139.8,47.7l-16.4,28.8c-0.9-0.6-1.7-1.2-2.4-1.9c-1.6-1.6-3.3-3.8-4.7-6.1l9.6-18.2
		C130.4,49.4,135.4,48.5,139.8,47.7z"/>
	<path class="st4" d="M146.6,46.5l-17.8,32.2h0c-1.5-0.4-2.8-0.9-4.1-1.5l16.7-29.8C143.4,47,145.2,46.7,146.6,46.5z"/>
	<path class="st4" d="M190.5,39.6l-12.1,23.9c-1.7-1.8-3.5-4.7-5-7.4l8-15.1c2.5-0.4,4.3-0.7,5-0.8
		C187.3,40.1,188.8,39.8,190.5,39.6z"/>
	<path class="st4" d="M197.6,39l-15.3,27.2c-0.7-0.5-1.4-1.1-2.1-1.6l14.3-25.2C195.5,39.2,196.5,39.1,197.6,39z"/>
	<path class="st3" d="M162.7,64.9c0-0.1,0.1-0.2,0.1-0.3c0.4-1.4,0-2.9-0.1-4.3c-0.1-1.4-0.7-5.1,1.9-4.9c2,0.2,1.9,3.3,2.3,4.7
		c0.4,1.6,1.6,2.5,2.9,3.3c1.2,0.7,3.3,1.3,3.8,2.9c0.7,2.2-1.2,2.9-2.9,2.1c-1.4-0.6-2.7-1.6-4.1-2.2c-1.1,1.4-1.6,3.1-3.1,4.1
		c-1.1,0.8-3.3,0.4-3.7-1.1C159.3,67.3,162.1,66.4,162.7,64.9z"/>
	<path class="st5" d="M241.4,35.8c-9-1.4-17.8,2.4-24.3,8.5"/>
	<path class="st5" d="M223,51.5c0,0,5.3-3,11.8-2.9s12.2,1.4,12.2,1.4"/>
	<path class="st5" d="M66.3,75.3c10.7-3.2,22-4.6,33.2-3.9"/>
	<path class="st5" d="M67.5,56.7c12.4,0,24,0.3,35.8,4.4"/>
	<path class="st6" d="M164.3,106.7c4.1-3.7,12.6-7.7,17.8-4.1c4.5,3.1,2.9,9.5-1.3,12c-3.7,2.2-8.9,1.4-13,1.4"/>
	<path class="st6" d="M196.7,110.5c-5.5-1.2-14.3-3-17.8,3c-2.8,4.9,1.5,9.7,6.5,9.9c4.1,0.2,7.7-2,11.1-4"/>
</g>
</svg>
