<?xml version="1.0" encoding="utf-8"?>
<!-- Generator: Adobe Illustrator 23.0.5, SVG Export Plug-In . SVG Version: 6.00 Build 0)  -->
<svg version="1.1" id="Слой_1" xmlns="http://www.w3.org/2000/svg" xmlns:xlink="http://www.w3.org/1999/xlink" x="0px" y="0px"
	 viewBox="0 0 300 300" style="enable-background:new 0 0 300 300;" xml:space="preserve">
<style type="text/css">
	.st0{fill:url(#SVGID_1_);}
	.st1{fill:url(#SVGID_2_);}
	.st2{fill:#562600;}
	.st3{fill:#74665A;}
	.st4{fill:#FF545B;}
	.st5{fill:#FFFFFF;}
	.st6{fill:#CE700A;}
	.st7{fill:#FFBE34;}
</style>
<g>
	<linearGradient id="SVGID_1_" gradientUnits="userSpaceOnUse" x1="149.9998" y1="189.2802" x2="149.9998" y2="25.1936">
		<stop  offset="5.586592e-03" style="stop-color:#FFFFFF"/>
		<stop  offset="1" style="stop-color:#FF87FD"/>
	</linearGradient>
	<path class="st0" d="M273.1,150c0,19.7-4.7,38.8-13.6,55.8c-5.8,11.1-13.3,21.3-22.4,30.3c-23.3,23-54.2,35.7-87,35.7
		s-63.8-12.7-87-35.7c-8.2-8.1-15.1-17.2-20.6-27C32.3,191.3,26.9,171,26.9,150c0-32.5,12.8-63.1,36.1-86.1
		c23.3-23,54.2-35.7,87-35.7s63.8,12.7,87,35.7C260.3,86.9,273.1,117.5,273.1,150z"/>
	<g>
		<linearGradient id="SVGID_2_" gradientUnits="userSpaceOnUse" x1="151.0301" y1="267.7588" x2="150.7673" y2="141.345">
			<stop  offset="5.586592e-03" style="stop-color:#E7E2DD"/>
			<stop  offset="1" style="stop-color:#C7B8AD"/>
		</linearGradient>
		<path class="st1" d="M259.5,205.8c-5.8,11.1-13.3,21.3-22.4,30.3c-23.3,23-54.2,35.7-87,35.7s-63.8-12.7-87-35.7
			c-8.2-8.1-15.1-17.2-20.6-27c0.6-1.3,1-2.1,1-2.1s10.1-33.8,13.1-42.4c3-8.6,12.7-34,17.7-43.8S88.3,93.5,92,91
			c3.7-2.5,8.5-1.2,10.1,1c1.6,2.3,17.4,27.9,18.8,28.4c0.3,0.1,1.8,0.2,4.2,0.3c2.9,0.1,7.1,0.2,11.7,0.3c2.7,0,5.6,0.1,8.4,0.1
			c4.1,0,8.2,0.1,11.7,0.1c3.5,0,6.5,0,8.4,0c1,0,1.8,0,2.1,0c2.1-0.1,6.3,0.2,9.5,0.2c2.1,0,3.8-0.1,4.3-0.5
			c1.1-1,16.3-24.7,20.2-27.2c3.9-2.4,8.3-3.8,11-0.7c2.7,3.2,19.1,34.2,22.5,43.8c3.4,9.6,17.7,47.1,19.8,54.1
			C255.6,193.6,257.5,199.6,259.5,205.8z"/>
		<path class="st2" d="M96.6,89.7c2.4,0,4.6,1,5.6,2.4c1.6,2.3,17.4,27.9,18.8,28.4c0.3,0.1,1.8,0.2,4.2,0.3
			c2.9,0.1,7.1,0.2,11.7,0.3c2.7,0,5.6,0.1,8.4,0.1c4.1,0,8.2,0.1,11.7,0.1c2.3,0,4.3,0,6,0c0.9,0,1.7,0,2.4,0c1,0,1.8,0,2.1,0
			c0.3,0,0.7,0,1.2,0c2.3,0,5.7,0.2,8.4,0.2c0,0,0.1,0,0.1,0c2.1,0,3.7-0.1,4.1-0.5c1.1-1,16.3-24.7,20.2-27.2
			c2.3-1.4,4.8-2.5,7-2.5c1.5,0,2.9,0.5,4,1.8c2.7,3.2,19.1,34.2,22.5,43.8c3.4,9.6,17.7,47.1,19.8,54.1c0.8,2.7,2.7,8.7,4.8,14.9
			c-5.8,11.1-13.3,21.3-22.4,30.3c-23.3,23-54.2,35.7-87,35.7c-32.9,0-63.8-12.7-87-35.7c-8.2-8.1-15.1-17.2-20.6-27
			c0.6-1.3,1-2.1,1-2.1s10.1-33.8,13.1-42.4c3-8.6,12.7-34,17.7-43.8C79.1,111,88.3,93.5,92,91C93.5,90.1,95.1,89.7,96.6,89.7
			 M96.6,85.6c-2.5,0-4.8,0.7-6.9,2c-1.4,0.9-5.2,3.4-19.3,31.4c-5.1,10.1-15,35.9-17.9,44.3c-2.9,8.2-12,38.6-13.1,42.3
			c-0.2,0.3-0.5,1-0.9,1.8c-0.6,1.2-0.5,2.6,0.1,3.8c5.7,10.2,12.9,19.6,21.3,27.9c24,23.8,56,36.9,90,36.9c34,0,65.9-13.1,90-36.9
			c9.4-9.3,17.2-19.8,23.2-31.4c0.5-1,0.6-2.1,0.3-3.1c-2.2-6.8-4-12.3-4.7-14.8c-1.3-4.3-6.7-18.6-11.9-32.6
			c-3.4-9.2-6.7-17.8-8-21.7c-3.3-9.4-19.9-41.1-23.2-45.1c-1.8-2.2-4.3-3.3-7.2-3.3c-2.8,0-5.9,1.1-9.2,3.2c-3,1.9-8.3,9.2-17.7,23
			c-1,1.5-2.1,3-2.7,4c-0.4,0-0.9,0-1.7,0l-0.1,0c-1.3,0-2.9-0.1-4.4-0.1c-1.5,0-2.9-0.1-4-0.1c-0.5,0-1,0-1.4,0c-0.1,0-0.6,0-2,0
			c-0.7,0-1.5,0-2.4,0c-1.7,0-3.7,0-6,0c-4.1,0-8.1-0.1-11.7-0.1c-3,0-5.8-0.1-8.4-0.1c-5-0.1-8.9-0.2-11.6-0.3
			c-1.1,0-1.8-0.1-2.4-0.1c-2.6-3.5-10-15.3-13.4-20.6c-2.3-3.6-3.5-5.5-4-6.2C103.7,87.2,100.3,85.6,96.6,85.6L96.6,85.6z"/>
	</g>
	<g>
		<path class="st3" d="M136.8,121.2v7.5c0,0-2.1,4.9-6.4,4.9c-4.2,0-5.3-5.3-5.3-5.3V121C128.1,121.1,132.2,121.2,136.8,121.2z"/>
	</g>
	<g>
		<path class="st3" d="M156.9,121.2v7.3c0,0-2.1,4.9-6.4,4.9s-5.3-5.3-5.3-5.3v-7.1C149.3,121.1,153.4,121.2,156.9,121.2z"/>
	</g>
	<g>
		<path class="st3" d="M177,121.3v7.2c0,0-2.1,4.9-6.4,4.9c-4.2,0-5.3-5.3-5.3-5.3v-7"/>
	</g>
	<g>
		<path class="st2" d="M232.4,151.6c-1.1,0-2.1-0.7-2.5-1.7c-0.5-1.3,0.2-2.8,1.6-3.3c0.4-0.1,10-3.5,17.6-4.7
			c7.6-1.2,13.4-1.1,13.6-1.1c1.4,0,2.6,1.2,2.5,2.7c0,1.4-1.2,2.5-2.7,2.5c-0.1,0-5.5-0.1-12.6,1c-7.1,1.2-16.6,4.5-16.7,4.5
			C233,151.6,232.7,151.6,232.4,151.6z"/>
	</g>
	<g>
		<path class="st2" d="M264.3,163.9c-0.3,0-0.7-0.1-1-0.2c0,0-4.8-1.9-11.2-2.3c-6.5-0.3-17,1.6-17.1,1.6c-1.4,0.3-2.8-0.7-3-2.1
			c-0.3-1.4,0.7-2.7,2.1-3c0.5-0.1,11.2-2,18.3-1.7c7.3,0.4,12.7,2.6,12.9,2.6c1.3,0.5,2,2,1.4,3.4
			C266.3,163.3,265.3,163.9,264.3,163.9z"/>
	</g>
	<g>
		<path class="st2" d="M69.4,150.6c-0.3,0-0.7-0.1-1-0.2c-0.1,0-10.4-4.4-15.2-5.2c-4.7-0.8-13,0-13.1,0c-1.4,0.1-2.7-0.9-2.9-2.3
			c-0.1-1.4,0.9-2.7,2.3-2.8c0.4,0,9.1-0.9,14.5,0c5.4,0.9,15.9,5.3,16.3,5.5c1.3,0.6,1.9,2.1,1.4,3.4
			C71.3,150,70.4,150.6,69.4,150.6z"/>
	</g>
	<g>
		<path class="st2" d="M38,163.9c-1,0-1.9-0.5-2.3-1.5c-0.6-1.3-0.1-2.8,1.2-3.4c0.4-0.2,9.2-4.3,15.9-4.3c0,0,0.1,0,0.1,0
			c6.4,0.1,14.7,2,15.1,2.1c1.4,0.3,2.3,1.7,1.9,3.1c-0.3,1.4-1.7,2.2-3.1,1.9c-0.1,0-8.1-1.9-13.9-1.9c0,0-0.1,0-0.1,0
			c-4.6,0-11.4,2.7-13.6,3.8C38.8,163.8,38.4,163.9,38,163.9z"/>
	</g>
	<g>
		<path class="st2" d="M147.5,225.2c-0.3,0-0.7,0-1,0c-3.3-0.2-6.4-1.5-9.8-4.1c-0.5-0.4-1.1-0.9-1.6-1.4c-0.9-0.8-3.3-3.1-4.1-2.7
			c-1,0.5-2.3,0.2-2.8-0.9c-0.5-1-0.2-2.3,0.9-2.8c3.4-1.8,6.7,1.3,8.9,3.3c0.5,0.5,1,0.9,1.3,1.2c2.7,2.1,5.1,3.1,7.6,3.3
			c1.5,0.1,2.9-0.1,4.1-0.6c1.1-0.4,2.3,0,2.7,1.1c0.4,1,0,2.3-1.1,2.7C150.9,224.9,149.3,225.2,147.5,225.2z"/>
	</g>
	<g>
		<path class="st2" d="M153.8,206c-0.6,0-1.2-0.3-1.6-0.8c-5.3-6.4-15.6-6.4-23.1-3.1c-1,0.5-2.3,0-2.8-1c-0.5-1,0-2.3,1-2.7
			c8.6-3.9,21.1-4.2,28,4.2c0.7,0.9,0.6,2.2-0.3,2.9C154.7,205.8,154.3,206,153.8,206z"/>
	</g>
	<g>
		<path class="st2" d="M156.3,225.2c-2.7,0-4.4-1.2-5.4-2.2c-2.8-2.8-3.5-7.3-2.1-13c0.9-3.5,3.1-6.4,6.4-8.4
			c6.1-3.6,14.1-3.3,19.2-2.1c1.1,0.3,1.8,1.4,1.5,2.5s-1.4,1.8-2.5,1.5c-4.6-1.2-11.3-1.1-16,1.6c-2.4,1.4-3.9,3.4-4.5,5.8
			c-0.6,2.4-1.3,6.9,1,9.1c1.6,1.6,4.3,1.3,8-1.1c0.8-0.5,1.7-1.4,2.7-2.3c2.3-2.2,4.8-4.6,8.4-4.5c1.1,0,2,1,2,2.1c0,1.1-1,2-2.1,2
			c-1.8-0.1-3.5,1.6-5.3,3.3c-1,1-2.1,2-3.3,2.8C160.9,224.5,158.3,225.2,156.3,225.2z"/>
	</g>
	<g>
		<path class="st4" d="M141,166.3c-0.1,3.1,2.4,5.9,6.1,7.1c3.7,1.2,8.3,0.6,11.2-1.6c2.1-1.7,3.2-3.8,3.9-6"/>
		<path class="st2" d="M151.2,177.6c-1.8,0-3.5-0.3-5.2-0.8c-5.4-1.8-8.8-6-8.6-10.6c0.1-2,1.7-3.6,3.8-3.5c2,0.1,3.6,1.7,3.5,3.7
			c0,1.4,1.5,2.8,3.6,3.6c2.6,0.9,5.9,0.4,7.8-1c1.3-1,2.1-2.2,2.7-4.2c0.6-1.9,2.6-3,4.5-2.4c1.9,0.6,3,2.6,2.5,4.5
			c-0.6,2.2-1.9,5.3-5.2,7.9C158.1,176.6,154.6,177.6,151.2,177.6z"/>
	</g>
	<g>
		<g>
			<ellipse class="st2" cx="196.9" cy="155.9" rx="13.3" ry="13.1"/>
		</g>
		<g>
			<path class="st5" d="M191.2,148.2c-0.8,1.2-1.2,2.5-0.9,3.8c0.5,2.2,2.4,3.3,4.6,3.2c2.1-0.1,4.5-0.9,6-2.5
				c1.4-1.6,2.1-4.5,0.9-6.4C199.5,142.7,193.6,144.9,191.2,148.2z"/>
		</g>
		<g>
			<path class="st5" d="M202.3,153.6c0.4,0.5,1.2,0.6,1.8,0.5c0.6-0.2,1.2-0.6,1.6-1.1c0.3-0.4,0.6-0.8,0.7-1.2
				c0.1-0.5,0.1-1-0.1-1.4C204.8,148,200.6,151.6,202.3,153.6z"/>
		</g>
		<g>
			<path class="st5" d="M203.5,147.2c-0.5,0.1-0.8,0.8-0.6,1.2c0.2,0.5,0.8,0.7,1.3,0.5c0.6-0.2,0.9-1,0.5-1.5
				c-0.4-0.5-1.3-0.5-1.6,0"/>
		</g>
		<g>
			<path class="st6" d="M193.2,165.9c1.5,0.7,3.1,1,4.8,1c2.9-0.1,5.6-1.3,7.6-3.3c0.8-0.7,2.9-2.8,1.9-4c-0.8-1-2.2,0.8-2.7,1.3
				c-1.1,1.1-2.2,2.1-3.9,1.9c-1.6-0.2-3.1-0.5-4.7-0.6c-1.3-0.1-2.5,0-3.8,0.1c-1,0.1-2.9,0.3-1.8,1.6c0.6,0.8,1.6,1.4,2.5,1.8
				C193,165.8,193.1,165.8,193.2,165.9z"/>
		</g>
		<g>
			<path class="st7" d="M204.7,161.9c0.1-0.1,0.2-0.1,0.3-0.1c0.1,0,0.2,0.2,0.2,0.3c0,0.8-0.8,1.5-1.5,1.9c-0.6,0.3-1.7,1.1-2.4,1
				c-0.5-0.1-1.2-0.6-0.8-1.2c0.3-0.5,1.7-0.3,2.2-0.5C203.3,163.1,204,162.5,204.7,161.9z"/>
		</g>
	</g>
	<g>
		<path class="st4" d="M155,166.3c0.4-0.6,0.6-1.5,0.3-2.2c-0.2-0.4-0.5-0.8-0.8-1.1c-1.4-1.2-2.8-1.3-4.1-0.1
			c-0.8,0.8-2,1.6-1.8,2.9C148.9,169,153.6,168.3,155,166.3z"/>
	</g>
	<g>
		<g>
			<ellipse class="st2" cx="106.2" cy="155.9" rx="13.3" ry="13.1"/>
		</g>
		<g>
			<path class="st5" d="M100.6,148.2c-0.8,1.2-1.2,2.5-0.9,3.8c0.5,2.2,2.4,3.3,4.6,3.2c2.1-0.1,4.5-0.9,6-2.5
				c1.4-1.6,2.1-4.5,0.9-6.4C108.9,142.7,103,144.9,100.6,148.2z"/>
		</g>
		<g>
			<path class="st5" d="M111.6,153.6c0.4,0.5,1.2,0.6,1.8,0.5c0.6-0.2,1.2-0.6,1.6-1.1c0.3-0.4,0.6-0.8,0.7-1.2
				c0.1-0.5,0.1-1-0.1-1.4C114.1,148,110,151.6,111.6,153.6z"/>
		</g>
		<g>
			<path class="st5" d="M112.8,147.2c-0.5,0.1-0.8,0.8-0.6,1.2s0.8,0.7,1.3,0.5c0.6-0.2,0.9-1,0.5-1.5c-0.4-0.5-1.3-0.5-1.6,0"/>
		</g>
		<g>
			<path class="st6" d="M102.5,165.9c1.5,0.7,3.1,1,4.8,1c2.9-0.1,5.6-1.3,7.6-3.3c0.8-0.7,2.9-2.8,1.9-4c-0.8-1-2.2,0.8-2.7,1.3
				c-1.1,1.1-2.2,2.1-3.9,1.9c-1.6-0.2-3.1-0.5-4.7-0.6c-1.3-0.1-2.5,0-3.8,0.1c-1,0.1-2.9,0.3-1.8,1.6c0.6,0.8,1.6,1.4,2.5,1.8
				C102.4,165.8,102.4,165.8,102.5,165.9z"/>
		</g>
		<g>
			<path class="st7" d="M114,161.9c0.1-0.1,0.2-0.1,0.3-0.1c0.1,0,0.2,0.2,0.2,0.3c0,0.8-0.8,1.5-1.5,1.9c-0.6,0.3-1.7,1.1-2.4,1
				c-0.5-0.1-1.2-0.6-0.8-1.2c0.3-0.5,1.7-0.3,2.2-0.5C112.7,163.1,113.4,162.5,114,161.9z"/>
		</g>
	</g>
	<g>
		<path class="st2" d="M140.9,169.8c-5.8,0-11.2-3.8-12.6-9.2c-0.5-1.9,0.6-3.9,2.6-4.4c1.9-0.5,3.9,0.6,4.5,2.5
			c0.6,2.4,3.6,4.2,6.3,3.8c3.1-0.4,5.5-2.3,6.4-5c0.5-1.5,1.9-2.5,3.4-2.5c0,0,0,0,0,0c1.6,0,3,1,3.5,2.5c0.9,2.7,3.7,4.1,6,4.4
			c2.7,0.4,5.6-0.9,7.1-3.2c1.1-1.7,3.4-2.1,5.1-1c1.7,1.1,2.1,3.3,1,5c-3.1,4.5-8.7,7-14.2,6.3c-3.3-0.4-6.2-1.8-8.4-3.8
			c-2.4,2.4-5.6,4.1-9.2,4.5C141.9,169.7,141.4,169.8,140.9,169.8z"/>
	</g>
	<path class="st5" d="M150,20.5c-72.3,0-130.9,58-130.9,129.5S77.7,279.5,150,279.5c72.3,0,130.9-58,130.9-129.5
		S222.3,20.5,150,20.5z M237,236.1c-23.3,23-54.2,35.7-87,35.7s-63.8-12.7-87-35.7c-8.2-8.1-15.1-17.2-20.6-27
		C32.3,191.3,26.9,171,26.9,150c0-32.5,12.8-63.1,36.1-86.1c23.3-23,54.2-35.7,87-35.7s63.8,12.7,87,35.7
		c23.2,23,36.1,53.6,36.1,86.1c0,19.7-4.7,38.8-13.6,55.8C253.7,216.9,246.2,227.1,237,236.1z"/>
</g>
</svg>
