<?xml version="1.0" encoding="utf-8"?>
<!-- Generator: Adobe Illustrator 23.0.5, SVG Export Plug-In . SVG Version: 6.00 Build 0)  -->
<svg version="1.1" id="Слой_1" xmlns="http://www.w3.org/2000/svg" xmlns:xlink="http://www.w3.org/1999/xlink" x="0px" y="0px"
	 viewBox="0 0 300 300" style="enable-background:new 0 0 300 300;" xml:space="preserve">
<style type="text/css">
	.st0{fill:#C1AD9F;}
	.st1{fill:#562600;}
	.st2{fill:#6F5444;}
	.st3{fill:#D562EA;}
	.st4{fill:#CD4CE7;}
</style>
<g>
	<g>
		<g>
			<path class="st0" d="M141.2,282.1c-7.9,0-13.4-1-16.7-3.2c-0.5-0.3-1-0.7-1.6-1c-4-2.6-7.8-5-10.1-9.8
				c-3.6-7.5-2.9-16.5-2.4-24.5c0-0.7,0.1-1.4,0.1-2.1c0.7-11.1,4-21.6,7.4-31.4c0.2-0.6,0.4-1.1,0.6-1.7c0.8-2.4,1.6-4.8,2.8-7
				c0.4-0.8,0.8-1.7,1.3-2.6c1.9-4,3.6-7.5,6.2-7.5c0,0,0.1,0,0.1,0c2.3,0.1,5.5,4.2,8,8c0.7,0,1.9,0,3.2,0c0.3,0,2,0,2,0l3.9,0
				c0.6,0,1.3,0,1.9,0c0,0,2.7,0,3.4,0c0.4-0.7,0.9-1.7,1.1-2.2c0.2-0.4,0.4-0.8,0.5-0.9l0.2-0.3c1-1.8,2.8-4.7,5.4-4.7
				c2.3,0,3.9,2.2,5,3.7l0.3,0.4c2.4,3.3,4.5,6.8,6.5,10.2c2.1,3.6,4.3,7.3,6.8,10.6c0.4,0.5,0.9,1.1,1.3,1.6
				c0.5,0.6,0.9,1.2,1.4,1.7c2,2.4,4,4.9,5.7,7.6c0.5,0.8,1,1.6,1.5,2.5c0.1,0.3,0.3,0.5,0.4,0.8c2.1,3.9,3.6,8,4.3,12.2
				c0.2,0.9,0.3,1.6,0.4,2.4c0.8,6.4,0.1,13.1-1.9,19.5l-0.1,0.4c-1,3.1-2.3,7.3-5.2,9.4c-3.2,2.4-28.4,7.1-31.8,7.3
				c-0.4,0-0.9,0.1-1.7,0.1C149.2,281.8,145.3,282.1,141.2,282.1z"/>
		</g>
		<g>
			<path class="st1" d="M128.9,192.8C128.9,192.8,129,192.8,128.9,192.8c2.1,0.1,7.2,8,7.2,8s0.1,0,0.2,0c0.5,0,2,0,3.9,0
				c0.6,0,1.3,0,2,0c1.3,0,2.6,0,3.9,0c0.7,0,1.4,0,2,0c1.8,0,3.3,0,3.8,0c0.1,0,0.2,0,0.2,0c0.3,0,1.9-3.5,2.2-3.9
				c0.8-1.3,2.3-4.2,4.2-4.2c1.6,0,3.1,2.3,4,3.4c4.9,6.6,8.3,14.3,13.3,20.8c0.4,0.6,0.9,1.1,1.3,1.6c2.4,3,4.9,6,7.1,9.2
				c0.5,0.8,1,1.6,1.5,2.4c0.1,0.2,0.3,0.5,0.4,0.7c2,3.7,3.4,7.7,4.2,11.8c0.1,0.8,0.3,1.5,0.4,2.3c0.8,6.3,0.1,12.8-1.8,18.8
				c-0.9,2.9-2.1,7.1-4.7,9c-2.7,2-27.5,6.8-31,7c-1.7,0.1-6.5,0.6-11.9,0.6c-5.8,0-12.2-0.6-15.8-2.9c-4.4-2.9-8.7-5.2-11.1-10.1
				c-3.7-7.8-2.6-17.5-2.1-25.8c0.7-10.7,3.8-20.9,7.3-30.9c1-2.8,1.9-5.9,3.3-8.6C124.6,198.8,126.9,192.8,128.9,192.8
				 M128.9,189.6c-3.6,0-5.6,4.1-7.6,8.4c-0.5,0.9-0.9,1.8-1.3,2.6c-1.3,2.4-2.1,4.9-2.9,7.3c-0.2,0.6-0.4,1.1-0.6,1.7
				c-3.4,9.8-6.7,20.5-7.5,31.8c0,0.7-0.1,1.4-0.1,2.1c-0.6,8.2-1.2,17.4,2.5,25.3c2.5,5.2,6.6,7.9,10.6,10.4c0.5,0.3,1,0.7,1.6,1
				c3.5,2.3,9.3,3.5,17.6,3.5c4.2,0,8.1-0.3,10.5-0.5c0.7-0.1,1.3-0.1,1.6-0.1c2.2-0.1,10-1.6,16.3-2.9c14.1-3,15.7-4.2,16.4-4.7
				c3.3-2.5,4.7-6.9,5.8-10.2l0.1-0.4c2.1-6.6,2.7-13.6,1.9-20.2c-0.1-0.8-0.2-1.6-0.4-2.5c-0.8-4.4-2.3-8.6-4.5-12.7
				c-0.2-0.3-0.3-0.5-0.4-0.8c-0.5-0.9-1.1-1.8-1.6-2.6c-1.8-2.7-3.8-5.3-5.8-7.7c-0.5-0.6-0.9-1.2-1.4-1.7
				c-0.4-0.5-0.8-1.1-1.3-1.6c-2.5-3.2-4.5-6.7-6.7-10.4c-2-3.4-4.1-7-6.6-10.3c-0.1-0.1-0.2-0.2-0.3-0.3c-1.2-1.6-3.2-4.4-6.3-4.4
				c-3.5,0-5.7,3.6-6.8,5.5l-0.1,0.2c-0.1,0.2-0.2,0.5-0.5,1c-0.1,0.3-0.4,0.8-0.7,1.3c-0.6,0-1.4,0-2.3,0l-0.1,0
				c-0.6,0-1.2,0-1.9,0c-0.6,0-1.3,0-1.9,0c-0.7,0-1.3,0-1.9,0c-0.3,0-0.6,0-1,0c-0.4,0-0.7,0-1,0c0,0,0,0,0,0c-0.9,0-1.7,0-2.4,0
				c-0.5-0.8-1.2-1.7-2-2.7c-2.9-3.7-4.7-5.2-6.7-5.3C129.1,189.6,129,189.6,128.9,189.6L128.9,189.6z"/>
		</g>
	</g>
	<g>
		<path class="st1" d="M141.5,210.4c0,0,0.1-3.5,2.1-3.3c2,0.3,2.2,2.8,2.2,2.8s3.7,2.4,2.6,4c-1.1,1.5-4.3,0-4.3,0
			s-3.5,2.3-4.4,0.7C138.8,213,141.5,210.4,141.5,210.4z"/>
	</g>
	<g>
		<path class="st2" d="M140.2,200.8c-0.1,1.4-0.6,2.9-1.8,2.9c-1.2,0-1.8-1.4-2.1-2.9C136.9,200.8,138.4,200.8,140.2,200.8z"/>
	</g>
	<g>
		<path class="st2" d="M146.1,200.9c-0.1,1.4-0.6,2.8-1.8,2.8c-1.2,0-1.7-1.4-2-2.8C143.5,200.8,144.8,200.9,146.1,200.9z"/>
	</g>
	<g>
		<path class="st2" d="M151.9,200.9c-0.1,1.4-0.6,2.7-1.8,2.7c-1.1,0-1.7-1.3-2-2.8C149.9,200.9,151.4,200.9,151.9,200.9z"/>
	</g>
	<g>
		<path class="st2" d="M184.2,227.9c-2,0.4-4,0.6-5.2,0.4c-2.7-0.5-4.2-3.7-3.3-7.2c0.2-0.9,0.8-1.7,1.5-2.5
			C179.5,221.7,182,224.6,184.2,227.9z"/>
	</g>
	<g>
		<path class="st2" d="M190.2,242.8c-3.1,0.1-6.3-0.5-7.5-3.5c-0.8-2.1-0.7-4.9,1-6.5c0.7-0.7,1.5-1.2,2.3-1.7
			C188,234.7,189.5,238.7,190.2,242.8z"/>
	</g>
	<g>
		<path class="st1" d="M118.8,208.9c-0.5,0-1-0.2-1.4-0.6c-2.9-3.1-6.8-4.8-12.4-5.3c-1-0.1-1.8-1-1.7-2c0.1-1,1-1.8,2-1.7
			c6.4,0.5,11.3,2.6,14.8,6.5c0.7,0.8,0.7,1.9-0.1,2.6C119.7,208.8,119.3,208.9,118.8,208.9z"/>
	</g>
	<g>
		<path class="st1" d="M116.7,213c-0.3,0-0.6-0.1-0.9-0.3c-3-1.8-6.7-2.4-11.3-1.8c-1,0.1-2-0.6-2.1-1.6c-0.1-1,0.6-2,1.6-2.1
			c5.4-0.7,9.9,0.1,13.7,2.3c0.9,0.5,1.2,1.7,0.7,2.5C117.9,212.6,117.3,213,116.7,213z"/>
	</g>
	<g>
		<path class="st1" d="M166,207.1c-0.7,0-1.3-0.4-1.6-1c-0.5-0.9-0.2-2,0.7-2.5c4.4-2.4,8.8-3.7,14.4-4.3c1-0.1,1.9,0.6,2,1.7
			c0.1,1-0.6,1.9-1.7,2c-5.1,0.5-9.1,1.7-13,3.9C166.6,207.1,166.3,207.1,166,207.1z"/>
	</g>
	<g>
		<path class="st1" d="M169.3,213c-0.6,0-1.2-0.3-1.5-0.8c-0.6-0.8-0.4-2,0.4-2.6c3.6-2.5,8-3.6,13.1-3.2c1,0.1,1.8,1,1.7,2
			c-0.1,1-1,1.8-2,1.7c-4.2-0.3-7.8,0.5-10.6,2.5C170,212.9,169.7,213,169.3,213z"/>
	</g>
	<g>
		<circle class="st1" cx="130.7" cy="210.1" r="2.6"/>
	</g>
	<g>
		<circle class="st1" cx="157.1" cy="210.1" r="2.6"/>
	</g>
	<g>
		<path class="st0" d="M129.4,277c0.4,2.6,1.6,8.7,5.2,8.3c4-0.4,3.3-5.7,2.6-8.4"/>
		<path class="st1" d="M134.2,286.9c-4.8,0-6-6.9-6.4-9.6c-0.1-0.9,0.4-1.7,1.3-1.8c0.9-0.1,1.7,0.4,1.8,1.3c1,5.9,2.5,7.1,3.5,6.9
			c0.7-0.1,1.1-0.4,1.2-0.7c0.7-1,0.7-3.2,0-5.8c-0.2-0.9,0.3-1.7,1.1-1.9c0.9-0.2,1.7,0.3,1.9,1.1c0.5,2.1,1.2,6-0.5,8.4
			c-0.8,1.2-2,1.8-3.5,2C134.6,286.9,134.4,286.9,134.2,286.9z"/>
	</g>
	<g>
		<path class="st0" d="M143.4,277.6c-0.1,2.9,0.4,7.7,4.3,7.9c4.3,0.2,4-5.4,3.5-8.2c0-0.1-0.2-0.3-0.2-0.1"/>
		<path class="st1" d="M147.9,287.1c-0.1,0-0.2,0-0.3,0c-3.8-0.2-6-3.7-5.8-9.5c0-0.9,0.8-1.6,1.7-1.5c0.9,0,1.6,0.8,1.5,1.7
			c-0.1,1.8,0.1,6.1,2.7,6.2c0.8,0,1.1-0.2,1.4-0.5c0.8-0.9,0.9-3.2,0.6-5.2c-0.3-0.4-0.4-1-0.3-1.5c0.2-0.7,0.9-1.2,1.7-1.2
			c0.8,0.1,1.5,0.7,1.6,1.5c0.3,1.7,0.8,6.1-1.3,8.5C150.8,286.3,149.7,287.1,147.9,287.1z M149.6,277.6
			C149.6,277.6,149.6,277.6,149.6,277.6C149.6,277.6,149.6,277.6,149.6,277.6z"/>
	</g>
	<g>
		<path class="st0" d="M185.5,272.3c-0.9,1.6-2.1,3-3.5,4.2c-1.5,1.3-3.3,2.5-5.1,3.4c-0.8,0.4-1.7,0.8-2.5,1.2
			c-1.5,0.6-3,1.2-4.5,1.6c-2.4,0.7-4.9,1.1-7.3,1c-0.1,0-0.2,0-0.3,0c-1.4-0.1-2.7-0.3-3.9-1c-1.2-0.7-2.1-1.8-2.4-3.1
			c-0.2-1.4,0.5-3,1.7-3.8c0.9-0.7,2-1,3.1-1.3c0.2-0.1,0.4-0.1,0.7-0.2c1.8-0.4,3.7-0.8,5.6-1.1c1.9-0.4,3.7-0.8,5.5-1.3
			c1.5-0.4,2.9-0.9,4.2-1.6c0.5-0.2,0.9-0.5,1.4-0.7"/>
		<path class="st1" d="M163.3,284.5c-0.3,0-0.6,0-0.9,0c0,0-0.1,0-0.2,0l-0.1,0c-1.8-0.1-3.1-0.5-4.3-1.1c-1.5-0.8-2.5-2.2-2.8-3.7
			c-0.3-1.7,0.5-3.5,2-4.6c1-0.8,2.3-1.1,3.4-1.4c0.2-0.1,0.4-0.1,0.7-0.2c1.4-0.3,2.9-0.6,4.3-0.9l1.3-0.3c1.7-0.3,3.6-0.7,5.5-1.3
			c1.5-0.4,2.9-1,4.1-1.6c0.4-0.2,0.9-0.4,1.3-0.7c0.4-0.2,0.9-0.1,1.1,0.3c0.2,0.4,0.1,0.9-0.3,1.1c-0.5,0.3-0.9,0.5-1.4,0.8
			c-1.3,0.6-2.7,1.2-4.3,1.6c-1.9,0.6-3.9,1-5.6,1.3l-1.3,0.3c-1.4,0.3-2.8,0.5-4.2,0.9c-0.2,0-0.4,0.1-0.6,0.2
			c-1,0.2-2,0.5-2.8,1.1c-1,0.7-1.5,2-1.3,3.1c0.2,1,0.9,2,2,2.6c0.9,0.5,2,0.8,3.6,0.9l0.1,0c0.1,0,0.1,0,0.2,0
			c2.2,0.1,4.6-0.2,7.1-0.9c1.4-0.4,2.9-0.9,4.4-1.6c0.9-0.4,1.7-0.8,2.5-1.2c1.9-1,3.6-2.1,4.9-3.3c1.4-1.2,2.5-2.6,3.3-4
			c0.2-0.4,0.7-0.5,1.1-0.3c0.4,0.2,0.5,0.7,0.3,1.1c-0.9,1.6-2.1,3.1-3.6,4.4c-1.4,1.3-3.2,2.5-5.3,3.5c-0.8,0.4-1.7,0.8-2.6,1.2
			c-1.7,0.7-3.2,1.3-4.6,1.7C167.7,284.2,165.5,284.5,163.3,284.5z"/>
	</g>
	<g>
		<path class="st2" d="M162.5,283.7c-0.1,0-0.2,0-0.3,0c-1.4-0.1-2.7-0.3-3.9-1c-1.2-0.7-2.1-1.8-2.4-3.1c-0.2-1.4,0.5-3,1.7-3.8
			c0.9-0.7,2-1,3.1-1.3c0.2-0.1,0.4-0.1,0.7-0.2c0.1,0.5,0.1,1,0.2,1.4c0.3,1.6,0.5,3.2,0.7,4.8
			C162.3,281.6,162.4,282.6,162.5,283.7z"/>
	</g>
	<g>
		<path class="st2" d="M176.9,279.9c-0.8,0.4-1.7,0.8-2.5,1.2c-1.5,0.6-3,1.2-4.5,1.6c-0.8-2.7-1.8-6.1-1.9-6.6
			c-0.2-0.8-0.7-1.9-1.1-3c1.9-0.4,3.7-0.8,5.5-1.3C174,274.5,175.5,277.1,176.9,279.9z"/>
	</g>
	<g>
		<path class="st2" d="M185.5,272.3c-0.9,1.6-2.1,3-3.5,4.2c-2.1-2.4-4.9-5.6-5.2-6.1c0,0-0.1-0.1-0.1-0.1c0.5-0.2,0.9-0.5,1.4-0.7
			L185.5,272.3z"/>
	</g>
	<g>
		<path class="st1" d="M163.8,285.4c-1.4,0-2.8-0.2-4.2-0.6c-2.4-0.7-4.4-2.4-5-4.5c-0.5-1.7-0.2-3.5,1.1-5c2-2.5,5.9-3,8.9-3.5
			c0.7-0.1,1.5-0.2,2-0.3c3.8-0.8,7.5-1.6,10.6-3.4c0.8-0.4,1.7-0.2,2.2,0.6c0.4,0.8,0.2,1.7-0.6,2.2c-3.6,2.1-7.6,3-11.6,3.8
			c-0.7,0.1-1.4,0.2-2.2,0.4c-2.5,0.4-5.7,0.8-6.9,2.3c-0.6,0.7-0.7,1.3-0.5,2c0.3,1,1.5,2,2.8,2.4c4.6,1.3,9.6-0.4,14.7-2.4
			c3.4-1.4,7.7-3.4,9.7-7.1c0.4-0.8,1.4-1,2.2-0.6c0.8,0.4,1,1.4,0.6,2.2c-2.6,4.6-7.4,7-11.4,8.5
			C172.2,283.9,168,285.4,163.8,285.4z"/>
	</g>
	<g>
		<path class="st3" d="M147.7,179.3c-1.1,0-2-0.7-2.3-1.7c-1-3.4-3.2-6.4-6-8.4c-1.8-1.3-5.4-1.2-8.5-1c-1.7,0.1-3.3,0.1-4.7,0
			c-12.9-1.1-23.9-3.7-33.7-7.9c-17.8-7.7-31.1-21.1-37.4-37.7c-7.2-19-6.8-41.5,1.1-60.1c6.4-15.1,18.3-27.6,34.4-36.1
			c16.8-8.9,37.4-13.4,61.2-13.4c0.1,0,0.2,0,0.2,0c4.1,0,8.4,0.1,12.8,0.4c20.9,1.3,37.7,5.9,51.4,14c15.9,9.4,27.2,24.8,31.7,43.3
			c3.8,15.5,3,32.2-2.1,47.1c-5.5,15.9-15.8,28.8-29.2,36.4c-9.7,5.5-21,9.4-34.4,11.7c-5.5,1-11.4,1.7-18,2.2l-0.7,0.1
			c-5.6,0.4-7.3,0.5-10.7,4.9c-1.2,1.6-2.1,3.1-2.6,4.7C149.6,178.6,148.7,179.3,147.7,179.3C147.7,179.3,147.7,179.3,147.7,179.3z
			 M133.7,164.3c2.9,0,5.8,0.3,7.9,1.8c2.6,1.9,4.7,4.4,6.2,7.3c0.5-1,1.2-2,2-2.9c4.5-5.6,7.6-5.8,13.4-6.3l0.7,0
			c6.5-0.5,12.3-1.2,17.7-2.1c13-2.3,23.9-5.9,33.2-11.3c12.6-7.2,22.3-19.4,27.5-34.4c4.9-14.2,5.6-30.2,2-45
			c-4.3-17.5-14.9-32-30-41C201,22.7,184.8,18.3,164.5,17c-4.3-0.3-8.5-0.4-12.5-0.4c-0.1,0-0.2,0-0.2,0c-23.2,0-43.2,4.4-59.4,13
			c-15.4,8.1-26.7,20-32.8,34.3c-7.5,17.7-7.9,39.2-1,57.4c5.9,15.7,18.5,28.3,35.4,35.6c9.4,4.1,20.1,6.5,32.6,7.6
			c1.2,0.1,2.7,0.1,4.3,0C131.7,164.4,132.7,164.3,133.7,164.3z"/>
	</g>
	<g>
		<g>
			<path class="st4" d="M127.8,40.7l5.8,7.9h0.7v-7.9h2.4v7.9h0.7l5.8-7.9h2.8l-6.6,8.2c2.9,0.3,4.1,2,5,4.6
				c0.6,1.7,1.1,3.4,1.9,5.1h-2.5c-0.6-1.2-1.1-2.9-1.6-4.2c-0.9-2.4-1.8-4-4.8-4h-0.8v8.2h-2.4v-8.2h-0.8c-3,0-3.9,1.6-4.8,4
				c-0.4,1.3-0.9,3-1.5,4.2h-2.5c0.8-1.6,1.2-3.4,1.9-5c0.9-2.5,2.1-4.3,5-4.6l-6.6-8.2H127.8z"/>
			<path class="st4" d="M146.3,58.8h-2.5c-0.1,0-0.2-0.1-0.2-0.1c-0.4-0.8-0.8-1.9-1.1-2.9c-0.2-0.5-0.3-0.9-0.5-1.3
				c-0.9-2.5-1.8-3.8-4.5-3.8H137v7.9c0,0.1-0.1,0.3-0.3,0.3h-2.4c-0.1,0-0.3-0.1-0.3-0.3v-7.9h-0.6c-2.7,0-3.6,1.2-4.6,3.8
				c-0.1,0.4-0.3,0.8-0.4,1.2c-0.3,1.1-0.7,2.1-1.1,3c0,0.1-0.1,0.1-0.2,0.1h-2.5c-0.1,0-0.2,0-0.2-0.1c0-0.1-0.1-0.2,0-0.3
				c0.5-1.1,0.9-2.3,1.3-3.4c0.2-0.5,0.4-1.1,0.6-1.6c0.9-2.5,2.1-4.2,4.8-4.7l-6.3-7.9c-0.1-0.1-0.1-0.2,0-0.3
				c0-0.1,0.1-0.2,0.2-0.2h2.8c0.1,0,0.2,0,0.2,0.1l5.7,7.8h0.3v-7.7c0-0.1,0.1-0.3,0.3-0.3h2.4c0.1,0,0.3,0.1,0.3,0.3v7.7h0.3
				l5.7-7.8c0.1-0.1,0.1-0.1,0.2-0.1h2.8c0.1,0,0.2,0.1,0.2,0.2c0,0.1,0,0.2,0,0.3l-6.3,7.8c2.7,0.4,3.9,2.2,4.8,4.7
				c0.2,0.6,0.4,1.2,0.6,1.8c0.4,1.1,0.7,2.2,1.2,3.2c0,0.1,0,0.2,0,0.3C146.5,58.8,146.4,58.8,146.3,58.8z M144,58.3h1.9
				c-0.4-0.9-0.7-1.9-1.1-2.9c-0.2-0.6-0.4-1.2-0.6-1.8c-0.9-2.5-2-4.1-4.8-4.4c-0.1,0-0.2-0.1-0.2-0.2c0-0.1,0-0.2,0-0.3l6.3-7.8
				h-2.1l-5.7,7.8c-0.1,0.1-0.1,0.1-0.2,0.1h-0.7c-0.1,0-0.3-0.1-0.3-0.3v-7.7h-1.8v7.7c0,0.1-0.1,0.3-0.3,0.3h-0.7
				c-0.1,0-0.2,0-0.2-0.1l-5.7-7.8h-2.1l6.3,7.8c0.1,0.1,0.1,0.2,0,0.3c0,0.1-0.1,0.2-0.2,0.2c-2.8,0.3-3.9,1.9-4.8,4.4
				c-0.2,0.5-0.4,1.1-0.6,1.6c-0.3,1-0.7,2-1.1,3.1h1.9c0.4-0.8,0.7-1.8,1-2.8c0.1-0.4,0.3-0.9,0.4-1.2c0.8-2.3,1.8-4.2,5.1-4.2h0.8
				c0.1,0,0.3,0.1,0.3,0.3v7.9h1.8v-7.9c0-0.1,0.1-0.3,0.3-0.3h0.8c3.3,0,4.2,1.9,5,4.2c0.2,0.4,0.3,0.9,0.5,1.3
				C143.3,56.5,143.7,57.5,144,58.3z"/>
		</g>
		<g>
			<path class="st4" d="M159.7,45.7v11.1l1.4,0l-0.1,5.8h-1.9l-0.1-4.1h-9.3l-0.1,4.1h-1.9l-0.1-5.8l1.1,0c0.6-0.8,1-1.7,1.3-2.6
				c0.5-1.6,0.8-3.3,0.8-5.1v-3.3H159.7z M152.9,49.6c0,1.7-0.2,3.3-0.7,4.8c-0.3,0.9-0.7,1.7-1.1,2.4h6.2v-9.3h-4.4V49.6z"/>
			<path class="st4" d="M161,62.9h-1.9c-0.1,0-0.3-0.1-0.3-0.3l-0.1-3.8h-8.8l-0.1,3.8c0,0.1-0.1,0.3-0.3,0.3h-1.9
				c-0.1,0-0.3-0.1-0.3-0.3l-0.1-5.8c0-0.1,0.1-0.3,0.3-0.3l1,0c0.5-0.8,0.9-1.6,1.2-2.4c0.5-1.5,0.8-3.2,0.8-5v-3.3
				c0-0.1,0.1-0.3,0.3-0.3h9c0.1,0,0.3,0.1,0.3,0.3v10.8l1.1,0c0.1,0,0.1,0,0.2,0.1c0,0.1,0.1,0.1,0.1,0.2l-0.1,5.8
				C161.3,62.8,161.1,62.9,161,62.9z M159.3,62.4h1.4l0.1-5.3l-1.1,0c-0.1,0-0.3-0.1-0.3-0.3V46h-8.4v3.1c0,1.9-0.3,3.6-0.8,5.2
				c-0.3,0.9-0.8,1.9-1.4,2.7c0,0.1-0.1,0.1-0.2,0.1l-0.9,0l0.1,5.3h1.4l0.1-3.8c0-0.1,0.1-0.3,0.3-0.3h9.3c0.1,0,0.3,0.1,0.3,0.3
				L159.3,62.4z M157.4,57h-6.2c-0.1,0-0.2-0.1-0.2-0.1c0-0.1,0-0.2,0-0.3c0.5-0.8,0.8-1.6,1.1-2.3c0.4-1.4,0.7-3.1,0.7-4.7v-2.1
				c0-0.1,0.1-0.3,0.3-0.3h4.4c0.1,0,0.3,0.1,0.3,0.3v9.3C157.6,56.9,157.5,57,157.4,57z M151.6,56.5h5.5v-8.7h-3.9v1.9
				c0,1.7-0.2,3.4-0.7,4.8C152.3,55.1,152,55.8,151.6,56.5z"/>
		</g>
		<g>
			<path class="st4" d="M164.8,45.7l2.9,7.6c0.3,0.8,0.6,1.9,0.9,2.6h0.1c0.2-0.8,0.5-1.7,0.9-2.7l2.7-7.5h2.6l-3.7,9.1
				c-1.7,4.4-2.9,6.6-4.6,8c-1.2,1-2.4,1.4-3,1.5l-0.6-2c0.6-0.2,1.4-0.6,2.1-1.1c0.7-0.5,1.5-1.4,2.1-2.6c0.1-0.2,0.2-0.4,0.2-0.6
				c0-0.1-0.1-0.3-0.2-0.6l-5-11.8H164.8z"/>
			<path class="st4" d="M163.5,64.7c-0.1,0-0.2-0.1-0.3-0.2l-0.6-2c0-0.1,0-0.1,0-0.2c0-0.1,0.1-0.1,0.2-0.1c0.3-0.1,1.2-0.4,2-1.1
				c0.8-0.6,1.5-1.5,2-2.5c0.1-0.2,0.2-0.4,0.2-0.4c0-0.1-0.1-0.3-0.1-0.5l-5-11.8c0-0.1,0-0.2,0-0.3c0-0.1,0.1-0.1,0.2-0.1h2.7
				c0.1,0,0.2,0.1,0.2,0.2l2.9,7.6c0.2,0.6,0.5,1.3,0.6,1.9c0,0,0-0.1,0-0.1c0.2-0.6,0.4-1.2,0.6-1.8l2.7-7.5c0-0.1,0.1-0.2,0.3-0.2
				h2.6c0.1,0,0.2,0,0.2,0.1c0,0.1,0.1,0.2,0,0.2l-3.7,9.1c-1.9,4.7-3.1,6.8-4.7,8.1C165.3,64.3,164,64.6,163.5,64.7
				C163.6,64.7,163.6,64.7,163.5,64.7z M163.3,62.6l0.5,1.5c0.7-0.2,1.7-0.6,2.6-1.4c1.5-1.3,2.7-3.3,4.5-7.9l3.5-8.8h-2l-2.6,7.3
				c-0.2,0.6-0.4,1.2-0.6,1.8c-0.1,0.3-0.2,0.6-0.3,0.9c0,0.1-0.1,0.2-0.3,0.2h-0.1c-0.1,0-0.2-0.1-0.3-0.2
				c-0.2-0.7-0.5-1.7-0.9-2.6l-2.9-7.4h-2.1l4.8,11.4c0.1,0.3,0.2,0.5,0.2,0.7c0,0.2-0.1,0.4-0.2,0.7c-0.7,1.5-1.7,2.4-2.1,2.7
				C164.7,62,164,62.4,163.3,62.6z"/>
		</g>
		<g>
			<path class="st4" d="M105,77.5v11.1l1.4,0l-0.1,5.8h-1.9l-0.1-4.1h-9.3l-0.1,4.1h-1.9l-0.1-5.8l1.1,0c0.6-0.8,1-1.7,1.3-2.6
				c0.5-1.6,0.8-3.3,0.8-5.1v-3.3H105z M98.2,81.4c0,1.7-0.2,3.3-0.7,4.8c-0.3,0.9-0.7,1.7-1.1,2.4h6.2v-9.3h-4.4V81.4z"/>
			<path class="st4" d="M106.2,94.7h-1.9c-0.1,0-0.3-0.1-0.3-0.3l-0.1-3.8h-8.8l-0.1,3.8c0,0.1-0.1,0.3-0.3,0.3h-1.9
				c-0.1,0-0.3-0.1-0.3-0.3l-0.1-5.8c0-0.1,0.1-0.3,0.3-0.3l1,0c0.5-0.8,0.9-1.6,1.2-2.4c0.5-1.5,0.8-3.2,0.8-5v-3.3
				c0-0.1,0.1-0.3,0.3-0.3h9c0.1,0,0.3,0.1,0.3,0.3v10.8l1.1,0c0.1,0,0.1,0,0.2,0.1c0,0.1,0.1,0.1,0.1,0.2l-0.1,5.8
				C106.5,94.6,106.4,94.7,106.2,94.7z M104.6,94.1h1.4l0.1-5.3l-1.1,0c-0.1,0-0.3-0.1-0.3-0.3V77.8h-8.4v3.1c0,1.9-0.3,3.6-0.8,5.2
				c-0.3,0.9-0.8,1.9-1.4,2.7c0,0.1-0.1,0.1-0.2,0.1l-0.9,0l0.1,5.3h1.4l0.1-3.8c0-0.1,0.1-0.3,0.3-0.3h9.3c0.1,0,0.3,0.1,0.3,0.3
				L104.6,94.1z M102.6,88.8h-6.2c-0.1,0-0.2-0.1-0.2-0.1c0-0.1,0-0.2,0-0.3c0.5-0.8,0.8-1.6,1.1-2.3c0.4-1.4,0.7-3.1,0.7-4.7v-2.1
				c0-0.1,0.1-0.3,0.3-0.3h4.4c0.1,0,0.3,0.1,0.3,0.3v9.3C102.9,88.7,102.8,88.8,102.6,88.8z M96.9,88.3h5.5v-8.7h-3.9v1.9
				c0,1.7-0.2,3.4-0.7,4.8C97.6,86.9,97.3,87.6,96.9,88.3z"/>
		</g>
		<g>
			<path class="st4" d="M121.3,83.8c0,4.7-3.4,6.8-6.7,6.8c-3.6,0-6.4-2.5-6.4-6.6c0-4.3,2.9-6.8,6.7-6.8
				C118.7,77.2,121.3,79.9,121.3,83.8z M110.7,83.9c0,2.8,1.7,4.9,4.1,4.9c2.3,0,4.1-2.1,4.1-5c0-2.2-1.1-4.9-4-4.9
				C111.9,79,110.7,81.5,110.7,83.9z"/>
			<path class="st4" d="M114.6,90.9c-3.9,0-6.7-2.8-6.7-6.9c0-4.2,2.8-7.1,6.9-7.1c4,0,6.7,2.8,6.7,6.9
				C121.6,88.7,118.1,90.9,114.6,90.9z M114.9,77.5c-3.8,0-6.4,2.6-6.4,6.5c0,3.7,2.5,6.3,6.2,6.3c3.2,0,6.4-2,6.4-6.5
				C121.1,80,118.6,77.5,114.9,77.5z M114.8,89.1c-2.5,0-4.3-2.2-4.3-5.2c0-2.6,1.4-5.2,4.4-5.2c2.9,0,4.3,2.7,4.3,5.2
				C119.1,86.9,117.3,89.1,114.8,89.1z M114.8,79.2c-2.7,0-3.9,2.4-3.9,4.7c0,2.7,1.6,4.7,3.8,4.7s3.8-2,3.8-4.7
				C118.6,81.6,117.4,79.2,114.8,79.2z"/>
		</g>
		<g>
			<path class="st4" d="M126.8,77.5v5.6h0.6l5-5.6h3l-5.9,5.8c2.2,0.2,3.5,1.6,4.5,3.9c0.4,0.8,0.8,2.1,1.4,3.1H133
				c-0.4-0.6-0.8-1.6-1.2-2.6c-0.9-2.1-2.2-3-4.4-3h-0.5v5.6h-2.4V77.5H126.8z"/>
			<path class="st4" d="M135.5,90.6H133c-0.1,0-0.2,0-0.2-0.1c-0.4-0.5-0.8-1.5-1.3-2.7c-0.9-2-2.1-2.9-4.2-2.9h-0.2v5.4
				c0,0.1-0.1,0.3-0.3,0.3h-2.4c-0.1,0-0.3-0.1-0.3-0.3V77.5c0-0.1,0.1-0.3,0.3-0.3h2.4c0.1,0,0.3,0.1,0.3,0.3v5.3h0.2l5-5.5
				c0.1-0.1,0.1-0.1,0.2-0.1h3c0.1,0,0.2,0.1,0.2,0.2c0,0.1,0,0.2-0.1,0.3l-5.5,5.4c1.8,0.4,3.1,1.6,4.2,4c0.1,0.2,0.1,0.3,0.2,0.5
				c0.3,0.8,0.7,1.7,1.2,2.6c0,0.1,0,0.2,0,0.3C135.7,90.5,135.6,90.6,135.5,90.6z M133.1,90.1h1.9c-0.4-0.8-0.7-1.6-1-2.2
				c-0.1-0.2-0.1-0.4-0.2-0.5c-1.1-2.4-2.4-3.5-4.3-3.7c-0.1,0-0.2-0.1-0.2-0.2c0-0.1,0-0.2,0.1-0.3l5.4-5.3h-2.2l-5,5.5
				c-0.1,0.1-0.1,0.1-0.2,0.1h-0.6c-0.1,0-0.3-0.1-0.3-0.3v-5.3h-1.9v12.3h1.9v-5.4c0-0.1,0.1-0.3,0.3-0.3h0.5c2.3,0,3.7,1,4.7,3.2
				C132.4,88.6,132.8,89.5,133.1,90.1z"/>
		</g>
		<g>
			<path class="st4" d="M138.8,77.5l2.9,7.6c0.3,0.8,0.6,1.9,0.9,2.6h0.1c0.2-0.8,0.5-1.7,0.9-2.7l2.7-7.5h2.6l-3.7,9.1
				c-1.7,4.4-2.9,6.7-4.6,8c-1.2,1-2.4,1.4-3,1.5l-0.6-2c0.6-0.2,1.4-0.6,2.1-1.1c0.7-0.5,1.5-1.4,2.1-2.6c0.1-0.2,0.2-0.4,0.2-0.6
				c0-0.1-0.1-0.3-0.2-0.6l-5-11.8H138.8z"/>
			<path class="st4" d="M137.5,96.5c-0.1,0-0.2-0.1-0.3-0.2l-0.6-2c0-0.1,0-0.1,0-0.2c0-0.1,0.1-0.1,0.2-0.1c0.3-0.1,1.2-0.4,2-1.1
				c0.8-0.6,1.5-1.5,2-2.5c0.1-0.2,0.2-0.4,0.2-0.4c0-0.1-0.1-0.3-0.1-0.5l-5-11.8c0-0.1,0-0.2,0-0.3c0-0.1,0.1-0.1,0.2-0.1h2.7
				c0.1,0,0.2,0.1,0.2,0.2L142,85c0.2,0.6,0.5,1.3,0.6,1.9c0,0,0-0.1,0-0.1c0.2-0.6,0.4-1.2,0.6-1.8l2.7-7.5c0-0.1,0.1-0.2,0.3-0.2
				h2.6c0.1,0,0.2,0,0.2,0.1c0,0.1,0.1,0.2,0,0.2l-3.7,9.1c-1.9,4.7-3.1,6.8-4.7,8.1C139.2,96.1,137.9,96.4,137.5,96.5
				C137.5,96.5,137.5,96.5,137.5,96.5z M137.2,94.4l0.5,1.5c0.7-0.2,1.7-0.6,2.6-1.4c1.5-1.3,2.7-3.3,4.5-7.9l3.5-8.8h-2l-2.6,7.3
				c-0.2,0.6-0.4,1.2-0.6,1.8c-0.1,0.3-0.2,0.6-0.3,0.9c0,0.1-0.1,0.2-0.3,0.2h-0.1c-0.1,0-0.2-0.1-0.3-0.2
				c-0.2-0.7-0.5-1.7-0.9-2.6l-2.9-7.4h-2.1l4.8,11.4c0.1,0.3,0.2,0.5,0.2,0.7c0,0.2-0.1,0.4-0.2,0.7c-0.7,1.5-1.7,2.4-2.1,2.7
				C138.6,93.8,137.9,94.2,137.2,94.4z"/>
		</g>
		<g>
			<path class="st4" d="M151,77.5h3l2.4,6.5c0.3,1,0.9,2.5,1.2,3.5h0.1c0.3-1,1.1-3,1.6-4.4l2.2-5.6h3l0.9,12.8H163l-0.3-6.1
				c-0.1-1.4-0.2-3-0.2-4.6h-0.1c-0.4,1.2-0.7,2.2-1.5,4.2l-2.6,6.5h-1.8l-2.4-6.3c-0.4-1.2-1-3.1-1.3-4.3h-0.1
				c-0.1,1.5-0.1,3.2-0.2,4.6l-0.3,6.1H150L151,77.5z"/>
			<path class="st4" d="M165.4,90.6H163c-0.1,0-0.3-0.1-0.3-0.3l-0.4-6.9c0-0.8-0.1-1.7-0.1-2.5c-0.3,0.8-0.6,1.7-1.1,3l-2.6,6.5
				c0,0.1-0.1,0.2-0.2,0.2h-1.8c-0.1,0-0.2-0.1-0.2-0.2l-2.4-6.3c-0.3-0.9-0.7-2.1-1-3.1c0,1.1-0.1,2.3-0.2,3.3l-0.3,6.1
				c0,0.1-0.1,0.3-0.3,0.3H150c-0.1,0-0.1,0-0.2-0.1c-0.1-0.1-0.1-0.1-0.1-0.2l1-12.8c0-0.1,0.1-0.2,0.3-0.2h3
				c0.1,0,0.2,0.1,0.2,0.2l2.4,6.5c0.1,0.3,0.2,0.6,0.3,0.9c0.2,0.6,0.5,1.3,0.7,1.9c0.4-1,0.9-2.5,1.4-3.7l2.2-5.6
				c0-0.1,0.1-0.2,0.2-0.2h3c0.1,0,0.3,0.1,0.3,0.2l0.9,12.8c0,0.1,0,0.1-0.1,0.2C165.5,90.6,165.4,90.6,165.4,90.6z M163.3,90.1
				h1.8l-0.9-12.3h-2.6l-2.1,5.4c-0.6,1.5-1.3,3.5-1.6,4.4c0,0.1-0.1,0.2-0.3,0.2h-0.1c-0.1,0-0.2-0.1-0.3-0.2
				c-0.2-0.7-0.6-1.7-0.9-2.6c-0.1-0.3-0.2-0.7-0.3-0.9l-2.4-6.3h-2.6l-1,12.3h1.7l0.3-5.8c0.1-1.5,0.2-3.2,0.2-4.6
				c0-0.1,0.1-0.3,0.3-0.3h0.1c0.1,0,0.2,0.1,0.3,0.2c0.3,1.1,0.9,3,1.3,4.3l2.3,6.2h1.4l2.5-6.3c0.7-1.9,1.1-2.9,1.5-4.1
				c0-0.1,0.1-0.2,0.3-0.2h0.1c0.1,0,0.3,0.1,0.3,0.3c0,1.3,0.1,2.6,0.2,3.8l0,0.8L163.3,90.1z"/>
		</g>
		<g>
			<path class="st4" d="M169.9,84.3c0.1,3.2,2.2,4.5,4.6,4.5c1.7,0,2.8-0.3,3.7-0.7l0.4,1.7c-0.9,0.4-2.3,0.8-4.5,0.8
				c-4.1,0-6.6-2.6-6.6-6.5c0-3.9,2.4-6.9,6.3-6.9c4.4,0,5.5,3.7,5.5,6c0,0.5-0.1,0.8-0.1,1.1H169.9z M177,82.7
				c0-1.5-0.6-3.8-3.4-3.8c-2.5,0-3.6,2.2-3.7,3.8H177z"/>
			<path class="st4" d="M174.2,90.9c-4.2,0-6.9-2.6-6.9-6.7c0-4.2,2.7-7.2,6.6-7.2c4.3,0,5.8,3.4,5.8,6.3c0,0.4,0,0.8-0.1,1l0,0.1
				c0,0.1-0.1,0.2-0.3,0.2h-9.2c0.2,3.5,3.1,3.9,4.3,3.9c1.8,0,2.8-0.3,3.6-0.6c0.1,0,0.2,0,0.2,0c0.1,0,0.1,0.1,0.1,0.2l0.4,1.7
				c0,0.1,0,0.3-0.2,0.3C177.9,90.4,176.4,90.9,174.2,90.9z M173.9,77.5c-3.6,0-6,2.7-6,6.6c0,3.8,2.4,6.2,6.3,6.2
				c2,0,3.3-0.4,4.2-0.7l-0.3-1.2c-0.8,0.3-1.9,0.6-3.5,0.6c-3,0-4.8-1.8-4.9-4.7c0-0.1,0-0.1,0.1-0.2c0-0.1,0.1-0.1,0.2-0.1h9.2
				c0-0.2,0.1-0.5,0.1-0.8C179.1,80.6,177.8,77.5,173.9,77.5z M177,82.9h-7.1c-0.1,0-0.1,0-0.2-0.1c-0.1-0.1-0.1-0.1-0.1-0.2
				c0.2-2,1.6-4,4-4c1.1,0,1.9,0.3,2.6,1c1,1,1.1,2.5,1.1,3.1C177.3,82.8,177.2,82.9,177,82.9z M170.2,82.4h6.5
				c0-0.6-0.2-1.7-0.9-2.4c-0.5-0.5-1.3-0.8-2.2-0.8C171.4,79.2,170.5,81.1,170.2,82.4z"/>
		</g>
		<g>
			<path class="st4" d="M184.8,77.5v5.2h6.4v-5.2h2.4v12.8h-2.4v-5.8h-6.4v5.8h-2.4V77.5H184.8z"/>
			<path class="st4" d="M193.6,90.6h-2.4c-0.1,0-0.3-0.1-0.3-0.3v-5.5h-5.8v5.5c0,0.1-0.1,0.3-0.3,0.3h-2.4c-0.1,0-0.3-0.1-0.3-0.3
				V77.5c0-0.1,0.1-0.3,0.3-0.3h2.4c0.1,0,0.3,0.1,0.3,0.3v4.9h5.8v-4.9c0-0.1,0.1-0.3,0.3-0.3h2.4c0.1,0,0.3,0.1,0.3,0.3v12.8
				C193.8,90.5,193.7,90.6,193.6,90.6z M191.4,90.1h1.9V77.8h-1.9v4.9c0,0.1-0.1,0.3-0.3,0.3h-6.4c-0.1,0-0.3-0.1-0.3-0.3v-4.9h-1.9
				v12.3h1.9v-5.5c0-0.1,0.1-0.3,0.3-0.3h6.4c0.1,0,0.3,0.1,0.3,0.3V90.1z"/>
		</g>
		<g>
			<path class="st4" d="M206.6,77.5v1.9h-4.2v11H200v-11h-4.2v-1.9H206.6z"/>
			<path class="st4" d="M202.4,90.6H200c-0.1,0-0.3-0.1-0.3-0.3V79.6h-3.9c-0.1,0-0.3-0.1-0.3-0.3v-1.9c0-0.1,0.1-0.3,0.3-0.3h10.8
				c0.1,0,0.3,0.1,0.3,0.3v1.9c0,0.1-0.1,0.3-0.3,0.3h-3.9v10.7C202.6,90.5,202.5,90.6,202.4,90.6z M200.2,90.1h1.9V79.4
				c0-0.1,0.1-0.3,0.3-0.3h3.9v-1.3H196v1.3h3.9c0.1,0,0.3,0.1,0.3,0.3V90.1z"/>
		</g>
		<g>
			<path class="st4" d="M89.4,109.3v11.1l1.4,0l-0.1,5.8h-1.9l-0.1-4.1h-9.3l-0.1,4.1h-1.9l-0.1-5.8l1.1,0c0.6-0.8,1-1.7,1.3-2.6
				c0.5-1.6,0.8-3.3,0.8-5.1v-3.3H89.4z M82.6,113.2c0,1.7-0.2,3.3-0.7,4.8c-0.3,0.9-0.7,1.7-1.1,2.4H87v-9.3h-4.4V113.2z"/>
			<path class="st4" d="M90.6,126.5h-1.9c-0.1,0-0.3-0.1-0.3-0.3l-0.1-3.8h-8.8l-0.1,3.8c0,0.1-0.1,0.3-0.3,0.3h-1.9
				c-0.1,0-0.3-0.1-0.3-0.3l-0.1-5.8c0-0.1,0.1-0.3,0.3-0.3l1,0c0.5-0.8,0.9-1.6,1.2-2.4c0.5-1.5,0.8-3.2,0.8-5v-3.3
				c0-0.1,0.1-0.3,0.3-0.3h9c0.1,0,0.3,0.1,0.3,0.3v10.8l1.1,0c0.1,0,0.1,0,0.2,0.1c0,0.1,0.1,0.1,0.1,0.2l-0.1,5.8
				C90.9,126.4,90.8,126.5,90.6,126.5z M89,125.9h1.4l0.1-5.3l-1.1,0c-0.1,0-0.3-0.1-0.3-0.3v-10.8h-8.4v3.1c0,1.9-0.3,3.6-0.8,5.2
				c-0.3,0.9-0.8,1.9-1.4,2.7c0,0.1-0.1,0.1-0.2,0.1l-0.9,0l0.1,5.3h1.4l0.1-3.8c0-0.1,0.1-0.3,0.3-0.3h9.3c0.1,0,0.3,0.1,0.3,0.3
				L89,125.9z M87,120.6h-6.2c-0.1,0-0.2-0.1-0.2-0.1c0-0.1,0-0.2,0-0.3c0.5-0.8,0.8-1.6,1.1-2.3c0.4-1.4,0.7-3.1,0.7-4.7v-2.1
				c0-0.1,0.1-0.3,0.3-0.3H87c0.1,0,0.3,0.1,0.3,0.3v9.3C87.3,120.5,87.1,120.6,87,120.6z M81.3,120.1h5.5v-8.7h-3.9v1.9
				c0,1.7-0.2,3.4-0.7,4.8C81.9,118.7,81.6,119.4,81.3,120.1z"/>
		</g>
		<g>
			<path class="st4" d="M104,109.3v12.8h-2.4v-11H97v3.3c0,3.6-0.4,6-2.1,7.1c-0.7,0.5-1.4,0.8-2.7,0.8l-0.2-1.8
				c0.5-0.1,1-0.3,1.3-0.5c1.2-0.9,1.4-2.7,1.4-5.5v-5.2H104z"/>
			<path class="st4" d="M92.2,122.6c-0.1,0-0.2-0.1-0.3-0.2l-0.2-1.8c0-0.1,0.1-0.3,0.2-0.3c0.5-0.1,0.9-0.3,1.2-0.5
				c1.1-0.8,1.3-2.3,1.3-5.3v-5.2c0-0.1,0.1-0.3,0.3-0.3h9.3c0.1,0,0.3,0.1,0.3,0.3v12.8c0,0.1-0.1,0.3-0.3,0.3h-2.4
				c-0.1,0-0.3-0.1-0.3-0.3v-10.7h-4.1v3.1c0,3.7-0.4,6.2-2.2,7.3C94.2,122.4,93.4,122.6,92.2,122.6z M92.2,120.7l0.2,1.3
				c1,0,1.6-0.2,2.3-0.7c1.7-1,2-3.4,2-6.9v-3.3c0-0.1,0.1-0.3,0.3-0.3h4.6c0.1,0,0.3,0.1,0.3,0.3v10.7h1.9v-12.3h-8.8v4.9
				c0,2.8-0.1,4.8-1.5,5.8C93.2,120.4,92.7,120.6,92.2,120.7z"/>
		</g>
		<g>
			<path class="st4" d="M117.9,122.1h-2.4v-5.4h-1.8c-1,0-1.7,0.3-2.2,0.7c-1,0.8-1.4,2.4-1.9,3.6c-0.2,0.4-0.4,0.7-0.6,1.1h-2.6
				c0.3-0.4,0.6-0.9,0.8-1.5c0.6-1.2,0.9-2.9,2.1-3.9c0.4-0.3,0.9-0.6,1.5-0.7V116c-1.7-0.2-3.6-1.2-3.6-3.2c0-1.3,0.7-2.2,1.8-2.8
				c1.1-0.6,2.7-0.9,4.5-0.9c1.6,0,3.2,0.1,4.3,0.3V122.1z M115.5,110.8c-0.6-0.1-1.2-0.1-2-0.1c-1.7,0-3.6,0.5-3.6,2.2
				c0,1.6,2.1,2.2,3.6,2.2c1,0,1.5,0,2.1,0V110.8z"/>
			<path class="st4" d="M117.9,122.4h-2.4c-0.1,0-0.3-0.1-0.3-0.3V117h-1.5c-0.9,0-1.6,0.2-2.1,0.7c-0.7,0.5-1.1,1.6-1.5,2.6
				c-0.1,0.3-0.2,0.6-0.4,0.9c-0.2,0.4-0.4,0.8-0.6,1.1c0,0.1-0.1,0.1-0.2,0.1h-2.6c-0.1,0-0.2-0.1-0.2-0.1c0-0.1,0-0.2,0-0.3
				c0.3-0.4,0.6-0.9,0.8-1.4c0.2-0.3,0.3-0.7,0.4-1c0.4-1,0.8-2.2,1.8-2.9c0.3-0.2,0.5-0.4,0.8-0.5c-1.6-0.4-2.9-1.5-2.9-3.3
				c0-1.3,0.7-2.3,1.9-3c1.4-0.7,3.3-0.9,4.6-0.9c1.3,0,2.8,0.1,4.4,0.3c0.1,0,0.2,0.1,0.2,0.3v12.7
				C118.1,122.3,118,122.4,117.9,122.4z M115.7,121.9h1.9v-12.2c-1.4-0.2-2.8-0.2-4.1-0.2c-1.8,0-3.4,0.3-4.4,0.8
				c-0.7,0.4-1.6,1.2-1.6,2.5c0,1.8,1.7,2.7,3.3,2.9c0.1,0,0.2,0.1,0.2,0.3v0.1c0,0.1-0.1,0.2-0.2,0.3c-0.5,0.1-0.9,0.3-1.4,0.7
				c-0.8,0.7-1.2,1.7-1.6,2.7c-0.1,0.4-0.3,0.7-0.4,1.1c-0.2,0.4-0.4,0.7-0.6,1.1h2c0.1-0.2,0.3-0.5,0.5-0.9
				c0.1-0.3,0.2-0.6,0.4-0.9c0.4-1.1,0.8-2.2,1.6-2.8c0.6-0.5,1.4-0.8,2.4-0.8h1.8c0.1,0,0.3,0.1,0.3,0.3V121.9z M115.5,115.4h-2.1
				c-1.9,0-3.8-0.8-3.8-2.5c0-1.6,1.4-2.5,3.9-2.5c0.9,0,1.4,0.1,2.1,0.1c0.1,0,0.2,0.1,0.2,0.3v4.3
				C115.7,115.3,115.6,115.4,115.5,115.4z M113.4,111c-1.3,0-3.4,0.3-3.4,2c0,1.4,2,2,3.3,2h1.8v-3.8C114.7,111,114.2,111,113.4,111
				z"/>
		</g>
		<g>
			<path class="st4" d="M135.2,122.1l-0.2-1.6h-0.1c-0.7,1-2.2,1.9-4.1,1.9c-2.7,0-4.1-1.8-4.1-3.7c0-3.1,2.9-4.8,8.1-4.8v-0.3
				c0-1.1-0.3-3-3.1-3c-1.2,0-2.6,0.4-3.5,1l-0.6-1.5c1.1-0.7,2.7-1.1,4.4-1.1c4.1,0,5.1,2.7,5.1,5.2v4.8c0,1.1,0.1,2.2,0.2,3.1
				H135.2z M134.8,115.6c-2.7-0.1-5.7,0.4-5.7,2.9c0,1.5,1.1,2.2,2.3,2.2c1.7,0,2.9-1.1,3.2-2.1c0.1-0.2,0.1-0.5,0.1-0.7V115.6z"/>
			<path class="st4" d="M130.8,122.7c-2.9,0-4.4-2-4.4-3.9c0-1.2,0.4-2.2,1.2-3c1.3-1.3,3.7-2,6.9-2c0-1.8-0.9-2.7-2.8-2.7
				c-1.2,0-2.4,0.3-3.4,0.9c-0.1,0-0.2,0.1-0.2,0c-0.1,0-0.1-0.1-0.2-0.2l-0.6-1.5c0-0.1,0-0.3,0.1-0.3c1.2-0.7,2.9-1.2,4.5-1.2
				c4.4,0,5.4,3,5.4,5.5v4.8c0,1.3,0.1,2.3,0.2,3c0,0.1,0,0.2-0.1,0.2c-0.1,0.1-0.1,0.1-0.2,0.1h-2.2c-0.1,0-0.2-0.1-0.3-0.2
				l-0.1-1.1C133.8,122.1,132.3,122.7,130.8,122.7z M134.6,114.2c-3.1,0-5.4,0.6-6.6,1.9c-0.7,0.7-1.1,1.6-1.1,2.6
				c0,1.6,1.2,3.4,3.8,3.4c1.6,0,3.1-0.7,3.9-1.8c0.1-0.1,0.1-0.1,0.2-0.1h0.1c0.1,0,0.2,0.1,0.3,0.2l0.2,1.4h1.7
				c-0.1-0.7-0.2-1.7-0.2-2.8v-4.8c0-3.3-1.6-5-4.8-5c-1.5,0-3,0.4-4.1,1l0.4,1c1-0.5,2.2-0.8,3.4-0.8c2.1,0,3.3,1.1,3.3,3.2v0.3
				c0,0.1,0,0.1-0.1,0.2c-0.1,0-0.1,0.1-0.2,0.1C134.7,114.2,134.7,114.2,134.6,114.2z M131.4,121c-1.6,0-2.6-1-2.6-2.5
				c0-0.8,0.3-1.4,0.8-1.9c0.9-0.9,2.7-1.3,5.2-1.3c0.1,0,0.3,0.1,0.3,0.3v2.2c0,0.3-0.1,0.5-0.2,0.8
				C134.5,119.7,133.4,121,131.4,121z M134.4,115.8c-2.2,0-3.7,0.4-4.4,1.1c-0.4,0.4-0.6,0.9-0.6,1.5c0,1.4,1.1,2,2,2
				c1.7,0,2.7-1.1,3-2c0.1-0.2,0.1-0.5,0.1-0.7v-2C134.5,115.8,134.4,115.8,134.4,115.8z"/>
		</g>
		<g>
			<path class="st4" d="M143.4,109.3v5.2h6.4v-5.2h2.4v12.8h-2.4v-5.8h-6.4v5.8H141v-12.8H143.4z"/>
			<path class="st4" d="M152.2,122.4h-2.4c-0.1,0-0.3-0.1-0.3-0.3v-5.5h-5.8v5.5c0,0.1-0.1,0.3-0.3,0.3H141c-0.1,0-0.3-0.1-0.3-0.3
				v-12.8c0-0.1,0.1-0.3,0.3-0.3h2.4c0.1,0,0.3,0.1,0.3,0.3v4.9h5.8v-4.9c0-0.1,0.1-0.3,0.3-0.3h2.4c0.1,0,0.3,0.1,0.3,0.3v12.8
				C152.5,122.3,152.4,122.4,152.2,122.4z M150.1,121.9h1.9v-12.3h-1.9v4.9c0,0.1-0.1,0.3-0.3,0.3h-6.4c-0.1,0-0.3-0.1-0.3-0.3v-4.9
				h-1.9v12.3h1.9v-5.5c0-0.1,0.1-0.3,0.3-0.3h6.4c0.1,0,0.3,0.1,0.3,0.3V121.9z"/>
		</g>
		<g>
			<path class="st4" d="M163.7,122.1l-0.2-1.6h-0.1c-0.7,1-2.2,1.9-4.1,1.9c-2.7,0-4.1-1.8-4.1-3.7c0-3.1,2.9-4.8,8.1-4.8v-0.3
				c0-1.1-0.3-3-3.1-3c-1.2,0-2.6,0.4-3.5,1l-0.6-1.5c1.1-0.7,2.7-1.1,4.4-1.1c4.1,0,5.1,2.7,5.1,5.2v4.8c0,1.1,0.1,2.2,0.2,3.1
				H163.7z M163.3,115.6c-2.7-0.1-5.7,0.4-5.7,2.9c0,1.5,1.1,2.2,2.3,2.2c1.7,0,2.9-1.1,3.2-2.1c0.1-0.2,0.1-0.5,0.1-0.7V115.6z"/>
			<path class="st4" d="M159.3,122.7c-2.9,0-4.4-2-4.4-3.9c0-1.2,0.4-2.2,1.2-3c1.3-1.3,3.7-2,6.9-2c0-1.8-0.9-2.7-2.8-2.7
				c-1.2,0-2.4,0.3-3.4,0.9c-0.1,0-0.2,0.1-0.2,0c-0.1,0-0.1-0.1-0.2-0.2l-0.6-1.5c0-0.1,0-0.3,0.1-0.3c1.2-0.7,2.9-1.2,4.5-1.2
				c4.4,0,5.4,3,5.4,5.5v4.8c0,1.3,0.1,2.3,0.2,3c0,0.1,0,0.2-0.1,0.2c-0.1,0.1-0.1,0.1-0.2,0.1h-2.2c-0.1,0-0.2-0.1-0.3-0.2
				l-0.1-1.1C162.3,122.1,160.9,122.7,159.3,122.7z M163.1,114.2c-3.1,0-5.4,0.6-6.6,1.9c-0.7,0.7-1.1,1.6-1.1,2.6
				c0,1.6,1.2,3.4,3.8,3.4c1.6,0,3.1-0.7,3.9-1.8c0.1-0.1,0.1-0.1,0.2-0.1h0.1c0.1,0,0.2,0.1,0.3,0.2l0.2,1.4h1.7
				c-0.1-0.7-0.2-1.7-0.2-2.8v-4.8c0-3.3-1.6-5-4.8-5c-1.5,0-3,0.4-4.1,1l0.4,1c1-0.5,2.2-0.8,3.4-0.8c2.1,0,3.3,1.1,3.3,3.2v0.3
				c0,0.1,0,0.1-0.1,0.2c-0.1,0-0.1,0.1-0.2,0.1C163.2,114.2,163.2,114.2,163.1,114.2z M159.9,121c-1.6,0-2.6-1-2.6-2.5
				c0-0.8,0.3-1.4,0.8-1.9c0.9-0.9,2.7-1.3,5.2-1.3c0.1,0,0.3,0.1,0.3,0.3v2.2c0,0.3-0.1,0.5-0.2,0.8C163,119.7,161.9,121,159.9,121
				z M162.9,115.8c-2.2,0-3.7,0.4-4.4,1.1c-0.4,0.4-0.6,0.9-0.6,1.5c0,1.4,1.1,2,2,2c1.7,0,2.7-1.1,3-2c0.1-0.2,0.1-0.5,0.1-0.7v-2
				C163,115.8,163,115.8,162.9,115.8z"/>
		</g>
		<g>
			<path class="st4" d="M179.8,109.3v12.8h-2.4v-11h-4.6v3.3c0,3.6-0.4,6-2.1,7.1c-0.7,0.5-1.4,0.8-2.7,0.8l-0.2-1.8
				c0.5-0.1,1-0.3,1.3-0.5c1.2-0.9,1.4-2.7,1.4-5.5v-5.2H179.8z"/>
			<path class="st4" d="M168,122.6c-0.1,0-0.2-0.1-0.3-0.2l-0.2-1.8c0-0.1,0.1-0.3,0.2-0.3c0.5-0.1,0.9-0.3,1.2-0.5
				c1.1-0.8,1.3-2.3,1.3-5.3v-5.2c0-0.1,0.1-0.3,0.3-0.3h9.3c0.1,0,0.3,0.1,0.3,0.3v12.8c0,0.1-0.1,0.3-0.3,0.3h-2.4
				c-0.1,0-0.3-0.1-0.3-0.3v-10.7h-4.1v3.1c0,3.7-0.4,6.2-2.2,7.3C170.1,122.4,169.2,122.6,168,122.6z M168.1,120.7l0.2,1.3
				c1,0,1.6-0.2,2.3-0.7c1.7-1,2-3.4,2-6.9v-3.3c0-0.1,0.1-0.3,0.3-0.3h4.6c0.1,0,0.3,0.1,0.3,0.3v10.7h1.9v-12.3h-8.8v4.9
				c0,2.8-0.1,4.8-1.5,5.8C169,120.4,168.6,120.6,168.1,120.7z"/>
		</g>
		<g>
			<path class="st4" d="M186.1,109.3v5.4c0,2,0,3.3-0.1,5.1l0.1,0c0.8-1.6,1.3-2.5,2.2-3.9l4.2-6.6h2.9v12.8h-2.3v-5.4
				c0-2.1,0.1-3.2,0.2-5.2H193c-0.9,1.6-1.4,2.7-2.2,4c-1.3,2-2.7,4.5-4.2,6.7h-2.8v-12.8H186.1z"/>
			<path class="st4" d="M195.2,122.4h-2.3c-0.1,0-0.3-0.1-0.3-0.3v-5.4c0-1.7,0-2.7,0.1-4.2c-0.6,1.1-1.1,2-1.8,3.1
				c-0.6,1-1.3,2.1-2,3.2c-0.7,1.2-1.5,2.4-2.2,3.5c0,0.1-0.1,0.1-0.2,0.1h-2.8c-0.1,0-0.3-0.1-0.3-0.3v-12.8c0-0.1,0.1-0.3,0.3-0.3
				h2.3c0.1,0,0.3,0.1,0.3,0.3v5.4c0,1.7,0,2.9-0.1,4.1c0.5-1,1-1.9,1.7-3l4.2-6.6c0-0.1,0.1-0.1,0.2-0.1h2.9c0.1,0,0.3,0.1,0.3,0.3
				v12.8C195.5,122.3,195.4,122.4,195.2,122.4z M193.2,121.9h1.8v-12.3h-2.4l-4.1,6.5c-0.9,1.5-1.4,2.4-2.2,3.9
				c-0.1,0.1-0.2,0.2-0.3,0.1l-0.1,0c-0.1,0-0.2-0.1-0.2-0.3c0.1-1.7,0.1-3,0.1-5.1v-5.1H184v12.3h2.4c0.7-1.1,1.4-2.3,2.1-3.4
				c0.7-1.1,1.4-2.2,2-3.2c0.8-1.4,1.4-2.4,2.2-4c0-0.1,0.1-0.1,0.2-0.1h0.1c0.1,0,0.1,0,0.2,0.1c0,0.1,0.1,0.1,0.1,0.2
				c-0.1,2.1-0.2,3.2-0.2,5.2V121.9z"/>
		</g>
		<g>
			<path class="st4" d="M200.3,114.7h1.2c2.1,0,3.4-0.9,3.4-2.1c0-1.1-1.1-1.9-2.6-1.9c-1.1,0-2.3,0.3-3.2,0.9l-0.6-1.4
				c1.4-0.8,2.9-1.2,4.5-1.2c2.1,0,4.5,0.9,4.5,3.4c0,1.6-1.5,2.6-3,2.9v0.1c2,0.2,3.7,1.3,3.7,3.2c0,2.8-3,3.8-5.8,3.8
				c-1.6,0-3.2-0.4-4.4-1l0.6-1.6c1,0.5,2.3,0.9,3.6,0.9c2,0,3.3-0.9,3.3-2.2c0-1.7-1.9-2.2-3.9-2.2h-1.2V114.7z"/>
			<path class="st4" d="M202.3,122.7c-1.6,0-3.2-0.4-4.5-1.1c-0.1-0.1-0.2-0.2-0.1-0.3l0.6-1.6c0-0.1,0.1-0.1,0.2-0.1
				c0.1,0,0.1,0,0.2,0c1,0.5,2.3,0.8,3.4,0.8c1.8,0,3-0.8,3-1.9c0-1.3-1.2-1.9-3.6-1.9h-1.2c-0.1,0-0.3-0.1-0.3-0.3v-1.6
				c0-0.1,0.1-0.3,0.3-0.3h1.2c1.8,0,3.2-0.8,3.2-1.8c0-1-0.9-1.6-2.3-1.6c-1,0-2.2,0.3-3.1,0.9c-0.1,0-0.1,0-0.2,0
				c-0.1,0-0.1-0.1-0.2-0.1l-0.6-1.4c-0.1-0.1,0-0.3,0.1-0.3c1.3-0.8,2.9-1.2,4.6-1.2c2.4,0,4.8,1.1,4.8,3.6c0,1.4-1,2.4-2.2,2.9
				c1.8,0.5,2.9,1.7,2.9,3.3C208.4,121.6,205.2,122.7,202.3,122.7z M198.3,121.2c1.2,0.6,2.6,0.9,4,0.9c2.7,0,5.5-0.9,5.5-3.5
				c0-1.8-1.7-2.8-3.4-2.9c-0.1,0-0.2-0.1-0.2-0.3c0-0.1,0.1-0.3,0.2-0.3c1.4-0.3,2.8-1.2,2.8-2.7c0-2.3-2.3-3.1-4.3-3.1
				c-1.5,0-2.9,0.3-4.1,1l0.4,0.9c0.9-0.5,2.1-0.8,3.1-0.8c1.7,0,2.9,0.9,2.9,2.1c0,1.4-1.5,2.4-3.7,2.4h-0.9v1.1h1
				c3.5,0,4.2,1.3,4.2,2.5c0,1.5-1.4,2.5-3.6,2.5c-1.1,0-2.4-0.3-3.4-0.8L198.3,121.2z"/>
		</g>
		<g>
			<path class="st4" d="M218.6,122.1l-0.2-1.6h-0.1c-0.7,1-2.2,1.9-4.1,1.9c-2.7,0-4.1-1.8-4.1-3.7c0-3.1,2.9-4.8,8.1-4.8v-0.3
				c0-1.1-0.3-3-3.1-3c-1.2,0-2.6,0.4-3.5,1l-0.6-1.5c1.1-0.7,2.7-1.1,4.4-1.1c4.1,0,5.1,2.7,5.1,5.2v4.8c0,1.1,0.1,2.2,0.2,3.1
				H218.6z M218.2,115.6c-2.7-0.1-5.7,0.4-5.7,2.9c0,1.5,1.1,2.2,2.3,2.2c1.7,0,2.9-1.1,3.2-2.1c0.1-0.2,0.1-0.5,0.1-0.7V115.6z"/>
			<path class="st4" d="M214.2,122.7c-2.9,0-4.4-2-4.4-3.9c0-1.2,0.4-2.2,1.2-3c1.3-1.3,3.7-2,6.9-2c0-1.8-0.9-2.7-2.8-2.7
				c-1.2,0-2.4,0.3-3.4,0.9c-0.1,0-0.2,0.1-0.2,0c-0.1,0-0.1-0.1-0.2-0.2l-0.6-1.5c0-0.1,0-0.3,0.1-0.3c1.2-0.7,2.9-1.2,4.6-1.2
				c4.4,0,5.4,3,5.4,5.5v4.8c0,1.3,0.1,2.3,0.2,3c0,0.1,0,0.2-0.1,0.2c-0.1,0.1-0.1,0.1-0.2,0.1h-2.2c-0.1,0-0.2-0.1-0.3-0.2
				l-0.1-1.1C217.2,122.1,215.8,122.7,214.2,122.7z M218,114.2c-3.1,0-5.4,0.6-6.6,1.9c-0.7,0.7-1.1,1.6-1.1,2.6
				c0,1.6,1.2,3.4,3.8,3.4c1.6,0,3.1-0.7,3.9-1.8c0.1-0.1,0.1-0.1,0.2-0.1h0.1c0.1,0,0.2,0.1,0.3,0.2l0.2,1.4h1.7
				c-0.1-0.7-0.2-1.7-0.2-2.8v-4.8c0-3.3-1.6-5-4.8-5c-1.5,0-3,0.4-4.1,1l0.4,1c1-0.5,2.2-0.8,3.4-0.8c2.1,0,3.3,1.1,3.3,3.2v0.3
				c0,0.1,0,0.1-0.1,0.2c-0.1,0-0.1,0.1-0.2,0.1C218.1,114.2,218.1,114.2,218,114.2z M214.8,121c-1.6,0-2.6-1-2.6-2.5
				c0-0.8,0.3-1.4,0.8-1.9c0.9-0.9,2.7-1.3,5.2-1.3c0.1,0,0.3,0.1,0.3,0.3v2.2c0,0.3-0.1,0.6-0.2,0.8
				C217.9,119.7,216.8,121,214.8,121z M217.8,115.8c-2.2,0-3.7,0.4-4.4,1.1c-0.4,0.4-0.6,0.9-0.6,1.5c0,1.4,1.1,2,2,2
				c1.7,0,2.7-1.1,3-2c0.1-0.2,0.1-0.5,0.1-0.7v-2C217.9,115.8,217.9,115.8,217.8,115.8z"/>
		</g>
	</g>
</g>
</svg>
